<svg id="Capa_1" data-name="Capa 1" xmlns="http://www.w3.org/2000/svg" viewBox="0 0 1080 583.63"><defs><style>.cls-1{fill:#1cb8d4;}.cls-1,.cls-2,.cls-3,.cls-4,.cls-5,.cls-6{fill-rule:evenodd;}.cls-2{fill:#ec731a;}.cls-3{fill:#f7a73d;}.cls-4{fill:#21628c;}.cls-5{fill:#1a1d39;}.cls-6{fill:#fcfcfc;}</style></defs><title>logopeque</title><path class="cls-1" d="M941.3,177.87a59.58,59.58,0,0,0,45.76,4.22c17.45-5.4,32.3-19.76,42.7-36.27,3.92-6.49,8.07-13,10.65-20.19a167.52,167.52,0,0,1-39.49,36c-14.76,9.62-31.28,15.86-47.72,16.57C949.21,178.26,945.27,177.93,941.3,177.87Z"/><path class="cls-2" d="M892.46,164.36a125.55,125.55,0,0,0,17.19,47.47,132.85,132.85,0,0,0,26.18,30.67,139.87,139.87,0,0,0,28.48,19.22c-5.1-2-10-4.61-15-7.15-12.28-6.57-24.22-14.42-34.61-24.71-9.15-9.13-17.17-20.43-21.21-33.82C890.44,185.87,889.65,174.52,892.46,164.36Z"/><path class="cls-1" d="M1068.27,156.63A175.92,175.92,0,0,1,1051,179.5c-20.31,23-43.8,37.74-66.56,39.38-8.59.55-17.18-.06-25.15-3.36,6.74.65,13.69-.59,20.6-2,16.87-3.86,33.83-11.78,50.22-23.13C1043.28,181.27,1056.05,169.74,1068.27,156.63Z"/><path class="cls-3" d="M914.26,210.91a75,75,0,0,1-11.62-36.85,123.41,123.41,0,0,0,20.23,40.16,114.9,114.9,0,0,0,29.5,27.5c.29.19.57.4.85.61a60.54,60.54,0,0,1-8.89-4.05A82.31,82.31,0,0,1,914.26,210.91Z"/><path class="cls-1" d="M967.9,245a132.1,132.1,0,0,1,8.44,23.14,30.17,30.17,0,0,1-5.59-5.18,99.41,99.41,0,0,1-7.17-9.33,20.23,20.23,0,0,0,4.18,3.3c.5.23,1.3.46,1.74,0a3,3,0,0,0,.63-2.22A38.14,38.14,0,0,0,967.9,245Z"/><path class="cls-4" d="M962,220.16a24.91,24.91,0,0,1,7,4.25,39.69,39.69,0,0,1,11.23,16,63,63,0,0,1,4.09,19.45,108.54,108.54,0,0,1-1.47,23.94,181,181,0,0,1-4.21,18.79,126.57,126.57,0,0,0,2.73-39.61,81.9,81.9,0,0,0-4.69-20.69,58.67,58.67,0,0,0-9.76-17A56.61,56.61,0,0,0,962,220.16Z"/><path class="cls-4" d="M994.19,275.53a13.87,13.87,0,0,0-1.9-5c-3.91,19.67-8,39.28-11.82,59,5.17-11.52,9.8-23.56,12.64-36.26C994.29,287.44,995.21,281.31,994.19,275.53Z"/><path class="cls-2" d="M943.49,273.7a12.19,12.19,0,0,1,13.19.67,17,17,0,0,1,6.51,9.79,18.69,18.69,0,0,0-13-6.3,18.43,18.43,0,0,0-14.27,6.29A16.52,16.52,0,0,1,943.49,273.7Z"/><path class="cls-3" d="M965.5,268.2a18.83,18.83,0,0,0-6.31-4.46c5.39,9.52,8.31,20.18,10.72,30.68a339.8,339.8,0,0,1,5.92,38.11c.59-5.87.47-11.95.49-17.95-.2-10.4-.84-21-3.59-31.45C971.33,277.78,969.15,272.33,965.5,268.2Z"/><path class="cls-1" d="M944,173.55a39.73,39.73,0,0,0,31.69-6c10.93-7.35,18.63-20.63,22.95-34.59,1.59-5.46,3.33-11,3.89-16.67A131.21,131.21,0,0,1,981.71,150c-8.41,9.86-18.58,17.62-29.6,21.38C949.42,172.27,946.7,172.81,944,173.55Z"/><path class="cls-1" d="M944.63,169.33c6.94-1.68,13.46-6.5,17.79-13.56,4.83-7.88,6.25-18.36,5.45-28.2a62.11,62.11,0,0,0-1.73-11.34,96.61,96.61,0,0,1-4.37,27c-2.69,8.62-7,16.52-12.74,22.25C947.61,166.86,946.09,168,944.63,169.33Z"/><path class="cls-4" d="M1060.06,162.8A159.88,159.88,0,0,1,1038,179.63c-25,16-51.13,23.16-73.45,17.89-8.41-2.06-16.55-5.24-23.45-10.82,6.34,2.66,13.34,3.56,20.34,4.24,17.17,1.37,35.39-1.15,53.87-7.15C1030.16,179,1045.19,171.75,1060.06,162.8Z"/><path class="cls-4" d="M932.76,292.82a5.39,5.39,0,0,1,1.18-3.91,5.49,5.49,0,0,1,3.94-1.16h19.38a5.94,5.94,0,0,1,4,1.16,5.1,5.1,0,0,1,1.27,3.91V430.6a11,11,0,0,1-1.17,5.71,4,4,0,0,1-3.72,1.9,7.15,7.15,0,0,1-4.05-1.48,51.58,51.58,0,0,1-6-5.28l-81.15-85.16V430.6c0,1.83-.42,3.14-1.28,3.91a5.86,5.86,0,0,1-4,1.16H841.82a5.49,5.49,0,0,1-4-1.16,5.42,5.42,0,0,1-1.17-3.91V292.82q0-7.6,4.69-7.61a7.69,7.69,0,0,1,4.15,1.48,44.56,44.56,0,0,1,6.07,5.29l81.15,85.16Z"/><path class="cls-4" d="M684.62,361.92a51,51,0,0,0,6.18,25.26,44.91,44.91,0,0,0,16.93,17.33,47.39,47.39,0,0,0,24.18,6.23,48.12,48.12,0,0,0,24.17-6.23,45.66,45.66,0,0,0,17.36-17.44,49.85,49.85,0,0,0,6.39-25.15,51.9,51.9,0,0,0-6.28-25.67,44,44,0,0,0-17.25-17.43,48.73,48.73,0,0,0-24.18-6.14A47.28,47.28,0,0,0,708,318.92a45.39,45.39,0,0,0-17,17.43,51.36,51.36,0,0,0-6.29,25.57Zm-30.88.43q0-22,10.22-39.63a72.68,72.68,0,0,1,28.12-27.57q17.89-9.94,40.25-9.94T772.59,295a71.63,71.63,0,0,1,28,27.26q10.13,17.43,10.12,39.2,0,22-10.23,39.52a71.88,71.88,0,0,1-28.22,27.36q-18,9.83-40.57,9.83-22.16,0-39.94-9.72a71.22,71.22,0,0,1-27.9-27.05Q653.74,384.12,653.74,362.35Z"/><path class="cls-4" d="M534,315.22a2.34,2.34,0,0,0-2.77,2.75v87.49a2.92,2.92,0,0,0,.64,2.11,3,3,0,0,0,2.13.63h17.9q17,0,29.07-5.7a40.62,40.62,0,0,0,18.21-16.27q6.18-10.58,6.18-25.15,0-13.95-6.18-24.3a40.48,40.48,0,0,0-18-16q-11.82-5.6-28.43-5.6Zm-32.58-22.4a5.39,5.39,0,0,1,1.17-3.91,5.49,5.49,0,0,1,3.94-1.16h48.77q25.14,0,43.45,8.88t27.91,25.25q9.59,16.38,9.58,38.14,0,23-10,40.05t-29.07,26.31q-19.07,9.3-45.26,9.29H506.56c-1.85,0-3.16-.38-3.94-1.16a5.38,5.38,0,0,1-1.17-3.91Z"/><path class="cls-4" d="M437.12,292.82a5.39,5.39,0,0,1,1.17-3.91,5.5,5.5,0,0,1,3.94-1.16h19.38a5.92,5.92,0,0,1,4.05,1.16,5.1,5.1,0,0,1,1.28,3.91V430.6a11.09,11.09,0,0,1-1.17,5.71,4.05,4.05,0,0,1-3.73,1.9,7.1,7.1,0,0,1-4-1.48,50.75,50.75,0,0,1-6-5.28l-81.15-85.16V430.6a5.09,5.09,0,0,1-1.28,3.91,5.87,5.87,0,0,1-4.05,1.16H346.17a5.46,5.46,0,0,1-3.94-1.16,5.38,5.38,0,0,1-1.17-3.91V292.82q0-7.6,4.68-7.61a7.72,7.72,0,0,1,4.16,1.48A45.17,45.17,0,0,1,356,292l81.15,85.16Z"/><path class="cls-4" d="M190.52,361.92a51,51,0,0,0,6.18,25.26,44.91,44.91,0,0,0,16.93,17.33,47.39,47.39,0,0,0,24.18,6.23A48.12,48.12,0,0,0,262,404.51a45.66,45.66,0,0,0,17.36-17.44,49.85,49.85,0,0,0,6.39-25.15,51.9,51.9,0,0,0-6.28-25.67,44,44,0,0,0-17.25-17.43A48.73,48.73,0,0,0,238,312.68a47.28,47.28,0,0,0-24.17,6.24,45.39,45.39,0,0,0-17,17.43,51.36,51.36,0,0,0-6.29,25.57Zm-30.88.43q0-22,10.22-39.63A72.68,72.68,0,0,1,198,295.15q17.9-9.94,40.25-9.94T278.49,295a71.63,71.63,0,0,1,28,27.26q10.11,17.43,10.12,39.2,0,22-10.23,39.52a71.88,71.88,0,0,1-28.22,27.36q-18,9.83-40.57,9.83-22.15,0-39.94-9.72a71.22,71.22,0,0,1-27.9-27.05Q159.64,384.12,159.64,362.35Z"/><path class="cls-4" d="M55,430.6c0,1.83-.42,3.14-1.27,3.91a5.9,5.9,0,0,1-4,1.16H30.3a5.49,5.49,0,0,1-3.95-1.16,5.38,5.38,0,0,1-1.17-3.91V292.82a5.39,5.39,0,0,1,1.17-3.91,5.53,5.53,0,0,1,3.95-1.16H75.45q32.16,0,47.93,11.94t15.76,36q0,14.37-7.14,24.09t-19.91,15l34.5,54.31c1.14,1.84,1.71,3.17,1.71,4q0,2.53-5.12,2.53H122.52a12.46,12.46,0,0,1-6.07-1.16c-1.34-.77-2.8-2.43-4.36-5l-36.43-60a6.12,6.12,0,0,1-1.27-3.17c0-1.41,1.27-2.18,3.83-2.32q13.43-1.49,21.62-7.82t8.2-18q0-12.48-8.63-18.28t-25-5.82H57.77a3.39,3.39,0,0,0-2.13.53,2.89,2.89,0,0,0-.64,2.22Z"/><path class="cls-4" d="M553.69,198.45a51.08,51.08,0,0,0,6.17,25.25A44.8,44.8,0,0,0,576.8,241,47.28,47.28,0,0,0,601,247.27,48.06,48.06,0,0,0,625.15,241a45.63,45.63,0,0,0,17.36-17.43,49.85,49.85,0,0,0,6.39-25.15,51.9,51.9,0,0,0-6.29-25.67,44.05,44.05,0,0,0-17.25-17.44,48.78,48.78,0,0,0-24.18-6.13A47.38,47.38,0,0,0,577,155.45a45.39,45.39,0,0,0-17,17.43,51.35,51.35,0,0,0-6.28,25.57Zm-30.89.43q0-22,10.23-39.63a72.59,72.59,0,0,1,28.11-27.57q17.9-9.95,40.26-9.94t40.26,9.83a71.61,71.61,0,0,1,28,27.26q10.13,17.43,10.12,39.2,0,22-10.22,39.52a72,72,0,0,1-28.22,27.36q-18,9.82-40.58,9.83-22.15,0-39.94-9.72a71.22,71.22,0,0,1-27.9-27Q522.81,220.65,522.8,198.88Z"/><path class="cls-4" d="M439.84,249.63c.14-1.83.53-3.06,1.17-3.7a4,4,0,0,1,2.88-1,40.85,40.85,0,0,1,4.36.32,46.75,46.75,0,0,0,5,.31,15.46,15.46,0,0,0,13.1-6.44c3.19-4.3,4.69-10.46,4.79-18.49l1.17-90.32c0-1.83.43-3.13,1.28-3.91a5.92,5.92,0,0,1,4-1.16H497a5.5,5.5,0,0,1,3.94,1.16,5.3,5.3,0,0,1,1.17,3.91L501,222.79c-.21,16.34-3.55,28.81-10.65,37.4s-18.25,12.89-33.44,12.89a67,67,0,0,1-14.7-1.26,6.62,6.62,0,0,1-3.62-2.12c-.57-.84-.71-2.25-.43-4.22Z"/><path class="cls-4" d="M404.31,244.73a5.87,5.87,0,0,1,4.05,1.17,5.06,5.06,0,0,1,1.28,3.9v17.33a5.09,5.09,0,0,1-1.28,3.91,5.87,5.87,0,0,1-4.05,1.16H318.69c-1.85,0-3.16-.38-3.94-1.16a5.33,5.33,0,0,1-1.18-3.91V129.35a5.35,5.35,0,0,1,1.18-3.91,5.49,5.49,0,0,1,3.94-1.16H404.1a6,6,0,0,1,4,1.16,5.1,5.1,0,0,1,1.27,3.91v17.33a5.1,5.1,0,0,1-1.27,3.91,6,6,0,0,1-4,1.16H346.16a2.34,2.34,0,0,0-2.77,2.75v26.84a2.92,2.92,0,0,0,.64,2.11,3,3,0,0,0,2.13.63h50.7a5.53,5.53,0,0,1,4,1.27,5.44,5.44,0,0,1,1.28,4v17.11c0,1.83-.42,3.14-1.28,3.91a5.86,5.86,0,0,1-4,1.16h-50.7a3.39,3.39,0,0,0-2.13.53,2.89,2.89,0,0,0-.64,2.22V242a2.94,2.94,0,0,0,.64,2.11,3,3,0,0,0,2.13.63Z"/><path class="cls-4" d="M223.48,242a2.9,2.9,0,0,0,.64,2.11,3,3,0,0,0,2.13.63h58.57a5.44,5.44,0,0,1,3.94,1.17,5.35,5.35,0,0,1,1.17,3.9v17.33a5.38,5.38,0,0,1-1.17,3.91c-.78.78-2.09,1.16-3.94,1.16h-86c-1.85,0-3.16-.38-3.94-1.16a5.38,5.38,0,0,1-1.17-3.91V129.35a5.39,5.39,0,0,1,1.17-3.91,5.49,5.49,0,0,1,3.94-1.16h19.38a5.92,5.92,0,0,1,4,1.16,5.1,5.1,0,0,1,1.28,3.91Z"/><path class="cls-4" d="M57.13,265.65q-1.92,4-3.84,5.29a10.57,10.57,0,0,1-5.75,1.26h-19q-4.68,0-4.68-2.95a11.09,11.09,0,0,1,1.06-3.6L91.21,131.46q3-6.33,4.89-8.45a5.67,5.67,0,0,1,4.26-2.11,5.07,5.07,0,0,1,4,2.11,54.7,54.7,0,0,1,4.9,8.45L176,265.65a11.09,11.09,0,0,1,1.06,3.6q0,3-4.68,2.95H152.12a10.12,10.12,0,0,1-5.54-1.26q-1.91-1.28-3.83-5.29l-43-90Z"/><path class="cls-4" d="M732.28,259a2.06,2.06,0,0,0,.74-.09l.72-.14a7.67,7.67,0,0,0,1.43-.35,28.87,28.87,0,0,0,4.43-1.33,27.49,27.49,0,0,0,12.63-9.61,34.23,34.23,0,0,0,4.75-9.69,51.42,51.42,0,0,0,1.66-7c.06-.39.26-2.12.36-2.32l0,.62c.06.53.05,1.44.08,2,.07,1.29,0,4-.09,5.41l-.26,2.75a36,36,0,0,1-1.1,5.52c-2,6.66-5.52,11.39-11.9,14.09a28.49,28.49,0,0,1-8.57,2.06l-2.11.09a4.85,4.85,0,0,1-1.24.05,8,8,0,0,0-1.23,0,3.54,3.54,0,0,0-.74-.05l-.74,0c-.53,0-1-.06-1.53-.09l-3.08-.3c-.68-.09-5.56-.78-6.15-1,1,0,2,.08,3,.09l3.36-.06a2.63,2.63,0,0,1,.36,0l3.7-.31a4,4,0,0,1,.73-.1A3.32,3.32,0,0,0,732.28,259Z"/><path class="cls-2" d="M750.14,232.79c-.36,0-.52.29-.74.42l-1.07.83c-.25.22,0,.1-.28.36s-.51.4-.73.57c-.29.33-1.88,1.74-2.54,2.42A32,32,0,0,0,739.4,245c-.24.49-.55,1-.83,1.54a29.31,29.31,0,0,0-3,9l-.38,2.89a7.67,7.67,0,0,1-1.43.35l-.72.14a2.06,2.06,0,0,1-.74.09,26.14,26.14,0,0,1-.34-3.79,33.18,33.18,0,0,1,.18-3.88,21.93,21.93,0,0,1,.79-4,21.26,21.26,0,0,1,1.64-4.07,22.06,22.06,0,0,1,4-5.33,31.33,31.33,0,0,1,9.58-6.4l2.46-1.05c.79-.3,1.68-.62,2.51-.9s1.61-.52,2.49-.77l1.27-.34,1.25-.31-4,2.08c-.74.4-2.26,1.32-3,1.83C750.83,232.34,750.43,232.55,750.14,232.79Z"/><path class="cls-2" d="M735.1,261a.88.88,0,0,0-.05.4l0,1.18c0,.53,0,1,0,1.54a51.89,51.89,0,0,0,1,7.69l.33,1.53a11.92,11.92,0,0,1-.64-1.49c-.12-.26-.23-.52-.32-.74l-1.1-3.06c-.43-1.26-1.94-6.28-1.8-7a8,8,0,0,1,1.23,0A4.85,4.85,0,0,0,735.1,261Z"/><path class="cls-3" d="M750.14,232.79c-.43.43-1.48,1-1.79,1.42a17.77,17.77,0,0,0,5.4,4c.31.16,1.66.69,1.75.8a20.17,20.17,0,0,1-4.16-1c-.29-.13-.18,0-.51-.2a10.07,10.07,0,0,1-2.65-1.89c-.27-.27-.53-.74-.86-.92.22-.17.55-.41.73-.57s0-.14.28-.36l1.07-.83C749.62,233.08,749.78,232.81,750.14,232.79Z"/><path class="cls-5" d="M752.43,232.61a1.05,1.05,0,0,1,1,1.84C752.19,235.09,751.21,233.2,752.43,232.61Z"/><path class="cls-5" d="M893.16,132.38a4,4,0,0,1,5.05,2.45,3.84,3.84,0,0,1-2.73,4.89A4,4,0,0,1,890.6,137a3.85,3.85,0,0,1,2.56-4.59Zm1.51,1.13h0a1.47,1.47,0,0,0-.43,2.29,1.56,1.56,0,0,0,2.65-.65A1.53,1.53,0,0,0,894.67,133.51Z"/><path class="cls-6" d="M894.67,133.51a1.53,1.53,0,0,1,2.22,1.64,1.56,1.56,0,0,1-2.65.65A1.47,1.47,0,0,1,894.67,133.51Z"/><path class="cls-3" d="M904.27,137.53a17.66,17.66,0,0,1,10.23-.29,12.64,12.64,0,0,1,7,5.72,28.61,28.61,0,0,0-19.73-3.19,38.88,38.88,0,0,0-6.09,1.75A31.51,31.51,0,0,1,904.27,137.53Z"/><path class="cls-5" d="M859.82,139.49a38.33,38.33,0,0,1,25.5,0,24.26,24.26,0,0,1,10.25,7.94,10.52,10.52,0,0,1,2.13,5.24,19.9,19.9,0,0,0-8.34-3.7,62.87,62.87,0,0,0-18.11-1c-7.39.47-14.74,1.41-22.09,2.31-12.51,1.58-25,3.16-37.57,4.37,16-5.15,32.15-10.11,48.23-15.18Zm2.64,4.06h0a209.92,209.92,0,0,0-22.09,4.39c-2.82.81-5.74,1.27-8.48,2.29a14.33,14.33,0,0,0,3.7-.76A253,253,0,0,1,867.92,144c6.17-.41,12.65-.92,18.51,1.5a4.31,4.31,0,0,0-1.61-1.14,27.46,27.46,0,0,0-9.93-1.62A87.62,87.62,0,0,0,862.46,143.55Z"/><path class="cls-1" d="M917.47,145a20.65,20.65,0,0,1,14.17,1.47c4.83,2.44,8.16,7.12,10,12.13a27.25,27.25,0,0,1,1.59,6,42.51,42.51,0,0,0-9-11.86,29.08,29.08,0,0,0-13.08-7.15C919.9,145.35,918.68,145.22,917.47,145Z"/><path class="cls-1" d="M877.76,151.75a13.82,13.82,0,0,1,3.74-.31,29.31,29.31,0,0,1,17,5.45c-2.66.1-5.24,4-5.59,7C891.37,154.87,885.79,153.28,877.76,151.75Z"/><path class="cls-4" d="M904.88,117.2a39.71,39.71,0,0,1,18.77,1.56,28.71,28.71,0,0,1,13,8.82,39.85,39.85,0,0,1,7.59,15.06,69.34,69.34,0,0,1,2.16,21.71l.25.43c-.24-.05-.5-.24-.4-.53a52.74,52.74,0,0,0-3.61-16.91,38.66,38.66,0,0,0-8.36-13.18,32.31,32.31,0,0,0-12.52-7.82,45.83,45.83,0,0,0-18.69-2c-10.19.85-20,4-29.47,7.77a68.61,68.61,0,0,1,12.89-8.7A57.84,57.84,0,0,1,904.88,117.2Z"/></svg>