<?xml version="1.0" encoding="UTF-8"?>
<!DOCTYPE svg PUBLIC "-//W3C//DTD SVG 1.1//EN" "http://www.w3.org/Graphics/SVG/1.1/DTD/svg11.dtd">
<!-- Creator: CorelDRAW 2020 (64-Bit) -->
<svg xmlns="http://www.w3.org/2000/svg" xml:space="preserve" width="61.4475mm" height="23.8565mm" version="1.1" style="shape-rendering:geometricPrecision; text-rendering:geometricPrecision; image-rendering:optimizeQuality; fill-rule:evenodd; clip-rule:evenodd"
viewBox="0 0 6297.55 2444.97"
 xmlns:xlink="http://www.w3.org/1999/xlink"
 xmlns:xodm="http://www.corel.com/coreldraw/odm/2003">
 <defs>
  <style type="text/css">
   <![CDATA[
    .fil7 {fill:#04113D}
    .fil4 {fill:#1E618B}
    .fil5 {fill:#EB7217}
    .fil6 {fill:#FFA938}
    .fil0 {fill:#02BAD6;fill-rule:nonzero}
    .fil8 {fill:#04113D;fill-rule:nonzero}
    .fil3 {fill:#1E618B;fill-rule:nonzero}
    .fil1 {fill:#EB7217;fill-rule:nonzero}
    .fil9 {fill:#FBFBFB;fill-rule:nonzero}
    .fil2 {fill:#FFA938;fill-rule:nonzero}
   ]]>
  </style>
 </defs>
 <g id="Capa_x0020_1">
  <metadata id="CorelCorpID_0Corel-Layer"/>
  <path class="fil0" d="M5142.49 565.2c123.34,66.9 274.21,83.18 416.28,38.74 158.74,-49.59 293.81,-181.19 388.47,-332.58 35.64,-59.59 73.4,-119.25 96.87,-185.2 -103.35,130.19 -225.34,242.66 -359.24,329.9 -134.25,88.22 -284.53,145.45 -434.16,152 -36.27,0.74 -72.11,-2.29 -108.22,-2.86z"/>
  <path class="fil1" d="M4698.18 441.29c22.71,156.04 77.1,306.24 156.35,435.29 65.98,108.21 147.84,202.25 238.23,281.26 80.33,70.65 167.74,129.24 259.06,176.18 -46.36,-18.7 -91.39,-42.27 -136.32,-65.49 -111.67,-60.3 -220.25,-132.23 -314.84,-226.66 -83.2,-83.63 -156.17,-187.25 -192.89,-310.03 -28.01,-93.24 -35.14,-197.36 -9.59,-290.56z"/>
  <path class="fil0" d="M6297.55 370.47c-48.51,77.91 -102.13,146.56 -157.25,209.71 -184.79,210.86 -398.49,346.01 -605.52,361.11 -78.18,4.99 -156.34,-0.57 -228.82,-30.85 61.29,5.96 124.58,-5.43 187.4,-18.72 153.51,-35.36 307.76,-108 456.91,-212.08 119.97,-83.24 236.13,-188.93 347.29,-309.17z"/>
  <path class="fil2" d="M4896.46 868.15c-62.99,-97.37 -99.64,-217.09 -105.64,-337.9 38.2,136 103.83,260.58 183.96,368.3 76.41,101.7 167.9,187.25 268.39,252.13 2.61,1.75 5.2,3.63 7.75,5.58 -27.74,-9.3 -54.49,-23.06 -80.87,-37.14 -105.01,-57.55 -202.81,-140.5 -273.59,-250.96z"/>
  <path class="fil0" d="M5384.43 1180.27c33.07,69.09 57.66,140.35 76.86,212.19 -20.24,-13.63 -35.84,-30.59 -50.87,-47.47 -23.97,-27.52 -45.34,-56.29 -65.23,-85.57 12.06,10.44 22.39,22.51 37.97,30.23 4.62,2.18 11.87,4.27 15.89,0.38 5.67,-5.74 5.51,-13.43 5.72,-20.35 -1.29,-30.28 -11.02,-60 -20.33,-89.41z"/>
  <path class="fil3" d="M5330.86 952.96c22.91,8.41 43.81,22.96 63.37,39.01 44.09,36.87 79.19,88.14 102.1,146.33 22.09,55.51 33.5,116.71 37.21,178.34 4.37,73.19 -1.6,147.13 -13.34,219.52 -9.39,58.31 -22.94,115.66 -38.31,172.28 26.18,-118.54 36.58,-242.34 24.81,-363.19 -6.54,-65.41 -20.16,-129.86 -42.59,-189.66 -21.65,-57.7 -51.58,-110.87 -88.84,-155.58 -13.86,-16.91 -28.87,-32.38 -44.41,-47.03z"/>
  <path class="fil3" d="M5623.69 1460.69c-3.15,-16.81 -8.84,-32.71 -17.33,-45.81 -35.61,180.29 -72.77,360.16 -107.5,540.62 47.01,-105.68 89.13,-216.04 114.99,-332.49 10.7,-53.08 19.1,-109.31 9.84,-162.32z"/>
  <path class="fil1" d="M5162.42 1443.91c37.57,-21.99 84.09,-19.38 120.03,6.16 28.31,19.47 49.5,52.39 59.15,89.72 -32.27,-34.85 -74.5,-56.71 -118.1,-57.76 -47.41,-2.32 -94.87,19.34 -129.82,57.72 10.36,-41.62 35.86,-77.52 68.74,-95.84z"/>
  <path class="fil2" d="M5362.62 1393.5c-16.38,-18.97 -36.94,-31.04 -57.39,-40.93 49,87.27 75.61,185.05 97.56,281.36 25.38,116 41.86,232.96 53.86,349.46 5.34,-53.84 4.26,-109.57 4.4,-164.63 -1.78,-95.34 -7.58,-192.67 -32.6,-288.35 -12.79,-49.09 -32.59,-99.07 -65.82,-136.9z"/>
  <path class="fil0" d="M5167.06 525.56c94.49,23.71 199.36,5.41 288.33,-54.91 99.43,-67.36 169.41,-189.14 208.78,-317.16 14.4,-50.06 30.22,-100.6 35.34,-152.84 -48.72,114.46 -112.97,219.83 -189.41,309.41 -76.52,90.33 -168.97,161.52 -269.25,196.02 -24.45,7.76 -49.22,12.71 -73.78,19.48z"/>
  <path class="fil0" d="M5172.76 486.93c63.18,-15.4 122.45,-59.61 161.83,-124.34 44.02,-72.29 56.89,-168.38 49.65,-258.57 -3.44,-34.97 -6.14,-70.67 -15.74,-104.02 -1.74,84.92 -15.13,169.23 -39.76,247.77 -24.5,79.03 -63.35,151.44 -115.89,204.05 -12.96,12.42 -26.81,23.25 -40.08,35.11z"/>
  <path class="fil3" d="M6222.92 426.99c-65.01,60.35 -132.77,110.22 -200.7,154.34 -227.52,147.08 -465.14,212.41 -668.21,164.09 -76.51,-18.94 -150.53,-48.05 -213.3,-99.24 57.67,24.37 121.33,32.61 185,38.87 156.23,12.55 321.91,-10.6 490.05,-65.6 135.14,-43.77 271.85,-110.35 407.16,-192.47z"/>
  <path class="fil3" d="M5147.77 1614.97c0,-10.46 2.21,-17.89 6.63,-22.32 4.43,-4.43 11.87,-6.64 22.32,-6.64l109.78 0c10.45,0 18.1,2.21 22.93,6.64 4.83,4.43 7.24,11.86 7.24,22.32l0 786.57c0,14.48 -2.2,25.32 -6.63,32.57 -4.43,7.24 -11.47,10.85 -21.11,10.85 -7.25,0 -14.88,-2.81 -22.92,-8.44 -8.06,-5.63 -19.31,-15.68 -33.79,-30.15l-459.64 -486.19 0 481.36c0,10.45 -2.41,17.89 -7.24,22.32 -4.83,4.42 -12.46,6.63 -22.93,6.63l-109.77 0c-10.45,0 -17.89,-2.21 -22.32,-6.63 -4.42,-4.43 -6.63,-11.87 -6.63,-22.32l0 -786.57c0,-28.96 8.84,-43.43 26.53,-43.43 7.24,0 15.08,2.81 23.53,8.44 8.44,5.63 19.9,15.68 34.38,30.16l459.63 486.18 0 -481.35z"/>
  <path class="fil3" d="M3742.32 2009.47c0,53.88 11.65,101.93 34.98,144.17 23.32,42.22 55.29,75.19 95.91,98.93 40.62,23.72 86.26,35.58 136.93,35.58 49.86,0 95.51,-11.87 136.92,-35.58 41.41,-23.74 74.2,-56.91 98.33,-99.54 24.13,-42.63 36.19,-90.49 36.19,-143.56 0,-54.69 -11.87,-103.55 -35.59,-146.58 -23.73,-43.02 -56.3,-76.21 -97.71,-99.52 -41.43,-23.33 -87.07,-35 -136.93,-35 -50.67,0 -96.31,11.87 -136.92,35.6 -40.62,23.72 -72.8,56.9 -96.51,99.51 -23.74,42.63 -35.58,91.3 -35.58,145.98zm-174.93 2.42c0,-83.65 19.3,-159.05 57.9,-226.21 38.61,-67.16 91.68,-119.63 159.24,-157.43 67.56,-37.81 143.56,-56.71 228.01,-56.71 84.45,0 160.45,18.7 228.01,56.1 67.55,37.4 120.43,89.28 158.64,155.63 38.21,66.35 57.3,140.95 57.3,223.78 0,83.65 -19.3,158.85 -57.9,225.6 -38.61,66.76 -91.88,118.82 -159.85,156.22 -67.96,37.4 -144.57,56.1 -229.82,56.1 -83.65,0 -159.05,-18.5 -226.21,-55.5 -67.15,-36.99 -119.83,-88.46 -158.03,-154.42 -38.2,-65.95 -57.3,-140.35 -57.3,-223.17z"/>
  <path class="fil3" d="M2889.39 1742.85c-5.64,0 -9.65,1.21 -12.06,3.62 -2.42,2.42 -3.63,6.44 -3.63,12.06l0 499.46c0,5.63 1.21,9.65 3.63,12.06 2.41,2.42 6.43,3.62 12.06,3.62l101.34 0c64.34,0 119.22,-10.85 164.68,-32.57 45.43,-21.72 79.82,-52.69 103.14,-92.89 23.33,-40.22 34.98,-88.07 34.98,-143.56 0,-53.08 -11.65,-99.33 -34.98,-138.74 -23.33,-39.41 -57.3,-69.77 -101.93,-91.09 -44.64,-21.31 -98.33,-31.97 -161.07,-31.97l-106.16 0zm-184.58 -127.87c0,-10.46 2.21,-17.89 6.63,-22.32 4.43,-4.43 11.87,-6.64 22.32,-6.64l276.26 0c94.9,0 176.93,16.89 246.1,50.68 69.18,33.77 121.85,81.83 158.04,144.16 36.2,62.33 54.29,134.92 54.29,217.75 0,87.67 -18.9,163.88 -56.7,228.62 -37.81,64.74 -92.69,114.81 -164.68,150.2 -71.99,35.39 -157.43,53.08 -256.36,53.08l-256.96 0c-10.45,0 -17.89,-2.21 -22.32,-6.63 -4.42,-4.43 -6.63,-11.87 -6.63,-22.32l0 -786.57z"/>
  <path class="fil3" d="M2340.47 1614.97c0,-10.46 2.21,-17.89 6.64,-22.32 4.43,-4.43 11.86,-6.64 22.32,-6.64l109.77 0c10.45,0 18.1,2.21 22.93,6.64 4.83,4.43 7.24,11.86 7.24,22.32l0 786.57c0,14.48 -2.2,25.32 -6.63,32.57 -4.43,7.24 -11.47,10.85 -21.11,10.85 -7.24,0 -14.88,-2.81 -22.92,-8.44 -8.06,-5.63 -19.31,-15.68 -33.79,-30.15l-459.64 -486.19 0 481.36c0,10.45 -2.41,17.89 -7.24,22.32 -4.83,4.42 -12.46,6.63 -22.93,6.63l-109.77 0c-10.45,0 -17.89,-2.21 -22.32,-6.63 -4.42,-4.43 -6.63,-11.87 -6.63,-22.32l0 -786.57c0,-28.96 8.84,-43.43 26.53,-43.43 7.24,0 15.08,2.81 23.53,8.44 8.44,5.63 19.9,15.68 34.38,30.16l459.63 486.18 0 -481.35z"/>
  <path class="fil3" d="M943.76 2009.47c0,53.88 11.66,101.93 34.99,144.17 23.32,42.22 55.29,75.19 95.91,98.93 40.62,23.72 86.25,35.58 136.93,35.58 49.86,0 95.51,-11.87 136.92,-35.58 41.41,-23.74 74.2,-56.91 98.32,-99.54 24.14,-42.63 36.2,-90.49 36.2,-143.56 0,-54.69 -11.87,-103.55 -35.59,-146.58 -23.73,-43.02 -56.3,-76.21 -97.72,-99.52 -41.41,-23.33 -87.06,-35 -136.92,-35 -50.67,0 -96.31,11.87 -136.92,35.6 -40.62,23.72 -72.8,56.9 -96.51,99.51 -23.74,42.63 -35.59,91.3 -35.59,145.98zm-174.92 2.42c0,-83.65 19.3,-159.05 57.9,-226.21 38.61,-67.16 91.68,-119.63 159.24,-157.43 67.56,-37.81 143.56,-56.71 228,-56.71 84.46,0 160.46,18.7 228.02,56.1 67.55,37.4 120.43,89.28 158.64,155.63 38.2,66.35 57.3,140.95 57.3,223.78 0,83.65 -19.3,158.85 -57.9,225.6 -38.61,66.76 -91.88,118.82 -159.85,156.22 -67.96,37.4 -144.57,56.1 -229.82,56.1 -83.65,0 -159.05,-18.5 -226.21,-55.5 -67.16,-36.99 -119.83,-88.46 -158.03,-154.42 -38.2,-65.95 -57.3,-140.35 -57.3,-223.17z"/>
  <path class="fil3" d="M176.18 2401.55c0,10.45 -2.42,17.89 -7.24,22.32 -4.84,4.42 -12.47,6.63 -22.93,6.63l-109.78 0c-10.45,0 -17.89,-2.21 -22.32,-6.63 -4.42,-4.43 -6.63,-11.87 -6.63,-22.32l0 -786.57c0,-10.46 2.21,-17.89 6.63,-22.32 4.43,-4.43 11.87,-6.64 22.32,-6.64l255.76 0c121.45,0 211.93,22.73 271.45,68.16 59.51,45.44 89.27,114.01 89.27,205.7 0,54.69 -13.47,100.53 -40.4,137.53 -26.95,36.99 -64.56,65.54 -112.81,85.65l195.44 310.05c6.43,10.45 9.64,18.09 9.64,22.93 0,9.64 -9.64,14.47 -28.95,14.47l-117.02 0c-15.28,0 -26.74,-2.21 -34.38,-6.63 -7.64,-4.43 -15.89,-13.88 -24.73,-28.36l-206.3 -342.62c-4.83,-7.24 -7.24,-13.26 -7.24,-18.09 0,-8.05 7.24,-12.46 21.71,-13.27 50.67,-5.64 91.49,-20.51 122.46,-44.64 30.95,-24.13 46.45,-58.3 46.45,-102.54 0,-47.45 -16.3,-82.24 -48.87,-104.35 -32.57,-22.12 -79.83,-33.19 -141.75,-33.19l-94.09 0c-5.64,0 -9.65,1.01 -12.07,3.02 -2.41,2.01 -3.62,6.23 -3.62,12.67l0 649.05z"/>
  <path class="fil3" d="M3000.7 1076.23c0,53.88 11.66,101.94 34.98,144.16 23.32,42.22 55.3,75.21 95.92,98.93 40.61,23.72 86.25,35.59 136.92,35.59 49.86,0 95.52,-11.88 136.92,-35.59 41.41,-23.72 74.21,-56.91 98.33,-99.52 24.13,-42.62 36.19,-90.49 36.19,-143.56 0,-54.69 -11.86,-103.56 -35.58,-146.59 -23.73,-43.02 -56.31,-76.21 -97.72,-99.52 -41.41,-23.32 -87.06,-34.99 -136.93,-34.99 -50.66,0 -96.31,11.88 -136.92,35.59 -40.61,23.72 -72.8,56.91 -96.51,99.52 -23.72,42.62 -35.58,91.3 -35.58,145.98zm-174.93 2.41c0,-83.65 19.31,-159.06 57.92,-226.2 38.61,-67.15 91.68,-119.63 159.24,-157.44 67.56,-37.8 143.55,-56.7 228,-56.7 84.46,0 160.47,18.7 228.02,56.1 67.54,37.39 120.43,89.28 158.64,155.63 38.2,66.35 57.3,140.94 57.3,223.78 0,83.64 -19.3,158.86 -57.9,225.6 -38.61,66.74 -91.89,118.82 -159.85,156.22 -67.96,37.4 -144.57,56.1 -229.82,56.1 -83.66,0 -159.06,-18.5 -226.21,-55.5 -67.16,-37 -119.85,-88.47 -158.03,-154.42 -38.2,-65.94 -57.31,-140.35 -57.31,-223.19z"/>
  <path class="fil3" d="M2355.87 1368.38c0.81,-10.45 3.02,-17.48 6.64,-21.11 3.62,-3.62 9.05,-5.42 16.29,-5.42 5.63,0 13.87,0.59 24.73,1.8 10.85,1.21 20.3,1.8 28.35,1.8 31.37,0 56.1,-12.27 74.2,-36.79 18.1,-24.53 26.55,-59.72 27.14,-105.56l6.63 -515.59c0.13,-10.46 2.43,-17.9 7.25,-22.31 4.82,-4.43 12.46,-6.64 22.92,-6.64l109.78 0c10.45,0 17.89,2.21 22.32,6.64 4.42,4.42 6.75,11.87 6.63,22.31l-6.63 527.66c-1.17,93.26 -20.12,164.47 -60.32,213.52 -40.21,49.06 -103.35,73.6 -189.41,73.6 -35.39,0 -63.13,-2.41 -83.24,-7.24 -10.45,-3.22 -17.29,-7.25 -20.51,-12.06 -3.22,-4.83 -4.03,-12.87 -2.42,-24.14l9.65 -90.48z"/>
  <path class="fil3" d="M2154.64 1340.43c10.45,0 18.1,2.21 22.93,6.64 4.82,4.42 7.24,11.85 7.24,22.31l0 98.92c0,10.46 -2.42,17.89 -7.24,22.32 -4.83,4.43 -12.47,6.64 -22.93,6.64l-484.98 0c-10.45,0 -17.88,-2.21 -22.31,-6.64 -4.43,-4.43 -6.64,-11.86 -6.64,-22.32l0 -786.57c0,-10.45 2.21,-17.89 6.64,-22.31 4.43,-4.43 11.86,-6.64 22.31,-6.64l483.77 0c10.45,0 18.1,2.21 22.93,6.64 4.82,4.42 7.24,11.86 7.24,22.31l0 98.93c0,10.45 -2.42,17.89 -7.24,22.32 -4.83,4.42 -12.47,6.63 -22.93,6.63l-328.13 0c-5.64,0 -9.65,1.21 -12.07,3.62 -2.41,2.41 -3.62,6.44 -3.62,12.06l0 153.22c0,5.64 1.21,9.64 3.62,12.06 2.42,2.42 6.44,3.63 12.07,3.63l287.12 0c10.45,0 18.1,2.4 22.92,7.24 4.84,4.82 7.25,12.45 7.25,22.92l0 97.72c0,10.45 -2.41,17.89 -7.25,22.32 -4.82,4.42 -12.46,6.63 -22.92,6.63l-287.12 0c-5.64,0 -9.65,1 -12.07,3.01 -2.41,2.02 -3.62,6.23 -3.62,12.68l0 158.03c0,5.63 1.21,9.64 3.62,12.06 2.42,2.42 6.44,3.62 12.07,3.62l329.34 0z"/>
  <path class="fil3" d="M1130.4 1324.75c0,5.63 1.21,9.64 3.63,12.06 2.41,2.42 6.43,3.62 12.06,3.62l331.76 0c10.45,0 17.89,2.21 22.32,6.64 4.42,4.42 6.63,11.85 6.63,22.31l0 98.92c0,10.46 -2.21,17.89 -6.63,22.32 -4.43,4.43 -11.87,6.64 -22.32,6.64l-487.39 0c-10.45,0 -17.89,-2.21 -22.32,-6.64 -4.42,-4.43 -6.63,-11.86 -6.63,-22.32l0 -786.57c0,-10.45 2.21,-17.89 6.63,-22.31 4.43,-4.43 11.87,-6.64 22.32,-6.64l109.77 0c10.46,0 18.1,2.21 22.93,6.64 4.83,4.42 7.24,11.86 7.24,22.31l0 643.02z"/>
  <path class="fil3" d="M188.21 1459.87c-7.25,15.27 -14.48,25.32 -21.72,30.16 -7.24,4.82 -18.1,7.24 -32.58,7.24l-107.36 0c-17.7,0 -26.54,-5.63 -26.54,-16.89 0,-4.03 2.01,-10.86 6.04,-20.51l375.19 -766.07c11.25,-24.14 20.5,-40.22 27.74,-48.26 7.24,-8.05 15.28,-12.06 24.13,-12.06 8.84,0 16.49,4.02 22.93,12.06 6.44,8.05 15.68,24.13 27.74,48.26l377.6 766.07c4.03,9.64 6.04,16.48 6.04,20.51 0,11.26 -8.84,16.89 -26.53,16.89l-114.61 0c-13.67,0 -24.14,-2.42 -31.37,-7.24 -7.24,-4.84 -14.48,-14.89 -21.72,-30.16l-243.68 -513.93 -241.28 513.93z"/>
  <path class="fil4" d="M3993.77 1408.34c1.93,0.5 5,-0.49 6.85,-0.87 2.18,-0.45 4.38,-0.87 6.69,-1.31 3.35,-0.65 10.61,-1.81 13.3,-3.21 6.1,0.19 33.84,-9.85 41.23,-12.54 45.84,-16.67 87.9,-49.11 117.41,-90.08 20.03,-27.81 34.03,-58.93 44.21,-90.76 6.25,-19.51 12.25,-45.79 15.4,-65.99 0.57,-3.68 2.47,-19.86 3.34,-21.77l0.5 5.78c0.57,4.98 0.41,13.57 0.71,18.96 0.67,12.08 0.22,37.7 -0.81,50.76l-2.39 25.77c-0.91,11.78 -6.62,39.86 -10.23,51.74 -18.96,62.36 -51.34,106.7 -110.71,132.08 -28.39,12.13 -49.33,15.42 -79.66,19.26l-19.61 0.88c-1.71,0.92 -8.57,0.45 -11.54,0.43 -2.56,-0.02 -9.89,-0.22 -11.43,0.38 -2.48,-0.58 -4.21,-0.38 -6.93,-0.47 -2.33,-0.08 -4.32,-0.22 -6.89,-0.27 -4.89,-0.08 -9.42,-0.59 -14.25,-0.84l-28.63 -2.82c-6.29,-0.81 -51.67,-7.34 -57.18,-9.74 9.43,0.16 18.68,0.78 27.81,0.82l31.26 -0.55c1.73,-0.17 1.83,-0.34 3.37,-0.37l34.38 -2.95c2.59,-0.49 3.81,-0.73 6.74,-0.88 1.5,-0.08 5.49,-0.8 7.02,-1.43z"/>
  <path class="fil5" d="M4159.88 1162.7c-3.38,0.18 -4.9,2.7 -6.94,3.94l-9.91 7.73c-2.33,2.09 0.09,0.97 -2.61,3.42 -1.64,1.5 -4.73,3.72 -6.75,5.32 -2.77,3.11 -17.49,16.29 -23.63,22.71 -19.84,20.77 -37.22,45.74 -50.03,71.4 -2.29,4.58 -5.1,9.62 -7.75,14.47 -14.68,26.84 -22.74,55.17 -28.06,84.1l-3.58 27.16c-2.7,1.39 -9.95,2.56 -13.3,3.21 -2.32,0.44 -4.51,0.86 -6.69,1.31 -1.84,0.38 -4.92,1.37 -6.85,0.87 -1.47,-2.97 -3.21,-29.91 -3.13,-35.54 0.23,-16.22 -0.16,-18.42 1.62,-36.34 1.25,-12.51 3.84,-24.55 7.39,-37 4.79,-16.8 7.9,-22.69 15.26,-38.13 8.33,-17.45 22.73,-35.2 36.94,-50 26.18,-27.24 60.16,-46.82 89.12,-60.01l22.85 -9.84c7.38,-2.79 15.64,-5.76 23.37,-8.39 7.06,-2.4 14.96,-4.88 23.13,-7.19 4.35,-1.24 8.06,-2.16 11.83,-3.27l11.62 -2.86 -37.03 19.51c-6.9,3.76 -20.97,12.31 -27.63,17.08 -2.9,2.09 -6.61,4.04 -9.23,6.33z"/>
  <path class="fil5" d="M4020.02 1427.03c-0.63,1.59 -0.48,1.91 -0.46,3.76l0.27 11c0.04,4.99 0.35,9.64 0.48,14.42 0.73,25.21 5.27,47.69 9.57,72.15l3.01 14.27c-2.41,-3.86 -3.95,-9.31 -5.97,-13.95 -1.06,-2.41 -2.06,-4.82 -2.93,-6.95l-10.24 -28.65c-3.96,-11.79 -18.05,-58.91 -16.7,-65.24 1.54,-0.59 8.87,-0.4 11.43,-0.38 2.97,0.02 9.83,0.49 11.54,-0.43z"/>
  <path class="fil6" d="M4159.88 1162.7c-4.06,4.06 -13.84,9.29 -16.7,13.28 17.97,17.8 27.87,26.05 50.25,37.26 2.83,1.41 15.43,6.41 16.21,7.43 -14.37,-3.03 -24.72,-3.43 -38.64,-9.36 -2.73,-1.16 -1.71,-0.06 -4.7,-1.91 -10.84,-6.67 -13.49,-6.57 -24.67,-17.71 -2.53,-2.52 -4.99,-6.87 -7.97,-8.6 2.02,-1.6 5.11,-3.82 6.75,-5.32 2.71,-2.45 0.29,-1.33 2.61,-3.42l9.91 -7.73c2.04,-1.24 3.56,-3.75 6.94,-3.94z"/>
  <path class="fil7" d="M4181.16 1161.03c11.71,-5.68 20.13,11.58 9.38,17.19 -11.6,6.06 -20.71,-11.7 -9.38,-17.19z"/>
  <path class="fil8" d="M4704.58 148.05c18.04,-6.42 40.2,3.78 45.91,22.48 6.77,18.61 -5.91,40.61 -24.85,44.91 -18.39,5.47 -39.58,-6.44 -44.35,-25.22 -4.95,-17.46 6.2,-36.97 23.28,-42.16zm13.74 10.39l0 0c-7.69,3.69 -9.99,14.86 -3.91,21.05 6.77,8.2 22.16,4.81 24.03,-6.03 3.19,-11.11 -10.57,-21.03 -20.12,-15.02z"/>
  <path class="fil9" d="M4718.32 158.44c9.55,-6.01 23.31,3.91 20.12,15.02 -1.88,10.83 -17.26,14.23 -24.03,6.03 -6.08,-6.19 -3.77,-17.36 3.91,-21.05z"/>
  <path class="fil2" d="M4805.6 195.28c30.06,-8.72 62.81,-12.39 93.12,-2.61 26.89,8.36 49.57,28.11 63.7,52.47 -53.38,-32.06 -118.82,-40.75 -179.44,-29.28 -19.07,3.14 -37.18,9.94 -55.44,16.06 23.64,-16.56 50.68,-27.98 78.06,-36.64z"/>
  <path class="fil8" d="M4401.25 213.24c74.46,-25.69 157.84,-27.33 231.99,0.26 36.8,15.14 69.53,40.61 93.23,72.8 10.29,14.06 17.83,30.42 19.4,48 -21.6,-18.17 -48.89,-27.45 -75.86,-33.91 -53.95,-12.37 -109.79,-12.84 -164.77,-9.14 -67.24,4.3 -134.12,12.91 -200.96,21.16 -113.82,14.47 -227.64,28.97 -341.81,40.03 145.99,-47.14 292.54,-92.7 438.78,-139.2zm24.03 37.25l0 0c-67.68,9.58 -134.71,23.52 -200.97,40.28 -25.62,7.41 -52.19,11.63 -77.17,21.03 11.58,-0.03 22.57,-4.01 33.64,-7 97.08,-21.95 194.98,-41.51 294.19,-50.59 56.12,-3.78 115.08,-8.48 168.31,13.67 -4.23,-4.31 -8.87,-8.39 -14.58,-10.45 -28.57,-11.78 -59.81,-14.16 -90.34,-14.8 -37.85,-0.78 -75.58,3.22 -113.07,7.86z"/>
  <path class="fil0" d="M4925.74 263.88c42.61,-10.8 89.49,-6.5 128.85,13.53 43.99,22.36 74.27,65.27 90.75,111.17 6.01,17.97 12.64,36.09 14.45,55.06 -20.8,-40.73 -48.66,-77.78 -82.13,-108.78 -33.49,-31.28 -74.31,-55.19 -118.99,-65.53 -10.9,-2.28 -21.97,-3.53 -32.93,-5.44z"/>
  <path class="fil0" d="M4564.43 325.67c11.12,-2.93 22.65,-2.99 34.08,-2.83 54.97,0.19 110.04,17.42 154.63,50.03 -24.17,0.85 -47.7,36.58 -50.87,64.15 -13.96,-82.75 -64.72,-97.29 -137.83,-111.35z"/>
  <path class="fil3" d="M4811.13 8.87c56.97,-8.53 116.19,-4.78 170.79,14.33 45.77,15.25 87.21,43.59 118.12,80.91 33.39,39.75 55.13,88.2 68.97,138.08 17.54,64.62 23.02,132.22 19.71,199.03l2.25 3.95c-2.19,-0.42 -4.51,-2.14 -3.61,-4.84 -2.29,-53.06 -13.7,-105.6 -32.84,-155.05 -17.36,-44.66 -42.49,-86.66 -76.08,-120.83 -31.74,-32.44 -71.16,-57.02 -113.89,-71.69 -54.45,-18.81 -112.97,-22.78 -170.06,-17.89 -92.68,7.78 -182.11,36.64 -268.07,71.2 35.53,-31.36 75.61,-57.33 117.27,-79.72 52.35,-27.72 108.72,-48.77 167.43,-57.46z"/>
 </g>
</svg>
