<?xml version="1.0" standalone="no"?>
<!DOCTYPE svg PUBLIC "-//W3C//DTD SVG 1.1//EN" "http://www.w3.org/Graphics/SVG/1.1/DTD/svg11.dtd" >
<svg>
<metadata>
Created by FontForge 20090622 at Sun Jul 26 22:21:11 2020
 By deploy user
Copyright &#194;&#169; 2016 Monotype Imaging Inc.  All rights reserved.
</metadata>
<defs>
<font id="Posterama2001W04-UltraBlack" horiz-adv-x="710" >
  <font-face 
    font-family="Posterama2001W04-UltraBlack"
    font-weight="1000"
    font-stretch="normal"
    units-per-em="1000"
    panose-1="2 11 11 4 2 2 0 2 0 0"
    ascent="800"
    descent="-200"
    x-height="700"
    cap-height="700"
    bbox="-359 -288 1757 1086"
    underline-thickness="50"
    underline-position="-75"
    unicode-range="U+000D-U+FEFF"
  />
<missing-glyph horiz-adv-x="1037" 
d="M999 216.5q-24 -39.5 -68.5 -60.5t-104.5 -21q-30 0 -30 30v318q0 80 -37.5 142.5t-101.5 97.5t-139 35t-138.5 -35t-101.5 -97.5t-38 -142.5v-318q0 -30 -29 -30q-60 0 -104.5 21t-68.5 60.5t-24 92.5q0 52 18 89.5t48.5 58.5t69.5 26q0 100 50.5 182.5t135 130.5
t182.5 48t183 -48t135.5 -130.5t50.5 -182.5q39 -5 69.5 -26t48.5 -58.5t18 -89.5q0 -53 -24 -92.5zM454 114l-2 55q-1 44 -8.5 77t-17 55.5t-24.5 52.5q-13 26 -20.5 43t-12.5 39.5t-5 51.5q0 43 20.5 78.5t56 56.5t77.5 21q43 0 78.5 -21t56 -56.5t20.5 -78.5
q0 -29 -5 -51.5t-12 -39.5t-20 -43q-15 -30 -24.5 -52.5t-17 -55.5t-8.5 -77l-2 -55q-2 -29 -29 -29h-72q-27 0 -29 29zM559 -125h-80q-35 0 -35 35v80q0 35 35 35h80q35 0 35 -35v-80q0 -35 -35 -35z" />
    <glyph glyph-name="uniFB00" unicode="ff" horiz-adv-x="1195" 
d="M857 0h-175q-30 0 -30 30v198h-344q-10 0 -14 -3.5t-4 -14.5v-180q0 -30 -30 -30h-175q-30 0 -30 30v640q0 30 30 30h458q30 0 30 -30v-120q0 -30 -30 -30h-235q-10 0 -14 -3.5t-4 -14.5v-76q0 -10 4 -14t14 -4h344v262q0 30 30 30h458q30 0 30 -30v-120q0 -30 -30 -30
h-235q-10 0 -14 -3.5t-4 -14.5v-76q0 -10 4 -14t14 -4h202q30 0 30 -30v-120q0 -30 -30 -30h-202q-10 0 -14 -3.5t-4 -14.5v-180q0 -30 -30 -30z" />
    <glyph glyph-name="uniFB01" unicode="fi" horiz-adv-x="957" 
d="M260 0h-175q-30 0 -30 30v640q0 30 30 30h463q30 0 30 -30v-120q0 -30 -30 -30h-240q-10 0 -14 -3.5t-4 -14.5v-76q0 -10 4 -14t14 -4h207q30 0 30 -30v-120q0 -30 -30 -30h-207q-10 0 -14 -3.5t-4 -14.5v-180q0 -30 -30 -30zM872 0h-175q-30 0 -30 30v640q0 30 30 30
h175q30 0 30 -30v-640q0 -30 -30 -30z" />
    <glyph glyph-name="uniFB02" unicode="fl" horiz-adv-x="1190" 
d="M260 0h-175q-30 0 -30 30v640q0 30 30 30h463q30 0 30 -30v-120q0 -30 -30 -30h-240q-10 0 -14 -3.5t-4 -14.5v-76q0 -10 4 -14t14 -4h207q30 0 30 -30v-120q0 -30 -30 -30h-207q-10 0 -14 -3.5t-4 -14.5v-180q0 -30 -30 -30zM906 212q4 -4 14 -4h225q30 0 30 -30v-148
q0 -30 -30 -30h-448q-30 0 -30 30v640q0 30 30 30h175q30 0 30 -30v-444q0 -10 4 -14z" />
    <glyph glyph-name="uniFB03" unicode="ffi" horiz-adv-x="1539" 
d="M857 0h-175q-30 0 -30 30v198h-344q-10 0 -14 -3.5t-4 -14.5v-180q0 -30 -30 -30h-175q-30 0 -30 30v640q0 30 30 30h458q30 0 30 -30v-120q0 -30 -30 -30h-235q-10 0 -14 -3.5t-4 -14.5v-76q0 -10 4 -14t14 -4h344v262q0 30 30 30h458q30 0 30 -30v-120q0 -30 -30 -30
h-235q-10 0 -14 -3.5t-4 -14.5v-76q0 -10 4 -14t14 -4h202q30 0 30 -30v-120q0 -30 -30 -30h-202q-10 0 -14 -3.5t-4 -14.5v-180q0 -30 -30 -30zM1454 0h-175q-30 0 -30 30v640q0 30 30 30h175q30 0 30 -30v-640q0 -30 -30 -30z" />
    <glyph glyph-name="uniFB04" unicode="ffl" horiz-adv-x="1772" 
d="M857 0h-175q-30 0 -30 30v198h-344q-10 0 -14 -3.5t-4 -14.5v-180q0 -30 -30 -30h-175q-30 0 -30 30v640q0 30 30 30h458q30 0 30 -30v-120q0 -30 -30 -30h-235q-10 0 -14 -3.5t-4 -14.5v-76q0 -10 4 -14t14 -4h344v262q0 30 30 30h458q30 0 30 -30v-120q0 -30 -30 -30
h-235q-10 0 -14 -3.5t-4 -14.5v-76q0 -10 4 -14t14 -4h202q30 0 30 -30v-120q0 -30 -30 -30h-202q-10 0 -14 -3.5t-4 -14.5v-180q0 -30 -30 -30zM1488 212q4 -4 14 -4h225q30 0 30 -30v-148q0 -30 -30 -30h-448q-30 0 -30 30v640q0 30 30 30h175q30 0 30 -30v-444
q0 -10 4 -14z" />
    <glyph glyph-name="uniFDFC" unicode="&#xfdfc;" horiz-adv-x="991" arabic-form="isolated" 
d="M88 286v-14q0 -61 33 -94.5t93 -33.5q66 0 99.5 48.5t33.5 160.5v283h58v-385q0 -98 -26.5 -157t-69.5 -84t-96 -25q-51 0 -92 22t-66 72.5t-25 131.5v75h58zM561 636v-225q0 -58 9.5 -89.5t29.5 -44.5t54 -13q47 0 70 25.5t23 82.5v14h58v-50q0 -123 -42.5 -177.5
t-108.5 -54.5q-67 0 -109 47.5t-42 156.5v328h58zM608.5 -83.5q35.5 -4.5 68.5 -4.5q111 0 168.5 57.5t57.5 184.5v36h58v-58q0 -185 -66.5 -282.5t-196.5 -97.5q-21 0 -44.5 3t-36.5 7l-75 168q31 -9 66.5 -13.5zM527 60.5q16 15.5 38 15.5q23 0 39 -15.5t16 -39.5
q0 -22 -16 -37.5t-39 -15.5q-22 0 -38 15.5t-16 37.5q0 24 16 39.5zM704 60.5q16 15.5 38 15.5q23 0 39 -15.5t16 -39.5q0 -22 -16 -37.5t-39 -15.5q-22 0 -38 15.5t-16 37.5q0 24 16 39.5z" />
    <glyph glyph-name=".notdef" horiz-adv-x="1037" 
d="M999 216.5q-24 -39.5 -68.5 -60.5t-104.5 -21q-30 0 -30 30v318q0 80 -37.5 142.5t-101.5 97.5t-139 35t-138.5 -35t-101.5 -97.5t-38 -142.5v-318q0 -30 -29 -30q-60 0 -104.5 21t-68.5 60.5t-24 92.5q0 52 18 89.5t48.5 58.5t69.5 26q0 100 50.5 182.5t135 130.5
t182.5 48t183 -48t135.5 -130.5t50.5 -182.5q39 -5 69.5 -26t48.5 -58.5t18 -89.5q0 -53 -24 -92.5zM454 114l-2 55q-1 44 -8.5 77t-17 55.5t-24.5 52.5q-13 26 -20.5 43t-12.5 39.5t-5 51.5q0 43 20.5 78.5t56 56.5t77.5 21q43 0 78.5 -21t56 -56.5t20.5 -78.5
q0 -29 -5 -51.5t-12 -39.5t-20 -43q-15 -30 -24.5 -52.5t-17 -55.5t-8.5 -77l-2 -55q-2 -29 -29 -29h-72q-27 0 -29 29zM559 -125h-80q-35 0 -35 35v80q0 35 35 35h80q35 0 35 -35v-80q0 -35 -35 -35z" />
    <glyph glyph-name="glyph1" horiz-adv-x="0" 
 />
    <glyph glyph-name="glyph1" horiz-adv-x="0" 
 />
    <glyph glyph-name="uni000D" unicode="&#xd;" horiz-adv-x="275" 
 />
    <glyph glyph-name="space" unicode=" " horiz-adv-x="275" 
 />
    <glyph glyph-name="exclam" unicode="!" horiz-adv-x="332" 
d="M43 690q9 10 32 10h182q23 0 32 -10t7 -33l-37 -410q-2 -18 -9.5 -25t-26.5 -7h-114q-19 0 -26.5 7t-9.5 25l-37 410q-2 23 7 33zM75 151.5q34 26.5 91 26.5t91 -26.5t34 -73.5q0 -46 -34 -72t-91 -26q-56 0 -90.5 26t-34.5 72q0 47 34 73.5z" />
    <glyph glyph-name="quotedbl" unicode="&#x22;" horiz-adv-x="490" 
d="M41.5 707q6.5 8 24.5 8h137q19 0 25.5 -8t4.5 -28l-20 -153q-1 -14 -7.5 -20t-20.5 -6h-100q-14 0 -21 6t-8 20l-19 153q-2 20 4.5 28zM261.5 707q6.5 8 24.5 8h137q19 0 25.5 -8t4.5 -28l-20 -153q-1 -14 -7.5 -20t-20.5 -6h-100q-14 0 -21 6t-8 20l-19 153
q-2 20 4.5 28z" />
    <glyph glyph-name="numbersign" unicode="#" 
d="M50 141q-30 0 -30 30v100q0 30 30 30h78l17 98h-65q-30 0 -30 30v100q0 30 30 30h93l21 115q3 15 9.5 20.5t22.5 5.5h110q27 0 27 -23q0 -6 -1 -9l-19 -109h98l21 115q3 15 9.5 20.5t22.5 5.5h110q27 0 27 -23q0 -6 -1 -9l-19 -109h49q30 0 30 -30v-100q0 -30 -30 -30
h-78l-17 -98h65q30 0 30 -30v-100q0 -30 -30 -30h-94l-20 -115q-2 -15 -9.5 -20.5t-23.5 -5.5h-110q-13 0 -19.5 5t-6.5 17q0 6 1 10l19 109h-99l-20 -115q-2 -15 -9.5 -20.5t-23.5 -5.5h-110q-13 0 -19.5 5t-6.5 17q0 6 1 10l19 109h-49zM413 399h-99l-17 -98h99z" />
    <glyph glyph-name="dollar" unicode="$" 
d="M119.5 219.5q5.5 4.5 12.5 4.5q9 0 21 -8q30 -18 67 -31t75 -17v98q-93 11 -151 37t-86 69t-28 108q0 64 33 113t92.5 79.5t139.5 39.5v62q0 15 4 20.5t16 5.5t16 -5.5t4 -20.5v-60l20 1l20 -1v60q0 15 4 20.5t16 5.5t16 -5.5t4 -20.5v-62q55 -5 111 -23t102 -46
q20 -12 20 -26q0 -9 -9 -23l-61 -93q-11 -17 -23 -17q-9 0 -22 7q-60 30 -118 39v-95q94 -11 152.5 -38t85.5 -70t27 -105q0 -60 -34 -109.5t-94 -82t-137 -41.5v-63q0 -15 -4 -20.5t-16 -5.5t-16 5.5t-4 20.5v60l-20 -1l-20 1v-60q0 -15 -4 -20.5t-16 -5.5t-16 5.5t-4 20.5
v61q-137 11 -239 73q-20 12 -20 25q0 8 8 22l64 99q6 9 11.5 13.5zM375 534l-20 1l-20 -1v-90l40 -5v95zM258.5 516.5q-11.5 -10.5 -11.5 -25.5q0 -17 10.5 -26.5t37.5 -13.5v80q-25 -4 -36.5 -14.5zM335 262v-96l20 -1l20 1v91zM451 184.5q12 10.5 12 26.5q0 15 -10 24.5
t-38 15.5v-81q24 4 36 14.5z" />
    <glyph glyph-name="percent" unicode="%" horiz-adv-x="960" 
d="M44 621.5q24 45.5 69 69.5t105 24t105 -23.5t69 -67.5t24 -103q0 -62 -24 -107.5t-69 -69.5t-105 -24t-105 23.5t-69 67.5t-24 103q0 62 24 107.5zM687.5 711q7.5 4 24.5 4h127q10 0 14 -4t4 -9t-3 -10.5t-9 -12.5l-554 -673q-11 -13 -18.5 -17t-24.5 -4h-127
q-10 0 -14 4t-4 9t3 10.5t9 12.5l554 673q11 13 18.5 17zM263 518q0 67 -45 67t-45 -68q0 -67 45 -67t45 68zM568 286.5q24 45.5 69 69.5t105 24t105 -23.5t69 -67.5t24 -103q0 -62 -24 -107.5t-69 -69.5t-105 -24t-105 23.5t-69 67.5t-24 103q0 62 24 107.5zM787 183
q0 67 -45 67t-45 -68q0 -67 45 -67t45 68z" />
    <glyph glyph-name="ampersand" unicode="&#x26;" horiz-adv-x="800" 
d="M299 -20q-95 0 -155 30.5t-87 79.5t-27 108q0 67 37 115t103 76q-47 54 -47 120q0 55 29.5 102t88.5 75.5t143 28.5q79 0 137 -25t88.5 -70t30.5 -105q0 -64 -38 -110t-105 -74l53 -53q33 30 58 71q6 10 12 15t13 5q9 0 20 -7l104 -59q22 -13 22 -26q0 -9 -8 -23
q-17 -30 -41.5 -59.5t-50.5 -51.5l104 -108q12 -12 12 -21q0 -6 -7 -10t-20 -4h-196q-16 0 -22.5 2.5t-17.5 13.5l-22 23q-86 -59 -211 -59zM427 464q15 18 15 40q0 21 -12.5 34.5t-37.5 13.5t-38 -13.5t-13 -34.5q0 -33 42 -68q29 10 44 28zM258.5 251.5
q-8.5 -15.5 -8.5 -32.5q0 -28 20 -47.5t52 -19.5q35 0 62 19l-102 106q-15 -10 -23.5 -25.5z" />
    <glyph glyph-name="quotesingle" unicode="'" horiz-adv-x="270" 
d="M41.5 707q6.5 8 24.5 8h137q19 0 25.5 -8t4.5 -28l-20 -153q-1 -14 -7.5 -20t-20.5 -6h-100q-14 0 -21 6t-8 20l-19 153q-2 20 4.5 28z" />
    <glyph glyph-name="parenleft" unicode="(" horiz-adv-x="447" 
d="M277 -178q-15 0 -33 19q-102 106 -160.5 234t-58.5 271q0 148 58.5 277t160.5 236q18 19 33 19q10 0 26 -11l102 -75q16 -12 16 -24q0 -9 -12 -23q-75 -85 -117 -184.5t-42 -210.5t42 -210.5t117 -184.5q12 -14 12 -23q0 -12 -16 -24l-102 -75q-16 -11 -26 -11z" />
    <glyph glyph-name="parenright" unicode=")" horiz-adv-x="447" 
d="M26 -68q0 9 12 23q75 85 117 184.5t42 210.5t-42 210.5t-117 184.5q-12 14 -12 23q0 12 16 24l102 75q16 11 26 11q15 0 33 -19q102 -106 160.5 -234t58.5 -271q0 -148 -58.5 -277t-160.5 -236q-18 -19 -33 -19q-10 0 -26 11l-102 75q-16 12 -16 24z" />
    <glyph glyph-name="asterisk" unicode="*" horiz-adv-x="538" 
d="M75 337q0 10 14 24l72 74l-102 18q-15 3 -21.5 8.5t-6.5 14.5q0 7 3 16l32 99q4 12 9 17.5t13 5.5q6 0 22 -7l93 -46l-15 103q-1 5 -1 12q0 13 6.5 18.5t23.5 5.5h104q17 0 23.5 -5.5t6.5 -18.5q0 -7 -1 -12l-15 -103l93 46q16 7 22 7q8 0 13 -5.5t9 -17.5l32 -99
q3 -9 3 -16q0 -9 -6.5 -14.5t-21.5 -8.5l-103 -18l73 -74q6 -7 10 -13t4 -11q0 -11 -17 -23l-84 -61q-12 -9 -21 -9q-7 0 -12.5 5t-11.5 16l-48 91l-48 -91q-6 -11 -11.5 -16t-12.5 -5q-9 0 -21 9l-84 61q-17 12 -17 23z" />
    <glyph glyph-name="plus" unicode="+" 
d="M261.5 226.5q-3.5 3.5 -14.5 3.5h-150q-30 0 -30 30v120q0 30 30 30h150q11 0 14.5 4t3.5 14v150q0 30 30 30h120q30 0 30 -30v-150q0 -10 4 -14t14 -4h150q30 0 30 -30v-120q0 -30 -30 -30h-150q-10 0 -14 -3.5t-4 -14.5v-150q0 -30 -30 -30h-120q-30 0 -30 30v150
q0 11 -3.5 14.5z" />
    <glyph glyph-name="comma" unicode="," horiz-adv-x="330" 
d="M64 23.5q-24 28.5 -24 71.5q0 34 16 60.5t44.5 41.5t64.5 15q38 0 66 -14.5t43.5 -41.5t15.5 -64q0 -35 -11.5 -69.5t-37.5 -81.5l-37 -68q-10 -18 -21 -24.5t-33 -6.5h-66q-29 0 -29 17q0 8 7 21l61 107q-35 8 -59 36.5z" />
    <glyph glyph-name="hyphen" unicode="-" horiz-adv-x="500" 
d="M420 253h-340q-30 0 -30 30v115q0 30 30 30h340q30 0 30 -30v-115q0 -30 -30 -30z" />
    <glyph glyph-name="period" unicode="." horiz-adv-x="330" 
d="M56 157q16 26 44.5 40.5t64.5 14.5q37 0 65.5 -14.5t44 -40.5t15.5 -59q0 -32 -15.5 -58t-44 -40.5t-65.5 -14.5q-36 0 -64.5 14.5t-44.5 40.5t-16 58q0 33 16 59z" />
    <glyph glyph-name="slash" unicode="/" horiz-adv-x="513" 
d="M304.5 710q7.5 5 25.5 5h156q21 0 21 -15q0 -6 -3 -14l-281 -675q-7 -16 -14.5 -21t-25.5 -5h-156q-21 0 -21 15q0 7 3 14l281 675q7 16 14.5 21z" />
    <glyph glyph-name="zero" unicode="0" 
d="M181.5 28.5q-72.5 43.5 -111 124.5t-38.5 191q0 115 38.5 198.5t111 128t173.5 44.5t173.5 -43.5t111 -124.5t38.5 -191q0 -115 -38.5 -198.5t-111 -128t-173.5 -44.5t-173.5 43.5zM443 351q0 81 -21.5 122.5t-66.5 41.5q-88 0 -88 -166q0 -81 21.5 -122.5t66.5 -41.5
q88 0 88 166z" />
    <glyph glyph-name="one" unicode="1" horiz-adv-x="486" 
d="M157 496q-4 4 -15 4h-77q-30 0 -30 30v140q0 30 30 30h301q30 0 30 -30v-640q0 -30 -30 -30h-175q-30 0 -30 30v451q0 11 -4 15z" />
    <glyph glyph-name="two" unicode="2" 
d="M351 371.5q27 36.5 27 65.5q0 35 -25.5 56.5t-70.5 21.5q-34 0 -64.5 -12.5t-65.5 -37.5q-7 -5 -13 -8t-11 -3t-9 3.5t-10 11.5l-68 101q-9 12 -9 23q0 13 19 29q50 41 117 67t146 26q94 0 162 -31.5t103.5 -88.5t35.5 -131q0 -41 -13 -77t-42 -74t-79 -85l-30 -28h164
q30 0 30 -30v-140q0 -30 -30 -30h-566q-13 0 -20.5 5.5t-7.5 14.5q0 12 13 25l226 226q64 64 91 100.5z" />
    <glyph glyph-name="three" unicode="3" 
d="M109.5 240.5q5.5 4.5 12.5 4.5q9 0 22 -9q77 -51 164 -51q51 0 83 18t32 51q0 37 -43 54.5t-131 17.5q-28 0 -28 16q0 10 8 21l96 137h-223q-30 0 -30 30v140q0 30 30 30h528q30 0 30 -18q0 -11 -10 -24l-149 -213q76 -20 117.5 -70t41.5 -124q0 -73 -39.5 -133.5
t-116.5 -96.5t-185 -36q-82 0 -154.5 24t-126.5 64q-18 14 -18 25q0 9 10 24l68 105q6 9 11.5 13.5z" />
    <glyph glyph-name="four" unicode="4" horiz-adv-x="715" 
d="M471 705q24 17 49 17q31 0 50 -22t19 -66v-348h72q17 0 25.5 -8t8.5 -25v-104q0 -17 -8.5 -25t-25.5 -8h-72v-83q0 -17 -8 -25t-25 -8h-164q-17 0 -25 8t-8 25v83h-292q-38 0 -55 16.5t-17 37.5q0 16 8.5 32.5t31.5 40.5l373 403q39 42 63 59zM369 412l-114 -126h114v126
z" />
    <glyph glyph-name="five" unicode="5" 
d="M129 216.5q5 4.5 12 4.5q9 0 22 -7q34 -18 73.5 -29.5t79.5 -11.5q54 0 83 15.5t29 44.5q0 30 -31 45t-99 15q-76 0 -168 -23q-12 -2 -15 -2q-11 0 -15.5 6t-3.5 19l24 377q1 13 3.5 19t9 8.5t19.5 2.5h439q30 0 30 -30v-120q0 -30 -30 -30h-263q-9 0 -11.5 -2t-3.5 -11
l-4 -58q43 9 96 9q78 0 136.5 -24.5t91 -73t32.5 -118.5q0 -74 -38 -132t-113 -91.5t-184 -33.5q-145 0 -259 69q-21 12 -21 26q0 9 9 24l59 98q6 10 11 14.5z" />
    <glyph glyph-name="six" unicode="6" 
d="M282 690q7 6 16 8t26 2h193q12 0 18 -4t6 -10q0 -8 -9 -19l-143 -170q18 3 32 3q76 0 133.5 -28.5t89 -83.5t31.5 -133q0 -81 -40.5 -142.5t-113 -94.5t-166.5 -33t-164 33.5t-108 94.5t-38 142q0 45 9.5 84.5t34 85t69.5 104.5l107 142q10 13 17 19zM301.5 194
q21.5 -21 55.5 -21q38 0 60.5 21t22.5 55q0 33 -22 54.5t-57 21.5q-37 0 -59 -21t-22 -55t21.5 -55z" />
    <glyph glyph-name="seven" unicode="7" 
d="M83 492q-17 0 -25 8.5t-8 25.5v141q0 17 8 25t25 8h581q31 0 31 -19q0 -8 -6 -20l-297 -629q-9 -19 -19.5 -25.5t-30.5 -6.5h-170q-15 0 -22.5 4t-7.5 14q0 9 6 21l229 453h-294z" />
    <glyph glyph-name="eight" unicode="8" 
d="M88 414.5q-25 37.5 -25 90.5q0 62 36.5 109.5t103.5 74t157 26.5q88 0 153 -26.5t99.5 -74t34.5 -109.5q0 -53 -25 -90.5t-68 -56.5q56 -20 87 -61.5t31 -102.5q0 -70 -41.5 -117t-114 -69.5t-166.5 -22.5q-91 0 -161.5 23.5t-110.5 70.5t-40 115q0 61 31 102.5t87 61.5
q-43 19 -68 56.5zM306.5 438q18.5 -15 48.5 -15t48.5 15t18.5 43t-18.5 43t-48.5 15t-48.5 -15t-18.5 -43t18.5 -43zM296 177.5q21 -16.5 59 -16.5t59 16.5t21 44.5t-21 44.5t-59 16.5t-59 -16.5t-21 -44.5t21 -44.5z" />
    <glyph glyph-name="nine" unicode="9" 
d="M289 200q-76 0 -133.5 28.5t-89 83.5t-31.5 133q0 81 40.5 142.5t113 94.5t166.5 33t164 -33.5t108 -94.5t38 -142q0 -45 -9.5 -84.5t-34 -85t-69.5 -104.5l-107 -142q-10 -13 -17 -19t-16 -8t-26 -2h-193q-12 0 -18 4t-6 10q0 9 9 19l143 170q-18 -3 -32 -3zM292 396.5
q22 -21.5 57 -21.5q37 0 59 21t22 55t-21.5 55t-55.5 21q-38 0 -60.5 -21t-22.5 -55q0 -33 22 -54.5z" />
    <glyph glyph-name="colon" unicode=":" horiz-adv-x="330" 
d="M56 522q16 26 44.5 40.5t64.5 14.5q37 0 65.5 -14.5t44 -40.5t15.5 -59q0 -32 -15.5 -58t-44 -40.5t-65.5 -14.5q-36 0 -64.5 14.5t-44.5 40.5t-16 58q0 33 16 59zM56 157q16 26 44.5 40.5t64.5 14.5q37 0 65.5 -14.5t44 -40.5t15.5 -59q0 -32 -15.5 -58t-44 -40.5
t-65.5 -14.5q-36 0 -64.5 14.5t-44.5 40.5t-16 58q0 33 16 59z" />
    <glyph glyph-name="semicolon" unicode=";" horiz-adv-x="330" 
d="M64 23.5q-24 28.5 -24 71.5q0 34 16 60.5t44.5 41.5t64.5 15q38 0 66 -14.5t43.5 -41.5t15.5 -64q0 -35 -11.5 -69.5t-37.5 -81.5l-37 -68q-10 -18 -21 -24.5t-33 -6.5h-66q-29 0 -29 17q0 8 7 21l61 107q-35 8 -59 36.5zM56 522q16 26 44.5 40.5t64.5 14.5
q37 0 65.5 -14.5t44 -40.5t15.5 -59q0 -32 -15.5 -58t-44 -40.5t-65.5 -14.5q-36 0 -64.5 14.5t-44.5 40.5t-16 58q0 33 16 59z" />
    <glyph glyph-name="less" unicode="&#x3c;" 
d="M80 385.5q5 8.5 19 15.5l454 229q12 5 18 5q9 0 14 -6.5t5 -19.5v-135q0 -19 -5.5 -28t-22.5 -17l-236 -109l236 -109q17 -8 22.5 -17t5.5 -28v-135q0 -13 -5 -19.5t-14 -6.5q-6 0 -18 5l-454 229q-14 7 -19 15.5t-5 25.5v80q0 17 5 25.5z" />
    <glyph glyph-name="equal" unicode="=" 
d="M107 540h496q30 0 30 -30v-120q0 -30 -30 -30h-496q-30 0 -30 30v120q0 30 30 30zM107 280h496q30 0 30 -30v-120q0 -30 -30 -30h-496q-30 0 -30 30v120q0 30 30 30z" />
    <glyph glyph-name="greater" unicode="&#x3e;" horiz-adv-x="678" 
d="M90.5 194q5.5 9 22.5 17l236 109l-236 109q-17 8 -22.5 17t-5.5 28v135q0 13 5 19.5t14 6.5q6 0 18 -5l454 -229q14 -7 19 -15.5t5 -25.5v-80q0 -17 -5 -25.5t-19 -15.5l-454 -229q-12 -5 -18 -5q-9 0 -14 6.5t-5 19.5v135q0 19 5.5 28z" />
    <glyph glyph-name="question" unicode="?" horiz-adv-x="622" 
d="M174 312.5q8 25.5 29 46t60 40.5q35 18 54 30t28.5 23t9.5 24q0 41 -73 41q-40 0 -74.5 -11t-68.5 -32q-13 -8 -20 -8q-10 0 -20 14l-69 102q-10 15 -10 25q0 7 4.5 13t15.5 14q55 37 121.5 59t143.5 22q89 0 154 -27t99 -75.5t34 -112.5q0 -41 -13 -73t-43 -59.5
t-80 -53.5q-32 -17 -43.5 -33t-11.5 -40v-7q0 -15 -7 -22t-22 -7h-177q-15 0 -22 7t-7 22v16q0 37 8 62.5zM190 151.5q34 26.5 91 26.5t91 -26.5t34 -73.5q0 -46 -34 -72t-91 -26q-56 0 -90.5 26t-34.5 72q0 47 34 73.5z" />
    <glyph glyph-name="at" unicode="@" horiz-adv-x="1061" 
d="M725 -112q0 -9 -5.5 -16t-17.5 -14q-57 -35 -120.5 -54t-137.5 -19q-119 0 -213 50.5t-147.5 147.5t-53.5 231q0 142 66.5 256t186.5 179.5t273 65.5q155 0 262 -54.5t160 -145.5t53 -202q0 -102 -32 -174t-88 -109t-129 -37q-58 0 -99.5 27t-61.5 74q-35 -45 -79 -67
t-100 -22q-50 0 -90.5 24.5t-64 70t-23.5 105.5q0 72 30.5 139.5t83 109t113.5 41.5q42 0 73.5 -16.5t56.5 -49.5l6 24q5 18 12.5 24.5t25.5 6.5h103q32 0 32 -27q0 -7 -1 -11l-20 -99q-17 -82 -17 -132q0 -29 11 -47.5t30 -18.5q20 0 35.5 19t24 55t8.5 85
q0 120 -78.5 185.5t-236.5 65.5q-106 0 -187 -44t-125 -122.5t-44 -178.5q0 -88 32 -149.5t88.5 -92.5t130.5 -31q50 0 95 13.5t81 36.5q14 8 23 8q13 0 24 -18l43 -70q8 -12 8 -23zM536.5 179.5q18.5 18.5 29.5 47t11 54.5t-13 42t-35 16q-21 0 -38.5 -18.5t-27.5 -46.5
t-10 -56q0 -26 11.5 -41.5t31.5 -15.5q22 0 40.5 18.5z" />
    <glyph glyph-name="A" unicode="A" horiz-adv-x="776" 
d="M243 33q-10 -20 -20 -26.5t-30 -6.5h-173q-24 0 -24 15q0 9 5 18l335 635q15 29 26 40.5t26 11.5q14 0 25 -11.5t27 -40.5l335 -635q5 -9 5 -18q0 -15 -24 -15h-180q-20 0 -30 6.5t-20 26.5l-142 285z" />
    <glyph glyph-name="B" unicode="B" horiz-adv-x="718" 
d="M85 700h271q155 0 233.5 -47t78.5 -153q0 -93 -90 -136q115 -36 115 -154q0 -76 -38.5 -122t-114 -67t-190.5 -21h-265q-30 0 -30 30v640q0 30 30 30zM411 444q22 10 22 34q0 17 -9 26.5t-29 13.5t-57 4h-30q-10 0 -14 -3.5t-4 -14.5v-52q0 -10 4 -14t14 -4h30
q51 0 73 10zM414 183q22 5 31 15.5t9 27.5t-9 27t-31.5 15t-62.5 5h-43q-10 0 -14 -3.5t-4 -14.5v-59q0 -10 4 -14t14 -4h43q41 0 63 5z" />
    <glyph glyph-name="C" unicode="C" horiz-adv-x="720" 
d="M698 106q0 -6 -4.5 -12.5t-14.5 -14.5q-55 -44 -122.5 -69t-141.5 -25q-112 0 -199.5 47t-136.5 129t-49 184q0 106 50 190.5t140 132t204 47.5q76 0 142 -25t120 -71q7 -6 10 -11t3 -11q0 -9 -7 -19l-83 -117q-10 -15 -23 -15q-8 0 -21 8q-34 23 -68 36t-73 13
q-45 0 -80.5 -19t-55 -54t-19.5 -81q0 -45 19.5 -79.5t55 -53.5t80.5 -19q41 0 75 13t67 37q13 10 22 10q11 0 21 -15l81 -116q8 -11 8 -20z" />
    <glyph glyph-name="D" unicode="D" horiz-adv-x="791" 
d="M85 700h285q125 0 213 -42t133 -119t45 -181q0 -109 -48 -189.5t-140.5 -124.5t-222.5 -44h-265q-30 0 -30 30v640q0 30 30 30zM478.5 240q43.5 40 43.5 112q0 69 -43 108.5t-125 39.5h-46q-10 0 -14 -3.5t-4 -14.5v-264q0 -10 4 -14t14 -4h42q85 0 128.5 40z" />
    <glyph glyph-name="E" unicode="E" horiz-adv-x="598" 
d="M85 700h447q30 0 30 -30v-120q0 -30 -30 -30h-224q-10 0 -14 -3.5t-4 -14.5v-46q0 -10 4 -14t14 -4h191q30 0 30 -30v-115q0 -30 -30 -30h-191q-10 0 -14 -3.5t-4 -14.5v-47q0 -10 4 -14t14 -4h225q30 0 30 -30v-120q0 -30 -30 -30h-448q-30 0 -30 30v640q0 30 30 30z
" />
    <glyph glyph-name="F" unicode="F" horiz-adv-x="599" 
d="M85 700h459q30 0 30 -30v-120q0 -30 -30 -30h-236q-10 0 -14 -3.5t-4 -14.5v-77q0 -10 4 -14t14 -4h206q30 0 30 -30v-120q0 -30 -30 -30h-206q-10 0 -14 -3.5t-4 -14.5v-179q0 -30 -30 -30h-175q-30 0 -30 30v640q0 30 30 30z" />
    <glyph glyph-name="G" unicode="G" horiz-adv-x="770" 
d="M525 369h175q30 0 30 -30v-239q0 -19 -5.5 -28.5t-22.5 -18.5q-131 -68 -288 -68q-112 0 -199.5 44.5t-136 125.5t-48.5 187q0 110 49 195t138.5 131.5t205.5 46.5q76 0 144 -20.5t124 -57.5q20 -13 20 -28q0 -9 -8 -23l-69 -112q-6 -10 -12.5 -15t-14.5 -5q-6 0 -22 7
q-40 21 -76.5 31t-78.5 10q-52 0 -88 -20t-54.5 -55.5t-18.5 -79.5t17.5 -79t51 -55t79.5 -20q38 0 62 8q9 3 12.5 8t3.5 15v115q0 30 30 30z" />
    <glyph glyph-name="H" unicode="H" horiz-adv-x="762" 
d="M85 700h175q30 0 30 -30v-193q0 -10 4 -14t14 -4h146q11 0 14.5 4t3.5 14v193q0 30 30 30h175q30 0 30 -30v-640q0 -30 -30 -30h-175q-30 0 -30 30v203q0 11 -3.5 14.5t-14.5 3.5h-146q-10 0 -14 -3.5t-4 -14.5v-203q0 -30 -30 -30h-175q-30 0 -30 30v640q0 30 30 30z
" />
    <glyph glyph-name="I" unicode="I" horiz-adv-x="345" 
d="M85 700h175q30 0 30 -30v-640q0 -30 -30 -30h-175q-30 0 -30 30v640q0 30 30 30z" />
    <glyph glyph-name="J" unicode="J" horiz-adv-x="363" 
d="M-32 -21q9 0 23 -2t23 -2q32 0 46 20t14 61v614q0 30 30 30h175q30 0 30 -30v-623q0 -80 -25 -140t-77.5 -93.5t-133.5 -33.5q-71 0 -114 12q-15 4 -20 9t-4 16l16 145q2 17 17 17z" />
    <glyph glyph-name="K" unicode="K" horiz-adv-x="770" 
d="M85 700h175q30 0 30 -30v-640q0 -30 -30 -30h-175q-30 0 -30 30v640q0 30 30 30zM302 350q0 12 10 28l176 293q11 18 21 23.5t32 5.5h197q24 0 24 -15q0 -6 -6 -17l-203 -310l210 -326q6 -10 6 -17q0 -15 -24 -15h-202q-23 0 -33.5 5.5t-20.5 22.5l-178 297q-9 15 -9 25z
" />
    <glyph glyph-name="L" unicode="L" horiz-adv-x="578" 
d="M85 700h175q30 0 30 -30v-444q0 -10 4 -14t14 -4h225q30 0 30 -30v-148q0 -30 -30 -30h-448q-30 0 -30 30v640q0 30 30 30z" />
    <glyph glyph-name="M" unicode="M" horiz-adv-x="852" 
d="M62.5 704q7.5 11 20.5 11q9 0 20 -7t27 -23l296 -294l296 294q16 16 27 23t20 7q14 0 21 -11t7 -31v-643q0 -30 -30 -30h-175q-30 0 -30 30v208l-97 -94q-14 -14 -22.5 -19.5t-16.5 -5.5t-16.5 5.5t-22.5 19.5l-97 94v-208q0 -30 -30 -30h-175q-30 0 -30 30v643
q0 20 7.5 31z" />
    <glyph glyph-name="N" unicode="N" horiz-adv-x="782" 
d="M85 715q11 0 24 -7.5t39 -28.5l344 -268v259q0 30 30 30h175q30 0 30 -30v-641q0 -44 -30 -44q-11 0 -24 7.5t-39 28.5l-344 268v-259q0 -30 -30 -30h-175q-30 0 -30 30v641q0 44 30 44z" />
    <glyph glyph-name="O" unicode="O" horiz-adv-x="830" 
d="M79 539.5q49 83.5 136.5 129.5t198.5 46q112 0 200 -46t137 -129.5t49 -190.5t-49 -189.5t-137 -128.5t-200 -46t-199 46t-136 128.5t-49 189.5t49 190.5zM489.5 215q33.5 18 52.5 52.5t19 81.5t-19 82t-52.5 53.5t-75.5 18.5t-75 -18.5t-51.5 -53.5t-18.5 -82
t18.5 -81.5t51.5 -52.5t75 -18t75.5 18z" />
    <glyph glyph-name="P" unicode="P" 
d="M85 700h270q163 0 245.5 -63t82.5 -194q0 -261 -328 -261h-47q-10 0 -14 -3.5t-4 -14.5v-134q0 -30 -30 -30h-175q-30 0 -30 30v640q0 30 30 30zM416.5 378q30.5 18 30.5 65q0 32 -14 49t-40 23.5t-68 6.5h-17q-10 0 -14 -3.5t-4 -14.5v-126q0 -10 4 -14t14 -4h17
q61 0 91.5 18z" />
    <glyph glyph-name="Q" unicode="Q" horiz-adv-x="830" 
d="M190 45q-76 48 -118 126.5t-42 177.5q0 107 49 190.5t136.5 129.5t198.5 46q112 0 200 -46t137 -129.5t49 -190.5q0 -75 -25.5 -138.5t-72.5 -110.5t-111 -75l98 -153q6 -11 6 -18q0 -15 -24 -15h-179q-22 0 -33 6.5t-23 26.5l-71 115q-99 10 -175 58zM489.5 215
q33.5 18 52.5 52.5t19 81.5t-19 82t-52.5 53.5t-75.5 18.5t-75 -18.5t-51.5 -53.5t-18.5 -82t18.5 -81.5t51.5 -52.5t75 -18t75.5 18z" />
    <glyph glyph-name="R" unicode="R" horiz-adv-x="725" 
d="M85 700h270q112 0 185 -24.5t109.5 -77t36.5 -135.5q0 -66 -26.5 -108t-80.5 -71l145 -251q5 -7 5 -17q0 -16 -26 -16h-179q-25 0 -36.5 6.5t-21.5 26.5l-141 266q-5 12 -5 17q0 12 23 16q46 7 75 32t29 66q0 45 -28 66.5t-88 21.5h-23q-10 0 -14 -3.5t-4 -14.5v-470
q0 -30 -30 -30h-175q-30 0 -30 30v640q0 30 30 30z" />
    <glyph glyph-name="S" unicode="S" horiz-adv-x="629" 
d="M101 242q6 4 12 4q9 0 21 -9q35 -25 78 -41t84 -16q64 0 64 31q0 12 -9 19.5t-29 14t-62 17.5q-77 20 -125.5 46.5t-73.5 68t-25 104.5q0 74 36 126.5t99 80t143 27.5q150 0 269 -95q14 -11 14 -22q0 -10 -9 -22l-74 -107q-9 -13 -19 -13q-9 0 -21 9q-35 27 -74.5 42
t-75.5 15q-26 0 -38.5 -8t-12.5 -23q0 -12 8.5 -19.5t26.5 -13.5t56 -15q79 -19 130.5 -46.5t78 -69.5t26.5 -102q0 -74 -36 -128t-102 -83t-155 -29q-82 0 -152 25.5t-126 68.5q-17 13 -17 27q0 11 9 24l69 99q6 9 12 13z" />
    <glyph glyph-name="T" unicode="T" horiz-adv-x="625" 
d="M191.5 488.5q-3.5 3.5 -14.5 3.5h-132q-30 0 -30 30v148q0 30 30 30h535q30 0 30 -30v-148q0 -30 -30 -30h-132q-10 0 -14 -3.5t-4 -14.5v-444q0 -30 -30 -30h-175q-30 0 -30 30v444q0 11 -3.5 14.5z" />
    <glyph glyph-name="U" unicode="U" horiz-adv-x="780" 
d="M80 700h175q30 0 30 -30v-345q0 -128 105 -128q52 0 78.5 32.5t26.5 95.5v345q0 30 30 30h175q30 0 30 -30v-365q0 -105 -43 -176.5t-120.5 -107.5t-181.5 -36q-101 0 -176 35t-117 106.5t-42 178.5v365q0 30 30 30z" />
    <glyph glyph-name="V" unicode="V" horiz-adv-x="776" 
d="M-4 685q0 15 24 15h180q20 0 30 -6.5t20 -26.5l142 -285l141 285q10 20 20 26.5t30 6.5h173q24 0 24 -15q0 -9 -5 -18l-335 -635q-15 -29 -26 -40.5t-26 -11.5q-14 0 -25 11.5t-27 40.5l-335 635q-5 9 -5 18z" />
    <glyph glyph-name="W" unicode="W" horiz-adv-x="1042" 
d="M1 684q0 16 25 16h187q21 0 30.5 -6t18.5 -26l101 -236l117 224q14 26 22.5 35t18.5 9t18.5 -9t22.5 -35l117 -224l101 236q9 20 18.5 26t30.5 6h187q25 0 25 -16q0 -6 -5 -18l-292 -634q-14 -31 -22.5 -41.5t-19.5 -10.5q-10 0 -19 10t-25 40l-137 257l-137 -257
q-16 -30 -25 -40t-19 -10q-11 0 -19.5 10.5t-22.5 41.5l-292 634q-5 12 -5 18z" />
    <glyph glyph-name="X" unicode="X" horiz-adv-x="750" 
d="M19 667q-6 11 -6 17q0 8 6.5 12t17.5 4h196q22 0 32.5 -6.5t22.5 -26.5l90 -151l96 156q10 17 20 22.5t30 5.5h189q12 0 18.5 -4t6.5 -11q0 -8 -7 -18l-209 -315l211 -319q7 -10 7 -17q0 -8 -7 -12t-18 -4h-196q-22 0 -32.5 6.5t-22.5 26.5l-93 153l-97 -158
q-10 -17 -20 -22.5t-30 -5.5h-189q-12 0 -18.5 4t-6.5 11q0 8 7 18l211 317z" />
    <glyph glyph-name="Y" unicode="Y" horiz-adv-x="730" 
d="M2 667q-6 11 -6 18q0 15 22 15h185q21 0 31.5 -6.5t21.5 -26.5l113 -206l112 206q11 20 21.5 26.5t31.5 6.5h178q22 0 22 -15q0 -7 -6 -18l-243 -413v-224q0 -30 -30 -30h-175q-30 0 -30 30v219z" />
    <glyph glyph-name="Z" unicode="Z" horiz-adv-x="665" 
d="M64 492q-30 0 -30 30v148q0 30 30 30h545q26 0 26 -17q0 -10 -7 -21l-251 -454h225q30 0 30 -30v-148q0 -30 -30 -30h-554q-13 0 -20 4.5t-7 13.5q0 8 6 20l252 454h-215z" />
    <glyph glyph-name="bracketleft" unicode="[" horiz-adv-x="450" 
d="M94 925h296q30 0 30 -30v-115q0 -30 -30 -30h-98q-10 0 -14 -3.5t-4 -14.5v-767q0 -11 4 -14.5t14 -3.5h98q30 0 30 -30v-115q0 -30 -30 -30h-296q-30 0 -30 30v1093q0 30 30 30z" />
    <glyph glyph-name="backslash" unicode="\" horiz-adv-x="513" 
d="M6 700q0 15 21 15h156q18 0 25.5 -5t14.5 -21l281 -675q3 -7 3 -14q0 -15 -21 -15h-156q-18 0 -25.5 5t-14.5 21l-281 675q-3 8 -3 14z" />
    <glyph glyph-name="bracketright" unicode="]" horiz-adv-x="450" 
d="M60 -53h98q11 0 14.5 3.5t3.5 14.5v767q0 11 -3.5 14.5t-14.5 3.5h-98q-30 0 -30 30v115q0 30 30 30h296q30 0 30 -30v-1093q0 -30 -30 -30h-296q-30 0 -30 30v115q0 30 30 30z" />
    <glyph glyph-name="asciicircum" unicode="^" horiz-adv-x="563" 
d="M214 710.5q9 4.5 27 4.5h81q18 0 27 -4.5t21 -17.5l158 -183q9 -10 9 -19q0 -10 -15 -19l-82 -46q-10 -6 -20 -6q-13 0 -25 15l-114 133l-113 -133q-12 -15 -25 -15q-9 0 -20 6l-82 46q-15 9 -15 19q0 9 9 19l158 183q12 13 21 17.5z" />
    <glyph glyph-name="underscore" unicode="_" horiz-adv-x="500" 
d="M40 -60h420q30 0 30 -30v-80q0 -30 -30 -30h-420q-30 0 -30 30v80q0 30 30 30z" />
    <glyph glyph-name="grave" unicode="`" horiz-adv-x="500" 
d="M140 1005q15 0 34 -14l203 -147q13 -10 13 -20t-14 -21l-58 -43q-12 -9 -24 -9q-11 0 -30 10l-232 125q-20 11 -20 25q0 11 16 23l79 57q20 14 33 14z" />
    <glyph glyph-name="a" unicode="a" horiz-adv-x="776" 
d="M243 33q-10 -20 -20 -26.5t-30 -6.5h-173q-24 0 -24 15q0 9 5 18l335 635q15 29 26 40.5t26 11.5q14 0 25 -11.5t27 -40.5l335 -635q5 -9 5 -18q0 -15 -24 -15h-180q-20 0 -30 6.5t-20 26.5l-142 285z" />
    <glyph glyph-name="b" unicode="b" horiz-adv-x="718" 
d="M85 700h271q155 0 233.5 -47t78.5 -153q0 -93 -90 -136q115 -36 115 -154q0 -76 -38.5 -122t-114 -67t-190.5 -21h-265q-30 0 -30 30v640q0 30 30 30zM411 444q22 10 22 34q0 17 -9 26.5t-29 13.5t-57 4h-30q-10 0 -14 -3.5t-4 -14.5v-52q0 -10 4 -14t14 -4h30
q51 0 73 10zM414 183q22 5 31 15.5t9 27.5t-9 27t-31.5 15t-62.5 5h-43q-10 0 -14 -3.5t-4 -14.5v-59q0 -10 4 -14t14 -4h43q41 0 63 5z" />
    <glyph glyph-name="c" unicode="c" horiz-adv-x="720" 
d="M698 106q0 -6 -4.5 -12.5t-14.5 -14.5q-55 -44 -122.5 -69t-141.5 -25q-112 0 -199.5 47t-136.5 129t-49 184q0 106 50 190.5t140 132t204 47.5q76 0 142 -25t120 -71q7 -6 10 -11t3 -11q0 -9 -7 -19l-83 -117q-10 -15 -23 -15q-8 0 -21 8q-34 23 -68 36t-73 13
q-45 0 -80.5 -19t-55 -54t-19.5 -81q0 -45 19.5 -79.5t55 -53.5t80.5 -19q41 0 75 13t67 37q13 10 22 10q11 0 21 -15l81 -116q8 -11 8 -20z" />
    <glyph glyph-name="d" unicode="d" horiz-adv-x="791" 
d="M85 700h285q125 0 213 -42t133 -119t45 -181q0 -109 -48 -189.5t-140.5 -124.5t-222.5 -44h-265q-30 0 -30 30v640q0 30 30 30zM478.5 240q43.5 40 43.5 112q0 69 -43 108.5t-125 39.5h-46q-10 0 -14 -3.5t-4 -14.5v-264q0 -10 4 -14t14 -4h42q85 0 128.5 40z" />
    <glyph glyph-name="e" unicode="e" horiz-adv-x="598" 
d="M85 700h447q30 0 30 -30v-120q0 -30 -30 -30h-224q-10 0 -14 -3.5t-4 -14.5v-46q0 -10 4 -14t14 -4h191q30 0 30 -30v-115q0 -30 -30 -30h-191q-10 0 -14 -3.5t-4 -14.5v-47q0 -10 4 -14t14 -4h225q30 0 30 -30v-120q0 -30 -30 -30h-448q-30 0 -30 30v640q0 30 30 30z
" />
    <glyph glyph-name="f" unicode="f" horiz-adv-x="599" 
d="M85 700h459q30 0 30 -30v-120q0 -30 -30 -30h-236q-10 0 -14 -3.5t-4 -14.5v-77q0 -10 4 -14t14 -4h206q30 0 30 -30v-120q0 -30 -30 -30h-206q-10 0 -14 -3.5t-4 -14.5v-179q0 -30 -30 -30h-175q-30 0 -30 30v640q0 30 30 30z" />
    <glyph glyph-name="g" unicode="g" horiz-adv-x="770" 
d="M525 369h175q30 0 30 -30v-239q0 -19 -5.5 -28.5t-22.5 -18.5q-131 -68 -288 -68q-112 0 -199.5 44.5t-136 125.5t-48.5 187q0 110 49 195t138.5 131.5t205.5 46.5q76 0 144 -20.5t124 -57.5q20 -13 20 -28q0 -9 -8 -23l-69 -112q-6 -10 -12.5 -15t-14.5 -5q-6 0 -22 7
q-40 21 -76.5 31t-78.5 10q-52 0 -88 -20t-54.5 -55.5t-18.5 -79.5t17.5 -79t51 -55t79.5 -20q38 0 62 8q9 3 12.5 8t3.5 15v115q0 30 30 30z" />
    <glyph glyph-name="h" unicode="h" horiz-adv-x="762" 
d="M85 700h175q30 0 30 -30v-193q0 -10 4 -14t14 -4h146q11 0 14.5 4t3.5 14v193q0 30 30 30h175q30 0 30 -30v-640q0 -30 -30 -30h-175q-30 0 -30 30v203q0 11 -3.5 14.5t-14.5 3.5h-146q-10 0 -14 -3.5t-4 -14.5v-203q0 -30 -30 -30h-175q-30 0 -30 30v640q0 30 30 30z
" />
    <glyph glyph-name="i" unicode="i" horiz-adv-x="345" 
d="M85 700h175q30 0 30 -30v-640q0 -30 -30 -30h-175q-30 0 -30 30v640q0 30 30 30z" />
    <glyph glyph-name="j" unicode="j" horiz-adv-x="363" 
d="M-32 -21q9 0 23 -2t23 -2q32 0 46 20t14 61v614q0 30 30 30h175q30 0 30 -30v-623q0 -80 -25 -140t-77.5 -93.5t-133.5 -33.5q-71 0 -114 12q-15 4 -20 9t-4 16l16 145q2 17 17 17z" />
    <glyph glyph-name="k" unicode="k" horiz-adv-x="770" 
d="M85 700h175q30 0 30 -30v-640q0 -30 -30 -30h-175q-30 0 -30 30v640q0 30 30 30zM302 350q0 12 10 28l176 293q11 18 21 23.5t32 5.5h197q24 0 24 -15q0 -6 -6 -17l-203 -310l210 -326q6 -10 6 -17q0 -15 -24 -15h-202q-23 0 -33.5 5.5t-20.5 22.5l-178 297q-9 15 -9 25z
" />
    <glyph glyph-name="l" unicode="l" horiz-adv-x="578" 
d="M85 700h175q30 0 30 -30v-444q0 -10 4 -14t14 -4h225q30 0 30 -30v-148q0 -30 -30 -30h-448q-30 0 -30 30v640q0 30 30 30z" />
    <glyph glyph-name="m" unicode="m" horiz-adv-x="852" 
d="M62.5 704q7.5 11 20.5 11q9 0 20 -7t27 -23l296 -294l296 294q16 16 27 23t20 7q14 0 21 -11t7 -31v-643q0 -30 -30 -30h-175q-30 0 -30 30v208l-97 -94q-14 -14 -22.5 -19.5t-16.5 -5.5t-16.5 5.5t-22.5 19.5l-97 94v-208q0 -30 -30 -30h-175q-30 0 -30 30v643
q0 20 7.5 31z" />
    <glyph glyph-name="n" unicode="n" horiz-adv-x="782" 
d="M85 715q11 0 24 -7.5t39 -28.5l344 -268v259q0 30 30 30h175q30 0 30 -30v-641q0 -44 -30 -44q-11 0 -24 7.5t-39 28.5l-344 268v-259q0 -30 -30 -30h-175q-30 0 -30 30v641q0 44 30 44z" />
    <glyph glyph-name="o" unicode="o" horiz-adv-x="830" 
d="M79 539.5q49 83.5 136.5 129.5t198.5 46q112 0 200 -46t137 -129.5t49 -190.5t-49 -189.5t-137 -128.5t-200 -46t-199 46t-136 128.5t-49 189.5t49 190.5zM489.5 215q33.5 18 52.5 52.5t19 81.5t-19 82t-52.5 53.5t-75.5 18.5t-75 -18.5t-51.5 -53.5t-18.5 -82
t18.5 -81.5t51.5 -52.5t75 -18t75.5 18z" />
    <glyph glyph-name="p" unicode="p" 
d="M85 700h270q163 0 245.5 -63t82.5 -194q0 -261 -328 -261h-47q-10 0 -14 -3.5t-4 -14.5v-134q0 -30 -30 -30h-175q-30 0 -30 30v640q0 30 30 30zM416.5 378q30.5 18 30.5 65q0 32 -14 49t-40 23.5t-68 6.5h-17q-10 0 -14 -3.5t-4 -14.5v-126q0 -10 4 -14t14 -4h17
q61 0 91.5 18z" />
    <glyph glyph-name="q" unicode="q" horiz-adv-x="830" 
d="M190 45q-76 48 -118 126.5t-42 177.5q0 107 49 190.5t136.5 129.5t198.5 46q112 0 200 -46t137 -129.5t49 -190.5q0 -75 -25.5 -138.5t-72.5 -110.5t-111 -75l98 -153q6 -11 6 -18q0 -15 -24 -15h-179q-22 0 -33 6.5t-23 26.5l-71 115q-99 10 -175 58zM489.5 215
q33.5 18 52.5 52.5t19 81.5t-19 82t-52.5 53.5t-75.5 18.5t-75 -18.5t-51.5 -53.5t-18.5 -82t18.5 -81.5t51.5 -52.5t75 -18t75.5 18z" />
    <glyph glyph-name="r" unicode="r" horiz-adv-x="725" 
d="M85 700h270q112 0 185 -24.5t109.5 -77t36.5 -135.5q0 -66 -26.5 -108t-80.5 -71l145 -251q5 -7 5 -17q0 -16 -26 -16h-179q-25 0 -36.5 6.5t-21.5 26.5l-141 266q-5 12 -5 17q0 12 23 16q46 7 75 32t29 66q0 45 -28 66.5t-88 21.5h-23q-10 0 -14 -3.5t-4 -14.5v-470
q0 -30 -30 -30h-175q-30 0 -30 30v640q0 30 30 30z" />
    <glyph glyph-name="s" unicode="s" horiz-adv-x="629" 
d="M101 242q6 4 12 4q9 0 21 -9q35 -25 78 -41t84 -16q64 0 64 31q0 12 -9 19.5t-29 14t-62 17.5q-77 20 -125.5 46.5t-73.5 68t-25 104.5q0 74 36 126.5t99 80t143 27.5q150 0 269 -95q14 -11 14 -22q0 -10 -9 -22l-74 -107q-9 -13 -19 -13q-9 0 -21 9q-35 27 -74.5 42
t-75.5 15q-26 0 -38.5 -8t-12.5 -23q0 -12 8.5 -19.5t26.5 -13.5t56 -15q79 -19 130.5 -46.5t78 -69.5t26.5 -102q0 -74 -36 -128t-102 -83t-155 -29q-82 0 -152 25.5t-126 68.5q-17 13 -17 27q0 11 9 24l69 99q6 9 12 13z" />
    <glyph glyph-name="t" unicode="t" horiz-adv-x="625" 
d="M191.5 488.5q-3.5 3.5 -14.5 3.5h-132q-30 0 -30 30v148q0 30 30 30h535q30 0 30 -30v-148q0 -30 -30 -30h-132q-10 0 -14 -3.5t-4 -14.5v-444q0 -30 -30 -30h-175q-30 0 -30 30v444q0 11 -3.5 14.5z" />
    <glyph glyph-name="u" unicode="u" horiz-adv-x="780" 
d="M80 700h175q30 0 30 -30v-345q0 -128 105 -128q52 0 78.5 32.5t26.5 95.5v345q0 30 30 30h175q30 0 30 -30v-365q0 -105 -43 -176.5t-120.5 -107.5t-181.5 -36q-101 0 -176 35t-117 106.5t-42 178.5v365q0 30 30 30z" />
    <glyph glyph-name="v" unicode="v" horiz-adv-x="776" 
d="M-4 685q0 15 24 15h180q20 0 30 -6.5t20 -26.5l142 -285l141 285q10 20 20 26.5t30 6.5h173q24 0 24 -15q0 -9 -5 -18l-335 -635q-15 -29 -26 -40.5t-26 -11.5q-14 0 -25 11.5t-27 40.5l-335 635q-5 9 -5 18z" />
    <glyph glyph-name="w" unicode="w" horiz-adv-x="1042" 
d="M1 684q0 16 25 16h187q21 0 30.5 -6t18.5 -26l101 -236l117 224q14 26 22.5 35t18.5 9t18.5 -9t22.5 -35l117 -224l101 236q9 20 18.5 26t30.5 6h187q25 0 25 -16q0 -6 -5 -18l-292 -634q-14 -31 -22.5 -41.5t-19.5 -10.5q-10 0 -19 10t-25 40l-137 257l-137 -257
q-16 -30 -25 -40t-19 -10q-11 0 -19.5 10.5t-22.5 41.5l-292 634q-5 12 -5 18z" />
    <glyph glyph-name="x" unicode="x" horiz-adv-x="750" 
d="M19 667q-6 11 -6 17q0 8 6.5 12t17.5 4h196q22 0 32.5 -6.5t22.5 -26.5l90 -151l96 156q10 17 20 22.5t30 5.5h189q12 0 18.5 -4t6.5 -11q0 -8 -7 -18l-209 -315l211 -319q7 -10 7 -17q0 -8 -7 -12t-18 -4h-196q-22 0 -32.5 6.5t-22.5 26.5l-93 153l-97 -158
q-10 -17 -20 -22.5t-30 -5.5h-189q-12 0 -18.5 4t-6.5 11q0 8 7 18l211 317z" />
    <glyph glyph-name="y" unicode="y" horiz-adv-x="730" 
d="M2 667q-6 11 -6 18q0 15 22 15h185q21 0 31.5 -6.5t21.5 -26.5l113 -206l112 206q11 20 21.5 26.5t31.5 6.5h178q22 0 22 -15q0 -7 -6 -18l-243 -413v-224q0 -30 -30 -30h-175q-30 0 -30 30v219z" />
    <glyph glyph-name="z" unicode="z" horiz-adv-x="665" 
d="M64 492q-30 0 -30 30v148q0 30 30 30h545q26 0 26 -17q0 -10 -7 -21l-251 -454h225q30 0 30 -30v-148q0 -30 -30 -30h-554q-13 0 -20 4.5t-7 13.5q0 8 6 20l252 454h-215z" />
    <glyph glyph-name="braceleft" unicode="{" horiz-adv-x="450" 
d="M93 225q-19 26 -65 36q-14 3 -18.5 8.5t-4.5 18.5v124q0 13 4.5 18.5t18.5 8.5q46 10 65 36t19 78v138q0 117 68.5 177t211.5 60q15 0 21.5 -6t6.5 -20v-126q0 -15 -5 -19.5t-21 -6.5q-27 -3 -42.5 -12t-22.5 -27t-7 -50v-125q0 -52 -12.5 -87t-39.5 -58.5t-71 -40.5
q44 -17 71 -40.5t39.5 -58.5t12.5 -87v-125q0 -32 7 -50t22.5 -27t42.5 -12q17 -2 21.5 -6.5t4.5 -19.5v-126q0 -14 -6.5 -20t-21.5 -6q-143 0 -211.5 60t-68.5 177v138q0 52 -19 78z" />
    <glyph glyph-name="bar" unicode="|" horiz-adv-x="308" 
d="M94 800h120q30 0 30 -30v-870q0 -30 -30 -30h-120q-30 0 -30 30v870q0 30 30 30z" />
    <glyph glyph-name="braceright" unicode="}" horiz-adv-x="450" 
d="M35 -56.5q5 4.5 21 6.5q27 3 42.5 12t22.5 27t7 50v125q0 52 12.5 87t39.5 58.5t71 40.5q-44 17 -71 40.5t-39.5 58.5t-12.5 87v125q0 32 -7 50t-22.5 27t-42.5 12q-17 2 -21.5 6.5t-4.5 19.5v126q0 14 6.5 20t21.5 6q143 0 211.5 -60t68.5 -177v-138q0 -52 19 -78
t65 -36q14 -3 18.5 -8.5t4.5 -18.5v-124q0 -13 -4.5 -18.5t-18.5 -8.5q-46 -10 -65 -36t-19 -78v-138q0 -117 -68.5 -177t-211.5 -60q-15 0 -21.5 6t-6.5 20v126q0 15 5 19.5z" />
    <glyph glyph-name="asciitilde" unicode="~" 
d="M39 319q0 12 10 23q35 41 84 67.5t112 26.5q37 0 65 -7.5t71 -23.5q29 -12 48 -17.5t38 -5.5q28 0 49.5 10t44.5 32q13 13 24 13t21 -14l55 -77q10 -13 10 -25t-10 -23q-35 -41 -84 -67.5t-112 -26.5q-37 0 -65 7.5t-71 23.5q-29 12 -48 17.5t-38 5.5q-28 0 -49.5 -10
t-44.5 -32q-15 -13 -24 -13q-10 0 -21 14l-55 77q-10 13 -10 25z" />
    <glyph glyph-name="uni00A0" unicode="&#xa0;" horiz-adv-x="275" 
 />
    <glyph glyph-name="exclamdown" unicode="&#xa1;" horiz-adv-x="332" 
d="M75 694q34 26 91 26q56 0 90.5 -26t34.5 -72q0 -47 -34 -73.5t-91 -26.5t-91 26.5t-34 73.5q0 46 34 72zM82.5 478q7.5 7 26.5 7h114q19 0 26.5 -7t9.5 -25l37 -410q2 -23 -7 -33t-32 -10h-182q-23 0 -32 10t-7 33l37 410q2 18 9.5 25z" />
    <glyph glyph-name="cent" unicode="&#xa2;" 
d="M175 88.5q-69 42.5 -107 109.5t-38 148q0 83 38 151.5t107 112t160 54.5v106q0 30 30 30h90q30 0 30 -30v-111q93 -19 160 -70q18 -13 18 -26q0 -9 -10 -24l-67 -103q-9 -15 -22 -15q-8 0 -21 8q-32 20 -58 27v-212q26 9 56 29q14 10 24 10q6 0 11 -3.5t10 -11.5l63 -99
q10 -16 10 -25q0 -7 -4.5 -13.5t-14.5 -14.5q-32 -26 -71.5 -45t-83.5 -29v-112q0 -30 -30 -30h-90q-30 0 -30 30v105q-91 11 -160 53.5zM279.5 417q-19.5 -28 -19.5 -67q0 -38 19.5 -67t55.5 -42v217q-36 -13 -55.5 -41z" />
    <glyph glyph-name="sterling" unicode="&#xa3;" 
d="M47 116q0 6 4 11t14 9q88 39 88 110q0 15 -4 33h-94q-30 0 -30 30v95q0 30 30 30h57q-3 15 -3 30q0 74 34 131t100.5 88.5t159.5 31.5q66 0 123 -18t101 -52q18 -13 18 -25q0 -8 -8 -21l-66 -101q-8 -13 -20 -13q-9 0 -20 7q-28 16 -54 24.5t-57 8.5q-38 0 -58 -18.5
t-20 -52.5q0 -10 2 -20h162q30 0 30 -30v-95q0 -30 -30 -30h-145q2 -12 2 -24q0 -24 -11 -47.5t-24 -36.5q24 3 35 3q27 0 73 -6q35 -5 60 -5q29 0 55.5 6t46.5 16q11 6 19 6q12 0 19 -16l44 -104q5 -13 5 -19q0 -7 -5 -13t-16 -13q-34 -20 -79 -31.5t-98 -11.5
q-23 0 -50 2.5t-52 5.5q-61 9 -105 9q-78 0 -145 -21q-9 -3 -15 -3t-10 3.5t-9 12.5l-50 109q-4 12 -4 15z" />
    <glyph glyph-name="currency" unicode="&#xa4;" 
d="M21 132q0 11 10 21l88 88q-24 50 -24 109q0 60 24 109l-88 88q-10 10 -10 21t10 21l85 85q11 11 21 11t21 -11l88 -88q53 24 109 24t109 -24l88 88q11 11 21 11t21 -11l85 -85q11 -11 11 -21t-11 -21l-88 -88q24 -53 24 -109t-24 -109l88 -88q11 -11 11 -21t-11 -21
l-85 -85q-10 -10 -21 -10t-21 10l-88 88q-49 -24 -109 -24q-59 0 -109 24l-88 -88q-10 -10 -21 -10t-21 10l-85 85q-10 10 -10 21zM395 281q18 11 29 29t11 40t-11 40t-29 29t-40 11t-40 -11t-29 -29t-11 -40t11 -40t29 -29t40 -11t40 11z" />
    <glyph glyph-name="yen" unicode="&#xa5;" 
d="M130 206h102q8 0 8 8v21q0 8 -8 8h-102q-30 0 -30 30v60q0 30 30 30h102q8 0 8 8v11l-241 285q-8 9 -8 18q0 7 6.5 11t16.5 4h202q19 0 29 -5t22 -22l92 -126l91 126q12 17 22 22t29 5h195q10 0 16.5 -4t6.5 -11q0 -9 -8 -18l-236 -285v-11q0 -8 8 -8h102q30 0 30 -30
v-60q0 -30 -30 -30h-102q-8 0 -8 -8v-21q0 -8 8 -8h102q30 0 30 -30v-60q0 -30 -30 -30h-102q-8 0 -8 -8v-48q0 -30 -30 -30h-175q-30 0 -30 30v48q0 8 -8 8h-102q-30 0 -30 30v60q0 30 30 30z" />
    <glyph glyph-name="brokenbar" unicode="&#xa6;" horiz-adv-x="308" 
d="M94 800h120q30 0 30 -30v-340q0 -30 -30 -30h-120q-30 0 -30 30v340q0 30 30 30zM94 270h120q30 0 30 -30v-340q0 -30 -30 -30h-120q-30 0 -30 30v340q0 30 30 30z" />
    <glyph glyph-name="section" unicode="&#xa7;" horiz-adv-x="688" 
d="M93 -10q5 4 11 4q8 0 22 -8q75 -46 153 -46q68 0 68 31q0 11 -9.5 18t-30 13.5t-62.5 16.5q-111 26 -165.5 74.5t-54.5 131.5q0 52 26.5 96t73.5 73q-28 38 -28 90q0 74 36.5 126t98.5 78.5t139 26.5q73 0 134 -19.5t114 -56.5q16 -10 16 -22q0 -7 -8 -20l-68 -102
q-6 -9 -11 -12.5t-11 -3.5q-7 0 -23 8q-68 38 -133 38q-24 0 -36.5 -7.5t-12.5 -21.5q0 -11 9.5 -19t30 -14.5t60.5 -15.5q74 -17 122.5 -42t74 -64.5t25.5 -96.5q0 -52 -28.5 -95t-73.5 -71q30 -39 30 -93q0 -69 -35 -122t-101.5 -83t-156.5 -30q-81 0 -146 20t-121 58
q-16 10 -16 24q0 9 8 22l69 104q5 8 10 12zM419 215q0 15 -7.5 25t-26 18t-51.5 16t-47 13q-27 -13 -27 -40q0 -14 8 -23.5t26.5 -17t52.5 -15.5q32 -7 51 -14q21 14 21 38z" />
    <glyph glyph-name="dieresis" unicode="&#xa8;" horiz-adv-x="500" 
d="M49 889q12 21 33.5 33t49.5 12t49.5 -12t33.5 -33t12 -47t-12 -47t-33.5 -33t-49.5 -12t-49.5 12t-33.5 33t-12 47t12 47zM285 889q12 21 33.5 33t49.5 12t49.5 -12t33.5 -33t12 -47t-12 -47t-33.5 -33t-49.5 -12t-49.5 12t-33.5 33t-12 47t12 47z" />
    <glyph glyph-name="copyright" unicode="&#xa9;" horiz-adv-x="610" 
d="M67 578q37 63 100 100t138 37t138 -37t100 -100t37 -138t-37 -138t-100 -100t-138 -37t-138 37t-100 100t-37 138t37 138zM126.5 336q27.5 -47 74.5 -74.5t104 -27.5t104 27.5t74.5 74.5t27.5 104t-27.5 104t-74.5 74.5t-104 27.5t-104 -27.5t-74.5 -74.5t-27.5 -104
t27.5 -104zM435 346q0 -6 -8 -14q-48 -41 -112 -41q-44 0 -79.5 19t-55 52.5t-19.5 75.5q0 43 20 77.5t55.5 54t80.5 19.5q64 0 112 -39q4 -3 6 -6t2 -7q0 -5 -4 -10l-33 -47q-4 -7 -11 -7q-5 0 -9 4q-13 9 -26 14t-30 5q-26 0 -42 -15.5t-16 -40.5q0 -24 15.5 -40t40.5 -16
q31 0 58 20q7 5 11 5q6 0 10 -7l30 -45q4 -5 4 -11z" />
    <glyph glyph-name="ordfeminine" unicode="&#xaa;" horiz-adv-x="481" 
d="M160 282q-40 0 -70.5 16.5t-47.5 47t-17 71.5q0 43 27 75t81 49.5t131 17.5h18v4q0 18 -15 28t-45 10q-56 0 -107 -32q-9 -6 -14 -6q-6 0 -14 11l-35 53q-3 5 -5 9.5t-2 7.5q0 9 15 19q77 52 177 52q95 0 144.5 -38.5t49.5 -111.5v-254q0 -10 -4.5 -15t-15.5 -5h-103
q-10 0 -15 5t-5 15v18q-50 -47 -128 -47zM280 468.5q-2 2.5 -9 2.5h-6q-47 0 -68 -13t-21 -34q0 -18 11.5 -27.5t30.5 -9.5q28 0 51 13q8 4 10.5 8.5t2.5 13.5v38q0 6 -2 8.5z" />
    <glyph glyph-name="guillemotleft" unicode="&#xab;" horiz-adv-x="609" 
d="M35 278q-5 12 -5 32v80q0 19 5 31t19 27l157 162q11 11 21 11q12 0 19 -15l44 -92q6 -12 6 -22q0 -14 -15 -29l-113 -113l113 -113q15 -15 15 -29q0 -10 -6 -22l-44 -92q-7 -15 -19 -15q-10 0 -21 11l-157 162q-14 14 -19 26zM302 278q-5 12 -5 32v80q0 19 5 31t19 27
l157 162q11 11 21 11q12 0 19 -15l44 -92q6 -12 6 -22q0 -14 -15 -29l-113 -113l113 -113q15 -15 15 -29q0 -10 -6 -22l-44 -92q-7 -15 -19 -15q-10 0 -21 11l-157 162q-14 14 -19 26z" />
    <glyph glyph-name="logicalnot" unicode="&#xac;" 
d="M97 500h493q30 0 30 -30v-338q0 -30 -30 -30h-120q-30 0 -30 30v170q0 11 -3.5 14.5t-14.5 3.5h-325q-30 0 -30 30v120q0 30 30 30z" />
    <glyph glyph-name="uni00AD" unicode="&#xad;" horiz-adv-x="500" 
d="M420 253h-340q-30 0 -30 30v115q0 30 30 30h340q30 0 30 -30v-115q0 -30 -30 -30z" />
    <glyph glyph-name="registered" unicode="&#xae;" horiz-adv-x="610" 
d="M67 578q37 63 100 100t138 37t138 -37t100 -100t37 -138t-37 -138t-100 -100t-138 -37t-138 37t-100 100t-37 138t37 138zM126.5 336q27.5 -47 74.5 -74.5t104 -27.5t104 27.5t74.5 74.5t27.5 104t-27.5 104t-74.5 74.5t-104 27.5t-104 -27.5t-74.5 -74.5t-27.5 -104
t27.5 -104zM175.5 577q3.5 3 10.5 3h118q67 0 103.5 -24.5t36.5 -74.5q0 -27 -13 -47t-35 -32l54 -85q2 -4 2 -7t-3 -5t-7 -2h-84q-8 0 -12.5 2.5t-8.5 10.5l-29 54q-2 4 -4.5 5.5t-7.5 1.5h-14q-7 0 -7 -7v-53q0 -7 -3 -10.5t-11 -3.5h-75q-7 0 -10.5 3.5t-3.5 10.5v249
q0 8 3.5 11zM329.5 454q9.5 7 9.5 21t-10 20.5t-31 6.5h-16q-4 0 -5.5 -2t-1.5 -6v-40q0 -7 7 -7h16q22 0 31.5 7z" />
    <glyph glyph-name="macron" unicode="&#xaf;" horiz-adv-x="500" 
d="M100 924h300q30 0 30 -30v-90q0 -30 -30 -30h-300q-30 0 -30 30v90q0 30 30 30z" />
    <glyph glyph-name="degree" unicode="&#xb0;" horiz-adv-x="514" 
d="M60.5 601.5q30.5 52.5 83 83t113.5 30.5t113.5 -30.5t83 -83t30.5 -113.5t-30.5 -113.5t-83 -83t-113.5 -30.5t-113.5 30.5t-83 83t-30.5 113.5t30.5 113.5zM192 450q10 -17 27 -27t38 -10t38 10t27 27t10 38t-10 38t-27 27t-38 10t-38 -10t-27 -27t-10 -38t10 -38z" />
    <glyph glyph-name="plusminus" unicode="&#xb1;" 
d="M117 552h130q11 0 14.5 4t3.5 14v100q0 30 30 30h120q30 0 30 -30v-100q0 -10 4 -14t14 -4h130q30 0 30 -30v-120q0 -30 -30 -30h-130q-10 0 -14 -3.5t-4 -14.5v-100q0 -30 -30 -30h-120q-30 0 -30 30v100q0 11 -3.5 14.5t-14.5 3.5h-130q-30 0 -30 30v120q0 30 30 30z
M117 180h476q30 0 30 -30v-120q0 -30 -30 -30h-476q-30 0 -30 30v120q0 30 30 30z" />
    <glyph glyph-name="uni00B2" unicode="&#xb2;" horiz-adv-x="440" 
d="M390.5 436q-4.5 -5 -15.5 -5h-333q-8 0 -12.5 3t-4.5 8q0 7 9 17l119 123q38 38 54.5 61t16.5 40q0 19 -13 30t-36 11q-38 0 -78 -28q-6 -5 -13 -5t-11 8l-43 69q-6 9 -6 15q0 9 11 16q72 51 160 51q58 0 99 -19t61.5 -51.5t20.5 -73.5q0 -37 -16.5 -68t-53.5 -66
l-16 -15h85q10 0 15 -5.5t5 -16.5v-84q0 -10 -4.5 -15z" />
    <glyph glyph-name="uni00B3" unicode="&#xb3;" horiz-adv-x="440" 
d="M232.5 556.5q17.5 9.5 17.5 27.5q0 40 -106 40q-13 0 -13 8q0 6 4 11l48 71h-119q-10 0 -15 5t-5 15v86q0 11 5 15.5t15 4.5h322q16 0 16 -11q0 -5 -5 -13l-85 -120q44 -10 67 -39t23 -74q0 -44 -24 -81t-71 -59t-113 -22q-94 0 -163 48q-12 8 -12 16q0 5 5 13l44 71
q7 11 14 11q5 0 13 -5q42 -28 91 -28q29 0 46.5 9.5z" />
    <glyph glyph-name="acute" unicode="&#xb4;" horiz-adv-x="500" 
d="M110 824q0 10 13 20l203 147q19 14 34 14q13 0 33 -14l79 -57q16 -12 16 -23q0 -14 -20 -25l-232 -125q-19 -10 -30 -10q-10 0 -24 9l-58 43q-14 11 -14 21z" />
    <glyph glyph-name="uni00B5" unicode="&#xb5;" horiz-adv-x="640" 
d="M49 505q4 4 13 4h195q9 0 13.5 -4t4.5 -14v-235q0 -36 11 -54.5t34 -18.5q46 0 46 73v235q0 10 4 14t13 4h195q10 0 14 -4t4 -14v-252q0 -84 -32.5 -141t-93 -85t-143.5 -28q-30 0 -52 4v-194q0 -13 -6.5 -19t-19.5 -6h-179q-25 0 -25 25v696q0 10 4 14z" />
    <glyph glyph-name="paragraph" unicode="&#xb6;" horiz-adv-x="665" 
d="M111.5 220.5q-43.5 37.5 -67.5 90t-24 113.5q0 78 37.5 141t104 99t150.5 36h303q30 0 30 -30v-88q0 -30 -30 -30h-35q-10 0 -14 -3.5t-4 -14.5v-664q0 -30 -30 -30h-90q-30 0 -30 30v664q0 11 -3.5 14.5t-14.5 3.5h-82q-43 0 -74 -16.5t-47.5 -45.5t-16.5 -66t16.5 -66
t47.5 -45.5t74 -16.5h19q30 0 30 -30v-396q0 -30 -30 -30h-90q-30 0 -30 30v296q-56 17 -99.5 54.5zM235.5 462.5q10.5 17.5 28 28t38.5 10.5t38.5 -10.5t28 -28t10.5 -38.5t-10.5 -38.5t-28 -28t-38.5 -10.5t-38.5 10.5t-28 28t-10.5 38.5t10.5 38.5z" />
    <glyph glyph-name="periodcentered" unicode="&#xb7;" horiz-adv-x="330" 
d="M56 409q16 26 44.5 40.5t64.5 14.5q37 0 65.5 -14.5t44 -40.5t15.5 -59q0 -32 -15.5 -58t-44 -40.5t-65.5 -14.5q-36 0 -64.5 14.5t-44.5 40.5t-16 58q0 33 16 59z" />
    <glyph glyph-name="cedilla" unicode="&#xb8;" horiz-adv-x="500" 
d="M136 -147.5q3 2.5 7 2.5q6 0 10 -2q31 -12 66 -12q53 0 53 24q0 12 -13.5 18t-40.5 6q-24 0 -49 -5h-5q-8 0 -8 6q0 5 2 8l57 112h98l-30 -57h2q47 0 76 -23.5t29 -64.5q0 -35 -21 -61t-59 -40t-89 -14q-30 0 -58 6.5t-49 16.5q-11 5 -11 13q0 4 3 10l25 49q2 5 5 7.5z
" />
    <glyph glyph-name="uni00B9" unicode="&#xb9;" horiz-adv-x="330" 
d="M244.5 835.5q4.5 -4.5 4.5 -15.5v-369q0 -10 -4.5 -15t-15.5 -5h-109q-10 0 -15 5t-5 15v253q0 7 -2.5 9.5t-9.5 2.5h-43q-10 0 -15 5t-5 15v84q0 11 5 15.5t15 4.5h184q11 0 15.5 -4.5z" />
    <glyph glyph-name="ordmasculine" unicode="&#xba;" horiz-adv-x="481" 
d="M125 308q-48 26 -74 74t-26 113q0 68 26.5 117.5t75.5 76t116 26.5q65 0 113 -26t74 -74t26 -113q0 -68 -26.5 -117.5t-75.5 -76t-116 -26.5q-65 0 -113 26zM287 432.5q17 24.5 17 66.5t-16.5 66t-46.5 24t-47 -24.5t-17 -66.5t16.5 -66t46.5 -24t47 24.5z" />
    <glyph glyph-name="guillemotright" unicode="&#xbb;" horiz-adv-x="609" 
d="M41 208q0 14 15 29l113 113l-113 113q-15 15 -15 29q0 10 6 22l44 92q8 15 19 15q10 0 21 -11l157 -162q14 -15 19 -27t5 -31v-80q0 -20 -5 -32t-19 -26l-157 -162q-11 -11 -21 -11q-11 0 -19 15l-44 92q-6 12 -6 22zM308 208q0 14 15 29l113 113l-113 113q-15 15 -15 29
q0 10 6 22l44 92q8 15 19 15q10 0 21 -11l157 -162q14 -15 19 -27t5 -31v-80q0 -20 -5 -32t-19 -26l-157 -162q-11 -11 -21 -11q-11 0 -19 15l-44 92q-6 12 -6 22z" />
    <glyph glyph-name="onequarter" unicode="&#xbc;" horiz-adv-x="865" 
d="M244.5 695.5q4.5 -4.5 4.5 -15.5v-369q0 -10 -4.5 -15t-15.5 -5h-109q-10 0 -15 5t-5 15v253q0 7 -2.5 9.5t-9.5 2.5h-43q-10 0 -15 5t-5 15v84q0 11 5 15.5t15 4.5h184q11 0 15.5 -4.5zM820 174q11 0 15.5 -4.5t4.5 -15.5v-70q0 -10 -4.5 -15t-15.5 -5h-38v-44
q0 -10 -4.5 -15t-15.5 -5h-109q-10 0 -15 5t-5 15v44h-152q-28 0 -42 13t-14 32q0 12 5 22t17 23l213 228q22 23 37.5 32.5t32.5 9.5q23 0 37.5 -14t14.5 -39v-197h38zM638 245l-63 -71h63v71zM562.5 711q6.5 4 20.5 4h118q9 0 14 -4.5t5 -10.5q0 -7 -9 -21l-435 -673
q-8 -13 -14.5 -17t-20.5 -4h-118q-9 0 -14 4.5t-5 10.5q0 7 9 21l435 673q8 13 14.5 17z" />
    <glyph glyph-name="onehalf" unicode="&#xbd;" horiz-adv-x="940" 
d="M244.5 695.5q4.5 -4.5 4.5 -15.5v-369q0 -10 -4.5 -15t-15.5 -5h-109q-10 0 -15 5t-5 15v253q0 7 -2.5 9.5t-9.5 2.5h-43q-10 0 -15 5t-5 15v84q0 11 5 15.5t15 4.5h184q11 0 15.5 -4.5zM910.5 5q-4.5 -5 -15.5 -5h-333q-8 0 -12.5 3t-4.5 8q0 7 9 17l119 123
q38 38 54.5 61t16.5 40q0 19 -13 30t-36 11q-38 0 -78 -28q-6 -5 -13 -5t-11 8l-43 69q-6 9 -6 15q0 9 11 16q72 51 160 51q58 0 99 -19t61.5 -51.5t20.5 -73.5q0 -37 -16.5 -68t-53.5 -66l-16 -15h85q10 0 15 -5.5t5 -16.5v-84q0 -10 -4.5 -15zM562.5 711q6.5 4 20.5 4h118
q9 0 14 -4.5t5 -10.5q0 -7 -9 -21l-435 -673q-8 -13 -14.5 -17t-20.5 -4h-118q-9 0 -14 4.5t-5 10.5q0 7 9 21l435 673q8 13 14.5 17z" />
    <glyph glyph-name="threequarters" unicode="&#xbe;" horiz-adv-x="960" 
d="M232.5 416.5q17.5 9.5 17.5 27.5q0 40 -106 40q-13 0 -13 8q0 6 4 11l48 71h-119q-10 0 -15 5t-5 15v86q0 11 5 15.5t15 4.5h322q16 0 16 -11q0 -5 -5 -13l-85 -120q44 -10 67 -39t23 -74q0 -44 -24 -81t-71 -59t-113 -22q-94 0 -163 48q-12 8 -12 16q0 5 5 13l44 71
q7 11 14 11q5 0 13 -5q42 -28 91 -28q29 0 46.5 9.5zM915 174q11 0 15.5 -4.5t4.5 -15.5v-70q0 -10 -4.5 -15t-15.5 -5h-38v-44q0 -10 -4.5 -15t-15.5 -5h-109q-10 0 -15 5t-5 15v44h-152q-28 0 -42 13t-14 32q0 12 5 22t17 23l213 228q22 23 37.5 32.5t32.5 9.5
q23 0 37.5 -14t14.5 -39v-197h38zM733 245l-63 -71h63v71zM657.5 711q6.5 4 20.5 4h118q9 0 14 -4.5t5 -10.5q0 -7 -9 -21l-435 -673q-8 -13 -14.5 -17t-20.5 -4h-118q-9 0 -14 4.5t-5 10.5q0 7 9 21l435 673q8 13 14.5 17z" />
    <glyph glyph-name="questiondown" unicode="&#xbf;" horiz-adv-x="622" 
d="M250 689q34 26 91 26q56 0 90.5 -26t34.5 -72q0 -47 -34 -73.5t-91 -26.5t-91 26.5t-34 73.5q0 46 34 72zM228 483q7 7 22 7h177q15 0 22 -7t7 -22v-16q0 -37 -8 -62.5t-29 -46t-60 -40.5q-35 -18 -54 -30t-28.5 -23t-9.5 -24q0 -41 73 -41q40 0 74.5 11t68.5 32
q13 8 20 8q10 0 20 -14l69 -102q10 -15 10 -25q0 -7 -4.5 -13t-15.5 -14q-55 -37 -121.5 -59t-143.5 -22q-89 0 -154 27t-99 75.5t-34 112.5q0 41 13 73t43 59.5t80 53.5q32 17 43.5 33t11.5 40v7q0 15 7 22z" />
    <glyph glyph-name="Agrave" unicode="&#xc0;" horiz-adv-x="776" 
d="M243 33q-10 -20 -20 -26.5t-30 -6.5h-173q-24 0 -24 15q0 9 5 18l335 635q15 29 26 40.5t26 11.5q14 0 25 -11.5t27 -40.5l335 -635q5 -9 5 -18q0 -15 -24 -15h-180q-20 0 -30 6.5t-20 26.5l-142 285zM278 1005q15 0 34 -14l203 -147q13 -10 13 -20t-14 -21l-58 -43
q-12 -9 -24 -9q-11 0 -30 10l-232 125q-20 11 -20 25q0 11 16 23l79 57q20 14 33 14z" />
    <glyph glyph-name="Aacute" unicode="&#xc1;" horiz-adv-x="776" 
d="M243 33q-10 -20 -20 -26.5t-30 -6.5h-173q-24 0 -24 15q0 9 5 18l335 635q15 29 26 40.5t26 11.5q14 0 25 -11.5t27 -40.5l335 -635q5 -9 5 -18q0 -15 -24 -15h-180q-20 0 -30 6.5t-20 26.5l-142 285zM248 824q0 10 13 20l203 147q19 14 34 14q13 0 33 -14l79 -57
q16 -12 16 -23q0 -14 -20 -25l-232 -125q-19 -10 -30 -10q-10 0 -24 9l-58 43q-14 11 -14 21z" />
    <glyph glyph-name="Acircumflex" unicode="&#xc2;" horiz-adv-x="776" 
d="M243 33q-10 -20 -20 -26.5t-30 -6.5h-173q-24 0 -24 15q0 9 5 18l335 635q15 29 26 40.5t26 11.5q14 0 25 -11.5t27 -40.5l335 -635q5 -9 5 -18q0 -15 -24 -15h-180q-20 0 -30 6.5t-20 26.5l-142 285zM316.5 974.5q9.5 3.5 29.5 3.5h84q20 0 29.5 -3.5t23.5 -16.5
l140 -123q12 -10 12 -19q0 -10 -16 -18l-78 -41q-16 -7 -23 -7q-15 0 -31 16l-99 90l-99 -90q-16 -16 -31 -16q-7 0 -23 7l-78 41q-16 8 -16 18q0 9 12 19l140 123q14 13 23.5 16.5z" />
    <glyph glyph-name="Atilde" unicode="&#xc3;" horiz-adv-x="776" 
d="M243 33q-10 -20 -20 -26.5t-30 -6.5h-173q-24 0 -24 15q0 9 5 18l335 635q15 29 26 40.5t26 11.5q14 0 25 -11.5t27 -40.5l335 -635q5 -9 5 -18q0 -15 -24 -15h-180q-20 0 -30 6.5t-20 26.5l-142 285zM153 858q0 9 10 20q25 28 60.5 45t79.5 17q28 0 50.5 -6t49.5 -16
q21 -8 35 -11.5t28 -3.5q20 0 35 7t32 22q10 8 17 8q8 0 16 -11l45 -68q6 -9 6 -16q0 -9 -10 -20q-25 -28 -60.5 -45t-79.5 -17q-28 0 -50.5 6t-49.5 16q-21 8 -35 11.5t-28 3.5q-20 0 -35 -7t-32 -22q-10 -8 -17 -8q-8 0 -16 11l-45 68q-6 9 -6 16z" />
    <glyph glyph-name="Adieresis" unicode="&#xc4;" horiz-adv-x="776" 
d="M243 33q-10 -20 -20 -26.5t-30 -6.5h-173q-24 0 -24 15q0 9 5 18l335 635q15 29 26 40.5t26 11.5q14 0 25 -11.5t27 -40.5l335 -635q5 -9 5 -18q0 -15 -24 -15h-180q-20 0 -30 6.5t-20 26.5l-142 285zM187 889q12 21 33.5 33t49.5 12t49.5 -12t33.5 -33t12 -47t-12 -47
t-33.5 -33t-49.5 -12t-49.5 12t-33.5 33t-12 47t12 47zM423 889q12 21 33.5 33t49.5 12t49.5 -12t33.5 -33t12 -47t-12 -47t-33.5 -33t-49.5 -12t-49.5 12t-33.5 33t-12 47t12 47z" />
    <glyph glyph-name="Aring" unicode="&#xc5;" horiz-adv-x="776" 
d="M225.5 889q25.5 43 68.5 68.5t94 25.5t94 -25.5t68.5 -68.5t25.5 -94q0 -57 -31 -103.5t-81 -68.5l311 -590q5 -9 5 -18q0 -15 -24 -15h-180q-20 0 -30 6.5t-20 26.5l-142 285l-141 -285q-10 -20 -20 -26.5t-30 -6.5h-173q-24 0 -24 15q0 9 5 18l311 590q-50 22 -81 68.5
t-31 103.5q0 51 25.5 94zM356 763q13 -13 32 -13t32 13t13 32t-13 32t-32 13t-32 -13t-13 -32t13 -32z" />
    <glyph glyph-name="AE" unicode="&#xc6;" horiz-adv-x="1080" 
d="M385.5 694q9.5 6 28.5 6h600q30 0 30 -30v-120q0 -30 -30 -30h-224q-10 0 -14 -3.5t-4 -14.5v-46q0 -10 4 -14t14 -4h191q30 0 30 -30v-115q0 -30 -30 -30h-191q-10 0 -14 -3.5t-4 -14.5v-47q0 -10 4 -14t14 -4h225q30 0 30 -30v-120q0 -30 -30 -30h-448q-30 0 -30 30
v132q0 11 -3.5 14.5t-14.5 3.5h-182q-11 0 -15.5 -2.5t-9.5 -11.5l-76 -137q-10 -17 -20 -23t-29 -6h-183q-10 0 -14.5 4.5t-4.5 10.5q0 7 8 20l372 636q11 17 20.5 23zM533.5 359q3.5 4 3.5 14v163q0 6 -2 9t-5 3q-6 0 -11 -9l-93 -166q-3 -6 -3 -10t3 -6t10 -2h83
q11 0 14.5 4z" />
    <glyph glyph-name="Ccedilla" unicode="&#xc7;" horiz-adv-x="720" 
d="M254 -147.5q3 2.5 7 2.5q6 0 10 -2q31 -12 66 -12q53 0 53 24q0 12 -13.5 18t-40.5 6q-24 0 -49 -5h-5q-8 0 -8 6q0 5 2 8l49 96q-89 18 -155.5 67.5t-103 123t-36.5 160.5q0 106 50 190.5t140 132t204 47.5q76 0 142 -25t120 -71q7 -6 10 -11t3 -11q0 -9 -7 -19
l-83 -117q-10 -15 -23 -15q-8 0 -21 8q-34 23 -68 36t-73 13q-45 0 -80.5 -19t-55 -54t-19.5 -81q0 -45 19.5 -79.5t55 -53.5t80.5 -19q41 0 75 13t67 37q13 10 22 10q11 0 21 -15l81 -116q8 -11 8 -20q0 -6 -4.5 -12.5t-14.5 -14.5q-55 -44 -122 -69t-139 -25l-17 -32h2
q47 0 76 -23.5t29 -64.5q0 -35 -20.5 -61t-58 -40t-86.5 -14q-33 0 -61.5 6.5t-49.5 16.5q-11 5 -11 13q0 4 3 10l25 49q2 5 5 7.5z" />
    <glyph glyph-name="Egrave" unicode="&#xc8;" horiz-adv-x="598" 
d="M85 700h447q30 0 30 -30v-120q0 -30 -30 -30h-224q-10 0 -14 -3.5t-4 -14.5v-46q0 -10 4 -14t14 -4h191q30 0 30 -30v-115q0 -30 -30 -30h-191q-10 0 -14 -3.5t-4 -14.5v-47q0 -10 4 -14t14 -4h225q30 0 30 -30v-120q0 -30 -30 -30h-448q-30 0 -30 30v640q0 30 30 30z
M205 1005q15 0 34 -14l203 -147q13 -10 13 -20t-14 -21l-58 -43q-12 -9 -24 -9q-11 0 -30 10l-232 125q-20 11 -20 25q0 11 16 23l79 57q20 14 33 14z" />
    <glyph glyph-name="Eacute" unicode="&#xc9;" horiz-adv-x="598" 
d="M85 700h447q30 0 30 -30v-120q0 -30 -30 -30h-224q-10 0 -14 -3.5t-4 -14.5v-46q0 -10 4 -14t14 -4h191q30 0 30 -30v-115q0 -30 -30 -30h-191q-10 0 -14 -3.5t-4 -14.5v-47q0 -10 4 -14t14 -4h225q30 0 30 -30v-120q0 -30 -30 -30h-448q-30 0 -30 30v640q0 30 30 30z
M175 824q0 10 13 20l203 147q19 14 34 14q13 0 33 -14l79 -57q16 -12 16 -23q0 -14 -20 -25l-232 -125q-19 -10 -30 -10q-10 0 -24 9l-58 43q-14 11 -14 21z" />
    <glyph glyph-name="Ecircumflex" unicode="&#xca;" horiz-adv-x="598" 
d="M85 700h447q30 0 30 -30v-120q0 -30 -30 -30h-224q-10 0 -14 -3.5t-4 -14.5v-46q0 -10 4 -14t14 -4h191q30 0 30 -30v-115q0 -30 -30 -30h-191q-10 0 -14 -3.5t-4 -14.5v-47q0 -10 4 -14t14 -4h225q30 0 30 -30v-120q0 -30 -30 -30h-448q-30 0 -30 30v640q0 30 30 30z
M243.5 974.5q9.5 3.5 29.5 3.5h84q20 0 29.5 -3.5t23.5 -16.5l140 -123q12 -10 12 -19q0 -10 -16 -18l-78 -41q-16 -7 -23 -7q-15 0 -31 16l-99 90l-99 -90q-16 -16 -31 -16q-7 0 -23 7l-78 41q-16 8 -16 18q0 9 12 19l140 123q14 13 23.5 16.5z" />
    <glyph glyph-name="Edieresis" unicode="&#xcb;" horiz-adv-x="598" 
d="M85 700h447q30 0 30 -30v-120q0 -30 -30 -30h-224q-10 0 -14 -3.5t-4 -14.5v-46q0 -10 4 -14t14 -4h191q30 0 30 -30v-115q0 -30 -30 -30h-191q-10 0 -14 -3.5t-4 -14.5v-47q0 -10 4 -14t14 -4h225q30 0 30 -30v-120q0 -30 -30 -30h-448q-30 0 -30 30v640q0 30 30 30z
M114 889q12 21 33.5 33t49.5 12t49.5 -12t33.5 -33t12 -47t-12 -47t-33.5 -33t-49.5 -12t-49.5 12t-33.5 33t-12 47t12 47zM350 889q12 21 33.5 33t49.5 12t49.5 -12t33.5 -33t12 -47t-12 -47t-33.5 -33t-49.5 -12t-49.5 12t-33.5 33t-12 47t12 47z" />
    <glyph glyph-name="Igrave" unicode="&#xcc;" horiz-adv-x="345" 
d="M85 700h175q30 0 30 -30v-640q0 -30 -30 -30h-175q-30 0 -30 30v640q0 30 30 30zM81 1005q15 0 34 -14l203 -147q13 -10 13 -20t-14 -21l-58 -43q-12 -9 -24 -9q-11 0 -30 10l-232 125q-20 11 -20 25q0 11 16 23l79 57q20 14 33 14z" />
    <glyph glyph-name="Iacute" unicode="&#xcd;" horiz-adv-x="345" 
d="M85 700h175q30 0 30 -30v-640q0 -30 -30 -30h-175q-30 0 -30 30v640q0 30 30 30zM30 824q0 10 13 20l203 147q19 14 34 14q13 0 33 -14l79 -57q16 -12 16 -23q0 -14 -20 -25l-232 -125q-19 -10 -30 -10q-10 0 -24 9l-58 43q-14 11 -14 21z" />
    <glyph glyph-name="Icircumflex" unicode="&#xce;" horiz-adv-x="345" 
d="M85 700h175q30 0 30 -30v-640q0 -30 -30 -30h-175q-30 0 -30 30v640q0 30 30 30zM100.5 974.5q9.5 3.5 29.5 3.5h84q20 0 29.5 -3.5t23.5 -16.5l140 -123q12 -10 12 -19q0 -10 -16 -18l-78 -41q-16 -7 -23 -7q-15 0 -31 16l-99 90l-99 -90q-16 -16 -31 -16q-7 0 -23 7
l-78 41q-16 8 -16 18q0 9 12 19l140 123q14 13 23.5 16.5z" />
    <glyph glyph-name="Idieresis" unicode="&#xcf;" horiz-adv-x="345" 
d="M85 700h175q30 0 30 -30v-640q0 -30 -30 -30h-175q-30 0 -30 30v640q0 30 30 30zM-29 889q12 21 33.5 33t49.5 12t49.5 -12t33.5 -33t12 -47t-12 -47t-33.5 -33t-49.5 -12t-49.5 12t-33.5 33t-12 47t12 47zM207 889q12 21 33.5 33t49.5 12t49.5 -12t33.5 -33t12 -47
t-12 -47t-33.5 -33t-49.5 -12t-49.5 12t-33.5 33t-12 47t12 47z" />
    <glyph glyph-name="Eth" unicode="&#xd0;" horiz-adv-x="810" 
d="M70.5 262.5q-3.5 3.5 -14.5 3.5h-25q-30 0 -30 30v108q0 30 30 30h25q11 0 14.5 4t3.5 14v218q0 30 30 30h285q125 0 213 -42t133 -119t45 -181q0 -109 -48 -189.5t-140.5 -124.5t-222.5 -44h-265q-30 0 -30 30v218q0 11 -3.5 14.5zM497.5 240q43.5 40 43.5 112
q0 69 -43 108.5t-125 39.5h-46q-10 0 -14 -3.5t-4 -14.5v-30q0 -10 4 -14t14 -4h68q30 0 30 -30v-108q0 -30 -30 -30h-68q-10 0 -14 -3.5t-4 -14.5v-30q0 -10 4 -14t14 -4h42q85 0 128.5 40z" />
    <glyph glyph-name="Ntilde" unicode="&#xd1;" horiz-adv-x="782" 
d="M85 715q11 0 24 -7.5t39 -28.5l344 -268v259q0 30 30 30h175q30 0 30 -30v-641q0 -44 -30 -44q-11 0 -24 7.5t-39 28.5l-344 268v-259q0 -30 -30 -30h-175q-30 0 -30 30v641q0 44 30 44zM159 858q0 9 10 20q25 28 60.5 45t79.5 17q28 0 50.5 -6t49.5 -16q21 -8 35 -11.5
t28 -3.5q20 0 35 7t32 22q10 8 17 8q8 0 16 -11l45 -68q6 -9 6 -16q0 -9 -10 -20q-25 -28 -60.5 -45t-79.5 -17q-28 0 -50.5 6t-49.5 16q-21 8 -35 11.5t-28 3.5q-20 0 -35 -7t-32 -22q-10 -8 -17 -8q-8 0 -16 11l-45 68q-6 9 -6 16z" />
    <glyph glyph-name="Ograve" unicode="&#xd2;" horiz-adv-x="830" 
d="M79 539.5q49 83.5 136.5 129.5t198.5 46q112 0 200 -46t137 -129.5t49 -190.5t-49 -189.5t-137 -128.5t-200 -46t-199 46t-136 128.5t-49 189.5t49 190.5zM489.5 215q33.5 18 52.5 52.5t19 81.5t-19 82t-52.5 53.5t-75.5 18.5t-75 -18.5t-51.5 -53.5t-18.5 -82
t18.5 -81.5t51.5 -52.5t75 -18t75.5 18zM305 1005q15 0 34 -14l203 -147q13 -10 13 -20t-14 -21l-58 -43q-12 -9 -24 -9q-11 0 -30 10l-232 125q-20 11 -20 25q0 11 16 23l79 57q20 14 33 14z" />
    <glyph glyph-name="Oacute" unicode="&#xd3;" horiz-adv-x="830" 
d="M79 539.5q49 83.5 136.5 129.5t198.5 46q112 0 200 -46t137 -129.5t49 -190.5t-49 -189.5t-137 -128.5t-200 -46t-199 46t-136 128.5t-49 189.5t49 190.5zM489.5 215q33.5 18 52.5 52.5t19 81.5t-19 82t-52.5 53.5t-75.5 18.5t-75 -18.5t-51.5 -53.5t-18.5 -82
t18.5 -81.5t51.5 -52.5t75 -18t75.5 18zM275 824q0 10 13 20l203 147q19 14 34 14q13 0 33 -14l79 -57q16 -12 16 -23q0 -14 -20 -25l-232 -125q-19 -10 -30 -10q-10 0 -24 9l-58 43q-14 11 -14 21z" />
    <glyph glyph-name="Ocircumflex" unicode="&#xd4;" horiz-adv-x="830" 
d="M79 539.5q49 83.5 136.5 129.5t198.5 46q112 0 200 -46t137 -129.5t49 -190.5t-49 -189.5t-137 -128.5t-200 -46t-199 46t-136 128.5t-49 189.5t49 190.5zM489.5 215q33.5 18 52.5 52.5t19 81.5t-19 82t-52.5 53.5t-75.5 18.5t-75 -18.5t-51.5 -53.5t-18.5 -82
t18.5 -81.5t51.5 -52.5t75 -18t75.5 18zM343.5 974.5q9.5 3.5 29.5 3.5h84q20 0 29.5 -3.5t23.5 -16.5l140 -123q12 -10 12 -19q0 -10 -16 -18l-78 -41q-16 -7 -23 -7q-15 0 -31 16l-99 90l-99 -90q-16 -16 -31 -16q-7 0 -23 7l-78 41q-16 8 -16 18q0 9 12 19l140 123
q14 13 23.5 16.5z" />
    <glyph glyph-name="Otilde" unicode="&#xd5;" horiz-adv-x="830" 
d="M79 539.5q49 83.5 136.5 129.5t198.5 46q112 0 200 -46t137 -129.5t49 -190.5t-49 -189.5t-137 -128.5t-200 -46t-199 46t-136 128.5t-49 189.5t49 190.5zM489.5 215q33.5 18 52.5 52.5t19 81.5t-19 82t-52.5 53.5t-75.5 18.5t-75 -18.5t-51.5 -53.5t-18.5 -82
t18.5 -81.5t51.5 -52.5t75 -18t75.5 18zM183 858q0 9 10 20q25 28 60.5 45t79.5 17q28 0 50.5 -6t49.5 -16q21 -8 35 -11.5t28 -3.5q20 0 35 7t32 22q10 8 17 8q8 0 16 -11l45 -68q6 -9 6 -16q0 -9 -10 -20q-25 -28 -60.5 -45t-79.5 -17q-28 0 -50.5 6t-49.5 16
q-21 8 -35 11.5t-28 3.5q-20 0 -35 -7t-32 -22q-10 -8 -17 -8q-8 0 -16 11l-45 68q-6 9 -6 16z" />
    <glyph glyph-name="Odieresis" unicode="&#xd6;" horiz-adv-x="830" 
d="M79 539.5q49 83.5 136.5 129.5t198.5 46q112 0 200 -46t137 -129.5t49 -190.5t-49 -189.5t-137 -128.5t-200 -46t-199 46t-136 128.5t-49 189.5t49 190.5zM489.5 215q33.5 18 52.5 52.5t19 81.5t-19 82t-52.5 53.5t-75.5 18.5t-75 -18.5t-51.5 -53.5t-18.5 -82
t18.5 -81.5t51.5 -52.5t75 -18t75.5 18zM214 889q12 21 33.5 33t49.5 12t49.5 -12t33.5 -33t12 -47t-12 -47t-33.5 -33t-49.5 -12t-49.5 12t-33.5 33t-12 47t12 47zM450 889q12 21 33.5 33t49.5 12t49.5 -12t33.5 -33t12 -47t-12 -47t-33.5 -33t-49.5 -12t-49.5 12t-33.5 33
t-12 47t12 47z" />
    <glyph glyph-name="multiply" unicode="&#xd7;" 
d="M79 160q0 11 10 21l126 126q8 8 8 13t-8 13l-126 126q-10 10 -10 21t10 21l85 85q11 11 21 11t21 -11l126 -126q7 -7 13 -7t13 7l126 126q11 11 21 11t21 -11l85 -85q11 -11 11 -21t-11 -21l-126 -126q-7 -7 -7 -13t7 -13l126 -126q11 -11 11 -21t-11 -21l-85 -85
q-10 -10 -21 -10t-21 10l-126 126q-8 8 -13 8t-13 -8l-126 -126q-10 -10 -21 -10t-21 10l-85 85q-10 10 -10 21z" />
    <glyph glyph-name="Oslash" unicode="&#xd8;" horiz-adv-x="830" 
d="M53 214q-23 62 -23 135q0 107 49 190.5t136.5 129.5t198.5 46q114 0 208 -51l27 30q12 13 20 17t25 4h89q8 0 12.5 -3.5t4.5 -9.5q0 -5 -3.5 -10t-10.5 -13l-76 -84q43 -48 66.5 -110.5t23.5 -135.5q0 -107 -49 -189.5t-137 -128.5t-200 -46q-119 0 -207 50l-26 -29
q-12 -13 -20 -17t-25 -4h-89q-8 0 -12.5 3.5t-4.5 9.5q0 5 3.5 10t10.5 13l75 83q-43 48 -66 110zM414 503q-42 0 -75 -18.5t-51.5 -53.5t-18.5 -82q0 -39 12 -68l190 211q-25 11 -57 11zM414 197q42 0 75.5 18t52.5 52.5t19 81.5q0 38 -14 69l-189 -211q21 -10 56 -10z" />
    <glyph glyph-name="Ugrave" unicode="&#xd9;" horiz-adv-x="780" 
d="M80 700h175q30 0 30 -30v-345q0 -128 105 -128q52 0 78.5 32.5t26.5 95.5v345q0 30 30 30h175q30 0 30 -30v-365q0 -105 -43 -176.5t-120.5 -107.5t-181.5 -36q-101 0 -176 35t-117 106.5t-42 178.5v365q0 30 30 30zM280 1005q15 0 34 -14l203 -147q13 -10 13 -20
t-14 -21l-58 -43q-12 -9 -24 -9q-11 0 -30 10l-232 125q-20 11 -20 25q0 11 16 23l79 57q20 14 33 14z" />
    <glyph glyph-name="Uacute" unicode="&#xda;" horiz-adv-x="780" 
d="M80 700h175q30 0 30 -30v-345q0 -128 105 -128q52 0 78.5 32.5t26.5 95.5v345q0 30 30 30h175q30 0 30 -30v-365q0 -105 -43 -176.5t-120.5 -107.5t-181.5 -36q-101 0 -176 35t-117 106.5t-42 178.5v365q0 30 30 30zM250 824q0 10 13 20l203 147q19 14 34 14q13 0 33 -14
l79 -57q16 -12 16 -23q0 -14 -20 -25l-232 -125q-19 -10 -30 -10q-10 0 -24 9l-58 43q-14 11 -14 21z" />
    <glyph glyph-name="Ucircumflex" unicode="&#xdb;" horiz-adv-x="780" 
d="M80 700h175q30 0 30 -30v-345q0 -128 105 -128q52 0 78.5 32.5t26.5 95.5v345q0 30 30 30h175q30 0 30 -30v-365q0 -105 -43 -176.5t-120.5 -107.5t-181.5 -36q-101 0 -176 35t-117 106.5t-42 178.5v365q0 30 30 30zM318.5 974.5q9.5 3.5 29.5 3.5h84q20 0 29.5 -3.5
t23.5 -16.5l140 -123q12 -10 12 -19q0 -10 -16 -18l-78 -41q-16 -7 -23 -7q-15 0 -31 16l-99 90l-99 -90q-16 -16 -31 -16q-7 0 -23 7l-78 41q-16 8 -16 18q0 9 12 19l140 123q14 13 23.5 16.5z" />
    <glyph glyph-name="Udieresis" unicode="&#xdc;" horiz-adv-x="780" 
d="M80 700h175q30 0 30 -30v-345q0 -128 105 -128q52 0 78.5 32.5t26.5 95.5v345q0 30 30 30h175q30 0 30 -30v-365q0 -105 -43 -176.5t-120.5 -107.5t-181.5 -36q-101 0 -176 35t-117 106.5t-42 178.5v365q0 30 30 30zM189 889q12 21 33.5 33t49.5 12t49.5 -12t33.5 -33
t12 -47t-12 -47t-33.5 -33t-49.5 -12t-49.5 12t-33.5 33t-12 47t12 47zM425 889q12 21 33.5 33t49.5 12t49.5 -12t33.5 -33t12 -47t-12 -47t-33.5 -33t-49.5 -12t-49.5 12t-33.5 33t-12 47t12 47z" />
    <glyph glyph-name="Yacute" unicode="&#xdd;" horiz-adv-x="730" 
d="M2 667q-6 11 -6 18q0 15 22 15h185q21 0 31.5 -6.5t21.5 -26.5l113 -206l112 206q11 20 21.5 26.5t31.5 6.5h178q22 0 22 -15q0 -7 -6 -18l-243 -413v-224q0 -30 -30 -30h-175q-30 0 -30 30v219zM225 824q0 10 13 20l203 147q19 14 34 14q13 0 33 -14l79 -57
q16 -12 16 -23q0 -14 -20 -25l-232 -125q-19 -10 -30 -10q-10 0 -24 9l-58 43q-14 11 -14 21z" />
    <glyph glyph-name="Thorn" unicode="&#xde;" 
d="M85 700h175q30 0 30 -30v-47q0 -10 4 -14t14 -4h47q163 0 245.5 -62t82.5 -190q0 -256 -328 -256h-47q-10 0 -14 -3.5t-4 -14.5v-49q0 -30 -30 -30h-175q-30 0 -30 30v640q0 30 30 30zM418.5 293q28.5 18 28.5 60q0 29 -12.5 45t-37.5 22.5t-66 6.5h-23q-10 0 -14 -3.5
t-4 -14.5v-116q0 -10 4 -14t14 -4h23q59 0 87.5 18z" />
    <glyph glyph-name="germandbls" unicode="&#xdf;" horiz-adv-x="962" 
d="M622.5 454q7.5 -7 25.5 -13t54 -14q78 -17 128 -42.5t76 -65.5t26 -98q0 -71 -36 -124.5t-103.5 -82.5t-160.5 -29q-159 0 -273 81q-16 11 -16 23q0 9 9 22l70 105q7 9 12 13t11 4q7 0 20 -8q35 -22 78 -36t83 -14q34 0 50.5 8.5t16.5 23.5q0 11 -8 18.5t-27.5 13.5
t-60.5 15q-109 24 -162 68t-53 119q0 48 26 83l-16 1q-28 0 -48.5 -11.5t-32.5 -30.5q-21 -33 -21 -120v-333q0 -30 -30 -30h-175q-30 0 -30 30v345q0 75 7 122t24 79t49 59q50 43 124.5 64.5t196.5 21.5q116 0 227 -23t197 -64q14 -7 20.5 -14t6.5 -15q0 -11 -9 -26
l-58 -99q-6 -11 -12 -15.5t-13 -4.5q-9 0 -22 6q-35 17 -69 27t-62 10q-47 0 -47 -31q0 -11 7.5 -18z" />
    <glyph glyph-name="agrave" unicode="&#xe0;" horiz-adv-x="776" 
d="M243 33q-10 -20 -20 -26.5t-30 -6.5h-173q-24 0 -24 15q0 9 5 18l335 635q15 29 26 40.5t26 11.5q14 0 25 -11.5t27 -40.5l335 -635q5 -9 5 -18q0 -15 -24 -15h-180q-20 0 -30 6.5t-20 26.5l-142 285zM278 1005q15 0 34 -14l203 -147q13 -10 13 -20t-14 -21l-58 -43
q-12 -9 -24 -9q-11 0 -30 10l-232 125q-20 11 -20 25q0 11 16 23l79 57q20 14 33 14z" />
    <glyph glyph-name="aacute" unicode="&#xe1;" horiz-adv-x="776" 
d="M243 33q-10 -20 -20 -26.5t-30 -6.5h-173q-24 0 -24 15q0 9 5 18l335 635q15 29 26 40.5t26 11.5q14 0 25 -11.5t27 -40.5l335 -635q5 -9 5 -18q0 -15 -24 -15h-180q-20 0 -30 6.5t-20 26.5l-142 285zM248 824q0 10 13 20l203 147q19 14 34 14q13 0 33 -14l79 -57
q16 -12 16 -23q0 -14 -20 -25l-232 -125q-19 -10 -30 -10q-10 0 -24 9l-58 43q-14 11 -14 21z" />
    <glyph glyph-name="acircumflex" unicode="&#xe2;" horiz-adv-x="776" 
d="M243 33q-10 -20 -20 -26.5t-30 -6.5h-173q-24 0 -24 15q0 9 5 18l335 635q15 29 26 40.5t26 11.5q14 0 25 -11.5t27 -40.5l335 -635q5 -9 5 -18q0 -15 -24 -15h-180q-20 0 -30 6.5t-20 26.5l-142 285zM316.5 974.5q9.5 3.5 29.5 3.5h84q20 0 29.5 -3.5t23.5 -16.5
l140 -123q12 -10 12 -19q0 -10 -16 -18l-78 -41q-16 -7 -23 -7q-15 0 -31 16l-99 90l-99 -90q-16 -16 -31 -16q-7 0 -23 7l-78 41q-16 8 -16 18q0 9 12 19l140 123q14 13 23.5 16.5z" />
    <glyph glyph-name="atilde" unicode="&#xe3;" horiz-adv-x="776" 
d="M243 33q-10 -20 -20 -26.5t-30 -6.5h-173q-24 0 -24 15q0 9 5 18l335 635q15 29 26 40.5t26 11.5q14 0 25 -11.5t27 -40.5l335 -635q5 -9 5 -18q0 -15 -24 -15h-180q-20 0 -30 6.5t-20 26.5l-142 285zM153 858q0 9 10 20q25 28 60.5 45t79.5 17q28 0 50.5 -6t49.5 -16
q21 -8 35 -11.5t28 -3.5q20 0 35 7t32 22q10 8 17 8q8 0 16 -11l45 -68q6 -9 6 -16q0 -9 -10 -20q-25 -28 -60.5 -45t-79.5 -17q-28 0 -50.5 6t-49.5 16q-21 8 -35 11.5t-28 3.5q-20 0 -35 -7t-32 -22q-10 -8 -17 -8q-8 0 -16 11l-45 68q-6 9 -6 16z" />
    <glyph glyph-name="adieresis" unicode="&#xe4;" horiz-adv-x="776" 
d="M243 33q-10 -20 -20 -26.5t-30 -6.5h-173q-24 0 -24 15q0 9 5 18l335 635q15 29 26 40.5t26 11.5q14 0 25 -11.5t27 -40.5l335 -635q5 -9 5 -18q0 -15 -24 -15h-180q-20 0 -30 6.5t-20 26.5l-142 285zM187 889q12 21 33.5 33t49.5 12t49.5 -12t33.5 -33t12 -47t-12 -47
t-33.5 -33t-49.5 -12t-49.5 12t-33.5 33t-12 47t12 47zM423 889q12 21 33.5 33t49.5 12t49.5 -12t33.5 -33t12 -47t-12 -47t-33.5 -33t-49.5 -12t-49.5 12t-33.5 33t-12 47t12 47z" />
    <glyph glyph-name="aring" unicode="&#xe5;" horiz-adv-x="776" 
d="M225.5 889q25.5 43 68.5 68.5t94 25.5t94 -25.5t68.5 -68.5t25.5 -94q0 -57 -31 -103.5t-81 -68.5l311 -590q5 -9 5 -18q0 -15 -24 -15h-180q-20 0 -30 6.5t-20 26.5l-142 285l-141 -285q-10 -20 -20 -26.5t-30 -6.5h-173q-24 0 -24 15q0 9 5 18l311 590q-50 22 -81 68.5
t-31 103.5q0 51 25.5 94zM356 763q13 -13 32 -13t32 13t13 32t-13 32t-32 13t-32 -13t-13 -32t13 -32z" />
    <glyph glyph-name="ae" unicode="&#xe6;" horiz-adv-x="1080" 
d="M385.5 694q9.5 6 28.5 6h600q30 0 30 -30v-120q0 -30 -30 -30h-224q-10 0 -14 -3.5t-4 -14.5v-46q0 -10 4 -14t14 -4h191q30 0 30 -30v-115q0 -30 -30 -30h-191q-10 0 -14 -3.5t-4 -14.5v-47q0 -10 4 -14t14 -4h225q30 0 30 -30v-120q0 -30 -30 -30h-448q-30 0 -30 30
v132q0 11 -3.5 14.5t-14.5 3.5h-182q-11 0 -15.5 -2.5t-9.5 -11.5l-76 -137q-10 -17 -20 -23t-29 -6h-183q-10 0 -14.5 4.5t-4.5 10.5q0 7 8 20l372 636q11 17 20.5 23zM533.5 359q3.5 4 3.5 14v163q0 6 -2 9t-5 3q-6 0 -11 -9l-93 -166q-3 -6 -3 -10t3 -6t10 -2h83
q11 0 14.5 4z" />
    <glyph glyph-name="ccedilla" unicode="&#xe7;" horiz-adv-x="720" 
d="M254 -147.5q3 2.5 7 2.5q6 0 10 -2q31 -12 66 -12q53 0 53 24q0 12 -13.5 18t-40.5 6q-24 0 -49 -5h-5q-8 0 -8 6q0 5 2 8l49 96q-89 18 -155.5 67.5t-103 123t-36.5 160.5q0 106 50 190.5t140 132t204 47.5q76 0 142 -25t120 -71q7 -6 10 -11t3 -11q0 -9 -7 -19
l-83 -117q-10 -15 -23 -15q-8 0 -21 8q-34 23 -68 36t-73 13q-45 0 -80.5 -19t-55 -54t-19.5 -81q0 -45 19.5 -79.5t55 -53.5t80.5 -19q41 0 75 13t67 37q13 10 22 10q11 0 21 -15l81 -116q8 -11 8 -20q0 -6 -4.5 -12.5t-14.5 -14.5q-55 -44 -122 -69t-139 -25l-17 -32h2
q47 0 76 -23.5t29 -64.5q0 -35 -20.5 -61t-58 -40t-86.5 -14q-33 0 -61.5 6.5t-49.5 16.5q-11 5 -11 13q0 4 3 10l25 49q2 5 5 7.5z" />
    <glyph glyph-name="egrave" unicode="&#xe8;" horiz-adv-x="598" 
d="M85 700h447q30 0 30 -30v-120q0 -30 -30 -30h-224q-10 0 -14 -3.5t-4 -14.5v-46q0 -10 4 -14t14 -4h191q30 0 30 -30v-115q0 -30 -30 -30h-191q-10 0 -14 -3.5t-4 -14.5v-47q0 -10 4 -14t14 -4h225q30 0 30 -30v-120q0 -30 -30 -30h-448q-30 0 -30 30v640q0 30 30 30z
M205 1005q15 0 34 -14l203 -147q13 -10 13 -20t-14 -21l-58 -43q-12 -9 -24 -9q-11 0 -30 10l-232 125q-20 11 -20 25q0 11 16 23l79 57q20 14 33 14z" />
    <glyph glyph-name="eacute" unicode="&#xe9;" horiz-adv-x="598" 
d="M85 700h447q30 0 30 -30v-120q0 -30 -30 -30h-224q-10 0 -14 -3.5t-4 -14.5v-46q0 -10 4 -14t14 -4h191q30 0 30 -30v-115q0 -30 -30 -30h-191q-10 0 -14 -3.5t-4 -14.5v-47q0 -10 4 -14t14 -4h225q30 0 30 -30v-120q0 -30 -30 -30h-448q-30 0 -30 30v640q0 30 30 30z
M175 824q0 10 13 20l203 147q19 14 34 14q13 0 33 -14l79 -57q16 -12 16 -23q0 -14 -20 -25l-232 -125q-19 -10 -30 -10q-10 0 -24 9l-58 43q-14 11 -14 21z" />
    <glyph glyph-name="ecircumflex" unicode="&#xea;" horiz-adv-x="598" 
d="M85 700h447q30 0 30 -30v-120q0 -30 -30 -30h-224q-10 0 -14 -3.5t-4 -14.5v-46q0 -10 4 -14t14 -4h191q30 0 30 -30v-115q0 -30 -30 -30h-191q-10 0 -14 -3.5t-4 -14.5v-47q0 -10 4 -14t14 -4h225q30 0 30 -30v-120q0 -30 -30 -30h-448q-30 0 -30 30v640q0 30 30 30z
M243.5 974.5q9.5 3.5 29.5 3.5h84q20 0 29.5 -3.5t23.5 -16.5l140 -123q12 -10 12 -19q0 -10 -16 -18l-78 -41q-16 -7 -23 -7q-15 0 -31 16l-99 90l-99 -90q-16 -16 -31 -16q-7 0 -23 7l-78 41q-16 8 -16 18q0 9 12 19l140 123q14 13 23.5 16.5z" />
    <glyph glyph-name="edieresis" unicode="&#xeb;" horiz-adv-x="598" 
d="M85 700h447q30 0 30 -30v-120q0 -30 -30 -30h-224q-10 0 -14 -3.5t-4 -14.5v-46q0 -10 4 -14t14 -4h191q30 0 30 -30v-115q0 -30 -30 -30h-191q-10 0 -14 -3.5t-4 -14.5v-47q0 -10 4 -14t14 -4h225q30 0 30 -30v-120q0 -30 -30 -30h-448q-30 0 -30 30v640q0 30 30 30z
M114 889q12 21 33.5 33t49.5 12t49.5 -12t33.5 -33t12 -47t-12 -47t-33.5 -33t-49.5 -12t-49.5 12t-33.5 33t-12 47t12 47zM350 889q12 21 33.5 33t49.5 12t49.5 -12t33.5 -33t12 -47t-12 -47t-33.5 -33t-49.5 -12t-49.5 12t-33.5 33t-12 47t12 47z" />
    <glyph glyph-name="igrave" unicode="&#xec;" horiz-adv-x="345" 
d="M85 700h175q30 0 30 -30v-640q0 -30 -30 -30h-175q-30 0 -30 30v640q0 30 30 30zM30 824q0 10 13 20l203 147q19 14 34 14q13 0 33 -14l79 -57q16 -12 16 -23q0 -14 -20 -25l-232 -125q-19 -10 -30 -10q-10 0 -24 9l-58 43q-14 11 -14 21z" />
    <glyph glyph-name="iacute" unicode="&#xed;" horiz-adv-x="345" 
d="M85 700h175q30 0 30 -30v-640q0 -30 -30 -30h-175q-30 0 -30 30v640q0 30 30 30zM100.5 974.5q9.5 3.5 29.5 3.5h84q20 0 29.5 -3.5t23.5 -16.5l140 -123q12 -10 12 -19q0 -10 -16 -18l-78 -41q-16 -7 -23 -7q-15 0 -31 16l-99 90l-99 -90q-16 -16 -31 -16q-7 0 -23 7
l-78 41q-16 8 -16 18q0 9 12 19l140 123q14 13 23.5 16.5z" />
    <glyph glyph-name="icircumflex" unicode="&#xee;" horiz-adv-x="345" 
d="M85 700h175q30 0 30 -30v-640q0 -30 -30 -30h-175q-30 0 -30 30v640q0 30 30 30zM77.5 900.5q13.5 22.5 38 35.5t56.5 13t56.5 -13t38 -35.5t13.5 -51.5q0 -28 -13.5 -50.5t-38.5 -35.5t-56 -13t-56 13t-38.5 35.5t-13.5 50.5q0 29 13.5 51.5z" />
    <glyph glyph-name="idieresis" unicode="&#xef;" horiz-adv-x="345" 
d="M85 700h175q30 0 30 -30v-640q0 -30 -30 -30h-175q-30 0 -30 30v640q0 30 30 30zM-29 889q12 21 33.5 33t49.5 12t49.5 -12t33.5 -33t12 -47t-12 -47t-33.5 -33t-49.5 -12t-49.5 12t-33.5 33t-12 47t12 47zM207 889q12 21 33.5 33t49.5 12t49.5 -12t33.5 -33t12 -47
t-12 -47t-33.5 -33t-49.5 -12t-49.5 12t-33.5 33t-12 47t12 47z" />
    <glyph glyph-name="eth" unicode="&#xf0;" horiz-adv-x="810" 
d="M70.5 262.5q-3.5 3.5 -14.5 3.5h-25q-30 0 -30 30v108q0 30 30 30h25q11 0 14.5 4t3.5 14v218q0 30 30 30h285q125 0 213 -42t133 -119t45 -181q0 -109 -48 -189.5t-140.5 -124.5t-222.5 -44h-265q-30 0 -30 30v218q0 11 -3.5 14.5zM497.5 240q43.5 40 43.5 112
q0 69 -43 108.5t-125 39.5h-46q-10 0 -14 -3.5t-4 -14.5v-30q0 -10 4 -14t14 -4h68q30 0 30 -30v-108q0 -30 -30 -30h-68q-10 0 -14 -3.5t-4 -14.5v-30q0 -10 4 -14t14 -4h42q85 0 128.5 40z" />
    <glyph glyph-name="ntilde" unicode="&#xf1;" horiz-adv-x="782" 
d="M85 715q11 0 24 -7.5t39 -28.5l344 -268v259q0 30 30 30h175q30 0 30 -30v-641q0 -44 -30 -44q-11 0 -24 7.5t-39 28.5l-344 268v-259q0 -30 -30 -30h-175q-30 0 -30 30v641q0 44 30 44zM159 858q0 9 10 20q25 28 60.5 45t79.5 17q28 0 50.5 -6t49.5 -16q21 -8 35 -11.5
t28 -3.5q20 0 35 7t32 22q10 8 17 8q8 0 16 -11l45 -68q6 -9 6 -16q0 -9 -10 -20q-25 -28 -60.5 -45t-79.5 -17q-28 0 -50.5 6t-49.5 16q-21 8 -35 11.5t-28 3.5q-20 0 -35 -7t-32 -22q-10 -8 -17 -8q-8 0 -16 11l-45 68q-6 9 -6 16z" />
    <glyph glyph-name="ograve" unicode="&#xf2;" horiz-adv-x="830" 
d="M79 539.5q49 83.5 136.5 129.5t198.5 46q112 0 200 -46t137 -129.5t49 -190.5t-49 -189.5t-137 -128.5t-200 -46t-199 46t-136 128.5t-49 189.5t49 190.5zM489.5 215q33.5 18 52.5 52.5t19 81.5t-19 82t-52.5 53.5t-75.5 18.5t-75 -18.5t-51.5 -53.5t-18.5 -82
t18.5 -81.5t51.5 -52.5t75 -18t75.5 18zM305 1005q15 0 34 -14l203 -147q13 -10 13 -20t-14 -21l-58 -43q-12 -9 -24 -9q-11 0 -30 10l-232 125q-20 11 -20 25q0 11 16 23l79 57q20 14 33 14z" />
    <glyph glyph-name="oacute" unicode="&#xf3;" horiz-adv-x="830" 
d="M79 539.5q49 83.5 136.5 129.5t198.5 46q112 0 200 -46t137 -129.5t49 -190.5t-49 -189.5t-137 -128.5t-200 -46t-199 46t-136 128.5t-49 189.5t49 190.5zM489.5 215q33.5 18 52.5 52.5t19 81.5t-19 82t-52.5 53.5t-75.5 18.5t-75 -18.5t-51.5 -53.5t-18.5 -82
t18.5 -81.5t51.5 -52.5t75 -18t75.5 18zM275 824q0 10 13 20l203 147q19 14 34 14q13 0 33 -14l79 -57q16 -12 16 -23q0 -14 -20 -25l-232 -125q-19 -10 -30 -10q-10 0 -24 9l-58 43q-14 11 -14 21z" />
    <glyph glyph-name="ocircumflex" unicode="&#xf4;" horiz-adv-x="830" 
d="M79 539.5q49 83.5 136.5 129.5t198.5 46q112 0 200 -46t137 -129.5t49 -190.5t-49 -189.5t-137 -128.5t-200 -46t-199 46t-136 128.5t-49 189.5t49 190.5zM489.5 215q33.5 18 52.5 52.5t19 81.5t-19 82t-52.5 53.5t-75.5 18.5t-75 -18.5t-51.5 -53.5t-18.5 -82
t18.5 -81.5t51.5 -52.5t75 -18t75.5 18zM343.5 974.5q9.5 3.5 29.5 3.5h84q20 0 29.5 -3.5t23.5 -16.5l140 -123q12 -10 12 -19q0 -10 -16 -18l-78 -41q-16 -7 -23 -7q-15 0 -31 16l-99 90l-99 -90q-16 -16 -31 -16q-7 0 -23 7l-78 41q-16 8 -16 18q0 9 12 19l140 123
q14 13 23.5 16.5z" />
    <glyph glyph-name="otilde" unicode="&#xf5;" horiz-adv-x="830" 
d="M79 539.5q49 83.5 136.5 129.5t198.5 46q112 0 200 -46t137 -129.5t49 -190.5t-49 -189.5t-137 -128.5t-200 -46t-199 46t-136 128.5t-49 189.5t49 190.5zM489.5 215q33.5 18 52.5 52.5t19 81.5t-19 82t-52.5 53.5t-75.5 18.5t-75 -18.5t-51.5 -53.5t-18.5 -82
t18.5 -81.5t51.5 -52.5t75 -18t75.5 18zM183 858q0 9 10 20q25 28 60.5 45t79.5 17q28 0 50.5 -6t49.5 -16q21 -8 35 -11.5t28 -3.5q20 0 35 7t32 22q10 8 17 8q8 0 16 -11l45 -68q6 -9 6 -16q0 -9 -10 -20q-25 -28 -60.5 -45t-79.5 -17q-28 0 -50.5 6t-49.5 16
q-21 8 -35 11.5t-28 3.5q-20 0 -35 -7t-32 -22q-10 -8 -17 -8q-8 0 -16 11l-45 68q-6 9 -6 16z" />
    <glyph glyph-name="odieresis" unicode="&#xf6;" horiz-adv-x="830" 
d="M79 539.5q49 83.5 136.5 129.5t198.5 46q112 0 200 -46t137 -129.5t49 -190.5t-49 -189.5t-137 -128.5t-200 -46t-199 46t-136 128.5t-49 189.5t49 190.5zM489.5 215q33.5 18 52.5 52.5t19 81.5t-19 82t-52.5 53.5t-75.5 18.5t-75 -18.5t-51.5 -53.5t-18.5 -82
t18.5 -81.5t51.5 -52.5t75 -18t75.5 18zM214 889q12 21 33.5 33t49.5 12t49.5 -12t33.5 -33t12 -47t-12 -47t-33.5 -33t-49.5 -12t-49.5 12t-33.5 33t-12 47t12 47zM450 889q12 21 33.5 33t49.5 12t49.5 -12t33.5 -33t12 -47t-12 -47t-33.5 -33t-49.5 -12t-49.5 12t-33.5 33
t-12 47t12 47z" />
    <glyph glyph-name="divide" unicode="&#xf7;" 
d="M260.5 606.5q13.5 22.5 38 35.5t56.5 13t56.5 -13t38 -35.5t13.5 -51.5q0 -28 -13.5 -50.5t-38.5 -35.5t-56 -13t-56 13t-38.5 35.5t-13.5 50.5q0 29 13.5 51.5zM107 410h496q30 0 30 -30v-120q0 -30 -30 -30h-496q-30 0 -30 30v120q0 30 30 30zM260.5 135.5
q13.5 22.5 38 35.5t56.5 13t56.5 -13t38 -35.5t13.5 -51.5q0 -28 -13.5 -50.5t-38.5 -35.5t-56 -13t-56 13t-38.5 35.5t-13.5 50.5q0 29 13.5 51.5z" />
    <glyph glyph-name="oslash" unicode="&#xf8;" horiz-adv-x="830" 
d="M53 214q-23 62 -23 135q0 107 49 190.5t136.5 129.5t198.5 46q114 0 208 -51l27 30q12 13 20 17t25 4h89q8 0 12.5 -3.5t4.5 -9.5q0 -5 -3.5 -10t-10.5 -13l-76 -84q43 -48 66.5 -110.5t23.5 -135.5q0 -107 -49 -189.5t-137 -128.5t-200 -46q-119 0 -207 50l-26 -29
q-12 -13 -20 -17t-25 -4h-89q-8 0 -12.5 3.5t-4.5 9.5q0 5 3.5 10t10.5 13l75 83q-43 48 -66 110zM414 503q-42 0 -75 -18.5t-51.5 -53.5t-18.5 -82q0 -39 12 -68l190 211q-25 11 -57 11zM414 197q42 0 75.5 18t52.5 52.5t19 81.5q0 38 -14 69l-189 -211q21 -10 56 -10z" />
    <glyph glyph-name="ugrave" unicode="&#xf9;" horiz-adv-x="780" 
d="M80 700h175q30 0 30 -30v-345q0 -128 105 -128q52 0 78.5 32.5t26.5 95.5v345q0 30 30 30h175q30 0 30 -30v-365q0 -105 -43 -176.5t-120.5 -107.5t-181.5 -36q-101 0 -176 35t-117 106.5t-42 178.5v365q0 30 30 30zM280 1005q15 0 34 -14l203 -147q13 -10 13 -20
t-14 -21l-58 -43q-12 -9 -24 -9q-11 0 -30 10l-232 125q-20 11 -20 25q0 11 16 23l79 57q20 14 33 14z" />
    <glyph glyph-name="uacute" unicode="&#xfa;" horiz-adv-x="780" 
d="M80 700h175q30 0 30 -30v-345q0 -128 105 -128q52 0 78.5 32.5t26.5 95.5v345q0 30 30 30h175q30 0 30 -30v-365q0 -105 -43 -176.5t-120.5 -107.5t-181.5 -36q-101 0 -176 35t-117 106.5t-42 178.5v365q0 30 30 30zM250 824q0 10 13 20l203 147q19 14 34 14q13 0 33 -14
l79 -57q16 -12 16 -23q0 -14 -20 -25l-232 -125q-19 -10 -30 -10q-10 0 -24 9l-58 43q-14 11 -14 21z" />
    <glyph glyph-name="ucircumflex" unicode="&#xfb;" horiz-adv-x="780" 
d="M80 700h175q30 0 30 -30v-345q0 -128 105 -128q52 0 78.5 32.5t26.5 95.5v345q0 30 30 30h175q30 0 30 -30v-365q0 -105 -43 -176.5t-120.5 -107.5t-181.5 -36q-101 0 -176 35t-117 106.5t-42 178.5v365q0 30 30 30zM318.5 974.5q9.5 3.5 29.5 3.5h84q20 0 29.5 -3.5
t23.5 -16.5l140 -123q12 -10 12 -19q0 -10 -16 -18l-78 -41q-16 -7 -23 -7q-15 0 -31 16l-99 90l-99 -90q-16 -16 -31 -16q-7 0 -23 7l-78 41q-16 8 -16 18q0 9 12 19l140 123q14 13 23.5 16.5z" />
    <glyph glyph-name="udieresis" unicode="&#xfc;" horiz-adv-x="780" 
d="M80 700h175q30 0 30 -30v-345q0 -128 105 -128q52 0 78.5 32.5t26.5 95.5v345q0 30 30 30h175q30 0 30 -30v-365q0 -105 -43 -176.5t-120.5 -107.5t-181.5 -36q-101 0 -176 35t-117 106.5t-42 178.5v365q0 30 30 30zM189 889q12 21 33.5 33t49.5 12t49.5 -12t33.5 -33
t12 -47t-12 -47t-33.5 -33t-49.5 -12t-49.5 12t-33.5 33t-12 47t12 47zM425 889q12 21 33.5 33t49.5 12t49.5 -12t33.5 -33t12 -47t-12 -47t-33.5 -33t-49.5 -12t-49.5 12t-33.5 33t-12 47t12 47z" />
    <glyph glyph-name="yacute" unicode="&#xfd;" horiz-adv-x="730" 
d="M2 667q-6 11 -6 18q0 15 22 15h185q21 0 31.5 -6.5t21.5 -26.5l113 -206l112 206q11 20 21.5 26.5t31.5 6.5h178q22 0 22 -15q0 -7 -6 -18l-243 -413v-224q0 -30 -30 -30h-175q-30 0 -30 30v219zM225 824q0 10 13 20l203 147q19 14 34 14q13 0 33 -14l79 -57
q16 -12 16 -23q0 -14 -20 -25l-232 -125q-19 -10 -30 -10q-10 0 -24 9l-58 43q-14 11 -14 21z" />
    <glyph glyph-name="thorn" unicode="&#xfe;" 
d="M85 700h175q30 0 30 -30v-47q0 -10 4 -14t14 -4h47q163 0 245.5 -62t82.5 -190q0 -256 -328 -256h-47q-10 0 -14 -3.5t-4 -14.5v-49q0 -30 -30 -30h-175q-30 0 -30 30v640q0 30 30 30zM418.5 293q28.5 18 28.5 60q0 29 -12.5 45t-37.5 22.5t-66 6.5h-23q-10 0 -14 -3.5
t-4 -14.5v-116q0 -10 4 -14t14 -4h23q59 0 87.5 18z" />
    <glyph glyph-name="ydieresis" unicode="&#xff;" horiz-adv-x="730" 
d="M2 667q-6 11 -6 18q0 15 22 15h185q21 0 31.5 -6.5t21.5 -26.5l113 -206l112 206q11 20 21.5 26.5t31.5 6.5h178q22 0 22 -15q0 -7 -6 -18l-243 -413v-224q0 -30 -30 -30h-175q-30 0 -30 30v219zM164 889q12 21 33.5 33t49.5 12t49.5 -12t33.5 -33t12 -47t-12 -47
t-33.5 -33t-49.5 -12t-49.5 12t-33.5 33t-12 47t12 47zM400 889q12 21 33.5 33t49.5 12t49.5 -12t33.5 -33t12 -47t-12 -47t-33.5 -33t-49.5 -12t-49.5 12t-33.5 33t-12 47t12 47z" />
    <glyph glyph-name="Amacron" unicode="&#x100;" horiz-adv-x="776" 
d="M243 33q-10 -20 -20 -26.5t-30 -6.5h-173q-24 0 -24 15q0 9 5 18l335 635q15 29 26 40.5t26 11.5q14 0 25 -11.5t27 -40.5l335 -635q5 -9 5 -18q0 -15 -24 -15h-180q-20 0 -30 6.5t-20 26.5l-142 285zM238 924h300q30 0 30 -30v-90q0 -30 -30 -30h-300q-30 0 -30 30v90
q0 30 30 30z" />
    <glyph glyph-name="amacron" unicode="&#x101;" horiz-adv-x="776" 
d="M243 33q-10 -20 -20 -26.5t-30 -6.5h-173q-24 0 -24 15q0 9 5 18l335 635q15 29 26 40.5t26 11.5q14 0 25 -11.5t27 -40.5l335 -635q5 -9 5 -18q0 -15 -24 -15h-180q-20 0 -30 6.5t-20 26.5l-142 285zM238 924h300q30 0 30 -30v-90q0 -30 -30 -30h-300q-30 0 -30 30v90
q0 30 30 30z" />
    <glyph glyph-name="Abreve" unicode="&#x102;" horiz-adv-x="776" 
d="M243 33q-10 -20 -20 -26.5t-30 -6.5h-173q-24 0 -24 15q0 9 5 18l335 635q15 29 26 40.5t26 11.5q14 0 25 -11.5t27 -40.5l335 -635q5 -9 5 -18q0 -15 -24 -15h-180q-20 0 -30 6.5t-20 26.5l-142 285zM301 966q7 -5 11 -18q7 -26 26 -42t50 -16t50 16t26 42q4 13 11 18
t22 5h87q15 0 21 -6t6 -21q0 -53 -23 -97t-73 -70.5t-127 -26.5t-127 26.5t-73 70.5t-23 97q0 15 6 21t21 6h87q15 0 22 -5z" />
    <glyph glyph-name="abreve" unicode="&#x103;" horiz-adv-x="776" 
d="M243 33q-10 -20 -20 -26.5t-30 -6.5h-173q-24 0 -24 15q0 9 5 18l335 635q15 29 26 40.5t26 11.5q14 0 25 -11.5t27 -40.5l335 -635q5 -9 5 -18q0 -15 -24 -15h-180q-20 0 -30 6.5t-20 26.5l-142 285zM301 966q7 -5 11 -18q7 -26 26 -42t50 -16t50 16t26 42q4 13 11 18
t22 5h87q15 0 21 -6t6 -21q0 -53 -23 -97t-73 -70.5t-127 -26.5t-127 26.5t-73 70.5t-23 97q0 15 6 21t21 6h87q15 0 22 -5z" />
    <glyph glyph-name="Aogonek" unicode="&#x104;" horiz-adv-x="776" 
d="M243 33q-10 -20 -20 -26.5t-30 -6.5h-173q-24 0 -24 15q0 9 5 18l335 635q15 29 26 40.5t26 11.5q14 0 25 -11.5t27 -40.5l335 -635q5 -9 5 -18q0 -15 -24 -15h-72q-32 -15 -50 -37.5t-18 -48.5q0 -24 16 -38.5t41 -14.5q34 0 62 16q8 5 13 5q8 0 12 -10l31 -58
q3 -6 3 -11q0 -10 -12 -17q-54 -36 -123 -36q-49 0 -86.5 17.5t-58 49t-20.5 71.5q0 33 15.5 62.5t44.5 52.5q-9 3 -15.5 10t-12.5 20l-142 285z" />
    <glyph glyph-name="aogonek" unicode="&#x105;" horiz-adv-x="776" 
d="M243 33q-10 -20 -20 -26.5t-30 -6.5h-173q-24 0 -24 15q0 9 5 18l335 635q15 29 26 40.5t26 11.5q14 0 25 -11.5t27 -40.5l335 -635q5 -9 5 -18q0 -15 -24 -15h-72q-32 -15 -50 -37.5t-18 -48.5q0 -24 16 -38.5t41 -14.5q34 0 62 16q8 5 13 5q8 0 12 -10l31 -58
q3 -6 3 -11q0 -10 -12 -17q-54 -36 -123 -36q-49 0 -86.5 17.5t-58 49t-20.5 71.5q0 33 15.5 62.5t44.5 52.5q-9 3 -15.5 10t-12.5 20l-142 285z" />
    <glyph glyph-name="Cacute" unicode="&#x106;" horiz-adv-x="720" 
d="M698 106q0 -6 -4.5 -12.5t-14.5 -14.5q-55 -44 -122.5 -69t-141.5 -25q-112 0 -199.5 47t-136.5 129t-49 184q0 106 50 190.5t140 132t204 47.5q76 0 142 -25t120 -71q7 -6 10 -11t3 -11q0 -9 -7 -19l-83 -117q-10 -15 -23 -15q-8 0 -21 8q-34 23 -68 36t-73 13
q-45 0 -80.5 -19t-55 -54t-19.5 -81q0 -45 19.5 -79.5t55 -53.5t80.5 -19q41 0 75 13t67 37q13 10 22 10q11 0 21 -15l81 -116q8 -11 8 -20zM265 824q0 10 13 20l203 147q19 14 34 14q13 0 33 -14l79 -57q16 -12 16 -23q0 -14 -20 -25l-232 -125q-19 -10 -30 -10
q-10 0 -24 9l-58 43q-14 11 -14 21z" />
    <glyph glyph-name="cacute" unicode="&#x107;" horiz-adv-x="720" 
d="M698 106q0 -6 -4.5 -12.5t-14.5 -14.5q-55 -44 -122.5 -69t-141.5 -25q-112 0 -199.5 47t-136.5 129t-49 184q0 106 50 190.5t140 132t204 47.5q76 0 142 -25t120 -71q7 -6 10 -11t3 -11q0 -9 -7 -19l-83 -117q-10 -15 -23 -15q-8 0 -21 8q-34 23 -68 36t-73 13
q-45 0 -80.5 -19t-55 -54t-19.5 -81q0 -45 19.5 -79.5t55 -53.5t80.5 -19q41 0 75 13t67 37q13 10 22 10q11 0 21 -15l81 -116q8 -11 8 -20zM265 824q0 10 13 20l203 147q19 14 34 14q13 0 33 -14l79 -57q16 -12 16 -23q0 -14 -20 -25l-232 -125q-19 -10 -30 -10
q-10 0 -24 9l-58 43q-14 11 -14 21z" />
    <glyph glyph-name="Ccircumflex" unicode="&#x108;" horiz-adv-x="720" 
d="M698 106q0 -6 -4.5 -12.5t-14.5 -14.5q-55 -44 -122.5 -69t-141.5 -25q-112 0 -199.5 47t-136.5 129t-49 184q0 106 50 190.5t140 132t204 47.5q76 0 142 -25t120 -71q7 -6 10 -11t3 -11q0 -9 -7 -19l-83 -117q-10 -15 -23 -15q-8 0 -21 8q-34 23 -68 36t-73 13
q-45 0 -80.5 -19t-55 -54t-19.5 -81q0 -45 19.5 -79.5t55 -53.5t80.5 -19q41 0 75 13t67 37q13 10 22 10q11 0 21 -15l81 -116q8 -11 8 -20zM333.5 974.5q9.5 3.5 29.5 3.5h84q20 0 29.5 -3.5t23.5 -16.5l140 -123q12 -10 12 -19q0 -10 -16 -18l-78 -41q-16 -7 -23 -7
q-15 0 -31 16l-99 90l-99 -90q-16 -16 -31 -16q-7 0 -23 7l-78 41q-16 8 -16 18q0 9 12 19l140 123q14 13 23.5 16.5z" />
    <glyph glyph-name="ccircumflex" unicode="&#x109;" horiz-adv-x="720" 
d="M698 106q0 -6 -4.5 -12.5t-14.5 -14.5q-55 -44 -122.5 -69t-141.5 -25q-112 0 -199.5 47t-136.5 129t-49 184q0 106 50 190.5t140 132t204 47.5q76 0 142 -25t120 -71q7 -6 10 -11t3 -11q0 -9 -7 -19l-83 -117q-10 -15 -23 -15q-8 0 -21 8q-34 23 -68 36t-73 13
q-45 0 -80.5 -19t-55 -54t-19.5 -81q0 -45 19.5 -79.5t55 -53.5t80.5 -19q41 0 75 13t67 37q13 10 22 10q11 0 21 -15l81 -116q8 -11 8 -20zM333.5 974.5q9.5 3.5 29.5 3.5h84q20 0 29.5 -3.5t23.5 -16.5l140 -123q12 -10 12 -19q0 -10 -16 -18l-78 -41q-16 -7 -23 -7
q-15 0 -31 16l-99 90l-99 -90q-16 -16 -31 -16q-7 0 -23 7l-78 41q-16 8 -16 18q0 9 12 19l140 123q14 13 23.5 16.5z" />
    <glyph glyph-name="Cdotaccent" unicode="&#x10a;" horiz-adv-x="720" 
d="M698 106q0 -6 -4.5 -12.5t-14.5 -14.5q-55 -44 -122.5 -69t-141.5 -25q-112 0 -199.5 47t-136.5 129t-49 184q0 106 50 190.5t140 132t204 47.5q76 0 142 -25t120 -71q7 -6 10 -11t3 -11q0 -9 -7 -19l-83 -117q-10 -15 -23 -15q-8 0 -21 8q-34 23 -68 36t-73 13
q-45 0 -80.5 -19t-55 -54t-19.5 -81q0 -45 19.5 -79.5t55 -53.5t80.5 -19q41 0 75 13t67 37q13 10 22 10q11 0 21 -15l81 -116q8 -11 8 -20zM310.5 900.5q13.5 22.5 38 35.5t56.5 13t56.5 -13t38 -35.5t13.5 -51.5q0 -28 -13.5 -50.5t-38.5 -35.5t-56 -13t-56 13t-38.5 35.5
t-13.5 50.5q0 29 13.5 51.5z" />
    <glyph glyph-name="cdotaccent" unicode="&#x10b;" horiz-adv-x="720" 
d="M698 106q0 -6 -4.5 -12.5t-14.5 -14.5q-55 -44 -122.5 -69t-141.5 -25q-112 0 -199.5 47t-136.5 129t-49 184q0 106 50 190.5t140 132t204 47.5q76 0 142 -25t120 -71q7 -6 10 -11t3 -11q0 -9 -7 -19l-83 -117q-10 -15 -23 -15q-8 0 -21 8q-34 23 -68 36t-73 13
q-45 0 -80.5 -19t-55 -54t-19.5 -81q0 -45 19.5 -79.5t55 -53.5t80.5 -19q41 0 75 13t67 37q13 10 22 10q11 0 21 -15l81 -116q8 -11 8 -20zM310.5 900.5q13.5 22.5 38 35.5t56.5 13t56.5 -13t38 -35.5t13.5 -51.5q0 -28 -13.5 -50.5t-38.5 -35.5t-56 -13t-56 13t-38.5 35.5
t-13.5 50.5q0 29 13.5 51.5z" />
    <glyph glyph-name="Ccaron" unicode="&#x10c;" horiz-adv-x="720" 
d="M698 106q0 -6 -4.5 -12.5t-14.5 -14.5q-55 -44 -122.5 -69t-141.5 -25q-112 0 -199.5 47t-136.5 129t-49 184q0 106 50 190.5t140 132t204 47.5q76 0 142 -25t120 -71q7 -6 10 -11t3 -11q0 -9 -7 -19l-83 -117q-10 -15 -23 -15q-8 0 -21 8q-34 23 -68 36t-73 13
q-45 0 -80.5 -19t-55 -54t-19.5 -81q0 -45 19.5 -79.5t55 -53.5t80.5 -19q41 0 75 13t67 37q13 10 22 10q11 0 21 -15l81 -116q8 -11 8 -20zM158 912q0 10 16 18l78 41q16 7 23 7q15 0 31 -16l99 -90l99 90q16 16 31 16q7 0 23 -7l78 -41q16 -8 16 -18q0 -8 -12 -19
l-140 -123q-14 -13 -23.5 -16.5t-29.5 -3.5h-84q-20 0 -29.5 3.5t-23.5 16.5l-140 123q-12 11 -12 19z" />
    <glyph glyph-name="ccaron" unicode="&#x10d;" horiz-adv-x="720" 
d="M698 106q0 -6 -4.5 -12.5t-14.5 -14.5q-55 -44 -122.5 -69t-141.5 -25q-112 0 -199.5 47t-136.5 129t-49 184q0 106 50 190.5t140 132t204 47.5q76 0 142 -25t120 -71q7 -6 10 -11t3 -11q0 -9 -7 -19l-83 -117q-10 -15 -23 -15q-8 0 -21 8q-34 23 -68 36t-73 13
q-45 0 -80.5 -19t-55 -54t-19.5 -81q0 -45 19.5 -79.5t55 -53.5t80.5 -19q41 0 75 13t67 37q13 10 22 10q11 0 21 -15l81 -116q8 -11 8 -20zM158 912q0 10 16 18l78 41q16 7 23 7q15 0 31 -16l99 -90l99 90q16 16 31 16q7 0 23 -7l78 -41q16 -8 16 -18q0 -8 -12 -19
l-140 -123q-14 -13 -23.5 -16.5t-29.5 -3.5h-84q-20 0 -29.5 3.5t-23.5 16.5l-140 123q-12 11 -12 19z" />
    <glyph glyph-name="Dcaron" unicode="&#x10e;" horiz-adv-x="791" 
d="M85 700h285q125 0 213 -42t133 -119t45 -181q0 -109 -48 -189.5t-140.5 -124.5t-222.5 -44h-265q-30 0 -30 30v640q0 30 30 30zM478.5 240q43.5 40 43.5 112q0 69 -43 108.5t-125 39.5h-46q-10 0 -14 -3.5t-4 -14.5v-264q0 -10 4 -14t14 -4h42q85 0 128.5 40zM118 912
q0 10 16 18l78 41q16 7 23 7q15 0 31 -16l99 -90l99 90q16 16 31 16q7 0 23 -7l78 -41q16 -8 16 -18q0 -8 -12 -19l-140 -123q-14 -13 -23.5 -16.5t-29.5 -3.5h-84q-20 0 -29.5 3.5t-23.5 16.5l-140 123q-12 11 -12 19z" />
    <glyph glyph-name="dcaron" unicode="&#x10f;" horiz-adv-x="791" 
d="M85 700h285q125 0 213 -42t133 -119t45 -181q0 -109 -48 -189.5t-140.5 -124.5t-222.5 -44h-265q-30 0 -30 30v640q0 30 30 30zM478.5 240q43.5 40 43.5 112q0 69 -43 108.5t-125 39.5h-46q-10 0 -14 -3.5t-4 -14.5v-264q0 -10 4 -14t14 -4h42q85 0 128.5 40zM118 912
q0 10 16 18l78 41q16 7 23 7q15 0 31 -16l99 -90l99 90q16 16 31 16q7 0 23 -7l78 -41q16 -8 16 -18q0 -8 -12 -19l-140 -123q-14 -13 -23.5 -16.5t-29.5 -3.5h-84q-20 0 -29.5 3.5t-23.5 16.5l-140 123q-12 11 -12 19z" />
    <glyph glyph-name="Dcroat" unicode="&#x110;" horiz-adv-x="810" 
d="M70.5 262.5q-3.5 3.5 -14.5 3.5h-25q-30 0 -30 30v108q0 30 30 30h25q11 0 14.5 4t3.5 14v218q0 30 30 30h285q125 0 213 -42t133 -119t45 -181q0 -109 -48 -189.5t-140.5 -124.5t-222.5 -44h-265q-30 0 -30 30v218q0 11 -3.5 14.5zM497.5 240q43.5 40 43.5 112
q0 69 -43 108.5t-125 39.5h-46q-10 0 -14 -3.5t-4 -14.5v-30q0 -10 4 -14t14 -4h68q30 0 30 -30v-108q0 -30 -30 -30h-68q-10 0 -14 -3.5t-4 -14.5v-30q0 -10 4 -14t14 -4h42q85 0 128.5 40z" />
    <glyph glyph-name="dcroat" unicode="&#x111;" horiz-adv-x="810" 
d="M70.5 262.5q-3.5 3.5 -14.5 3.5h-25q-30 0 -30 30v108q0 30 30 30h25q11 0 14.5 4t3.5 14v218q0 30 30 30h285q125 0 213 -42t133 -119t45 -181q0 -109 -48 -189.5t-140.5 -124.5t-222.5 -44h-265q-30 0 -30 30v218q0 11 -3.5 14.5zM497.5 240q43.5 40 43.5 112
q0 69 -43 108.5t-125 39.5h-46q-10 0 -14 -3.5t-4 -14.5v-30q0 -10 4 -14t14 -4h68q30 0 30 -30v-108q0 -30 -30 -30h-68q-10 0 -14 -3.5t-4 -14.5v-30q0 -10 4 -14t14 -4h42q85 0 128.5 40z" />
    <glyph glyph-name="Emacron" unicode="&#x112;" horiz-adv-x="598" 
d="M85 700h447q30 0 30 -30v-120q0 -30 -30 -30h-224q-10 0 -14 -3.5t-4 -14.5v-46q0 -10 4 -14t14 -4h191q30 0 30 -30v-115q0 -30 -30 -30h-191q-10 0 -14 -3.5t-4 -14.5v-47q0 -10 4 -14t14 -4h225q30 0 30 -30v-120q0 -30 -30 -30h-448q-30 0 -30 30v640q0 30 30 30z
M165 924h300q30 0 30 -30v-90q0 -30 -30 -30h-300q-30 0 -30 30v90q0 30 30 30z" />
    <glyph glyph-name="emacron" unicode="&#x113;" horiz-adv-x="598" 
d="M85 700h447q30 0 30 -30v-120q0 -30 -30 -30h-224q-10 0 -14 -3.5t-4 -14.5v-46q0 -10 4 -14t14 -4h191q30 0 30 -30v-115q0 -30 -30 -30h-191q-10 0 -14 -3.5t-4 -14.5v-47q0 -10 4 -14t14 -4h225q30 0 30 -30v-120q0 -30 -30 -30h-448q-30 0 -30 30v640q0 30 30 30z
M165 924h300q30 0 30 -30v-90q0 -30 -30 -30h-300q-30 0 -30 30v90q0 30 30 30z" />
    <glyph glyph-name="Ebreve" unicode="&#x114;" horiz-adv-x="598" 
d="M85 700h447q30 0 30 -30v-120q0 -30 -30 -30h-224q-10 0 -14 -3.5t-4 -14.5v-46q0 -10 4 -14t14 -4h191q30 0 30 -30v-115q0 -30 -30 -30h-191q-10 0 -14 -3.5t-4 -14.5v-47q0 -10 4 -14t14 -4h225q30 0 30 -30v-120q0 -30 -30 -30h-448q-30 0 -30 30v640q0 30 30 30z
M217 966q7 -5 11 -18q7 -26 26 -42t50 -16t50 16t26 42q4 13 11 18t22 5h87q15 0 21 -6t6 -21q0 -53 -23 -97t-73 -70.5t-127 -26.5t-127 26.5t-73 70.5t-23 97q0 15 6 21t21 6h87q15 0 22 -5z" />
    <glyph glyph-name="ebreve" unicode="&#x115;" horiz-adv-x="598" 
d="M85 700h447q30 0 30 -30v-120q0 -30 -30 -30h-224q-10 0 -14 -3.5t-4 -14.5v-46q0 -10 4 -14t14 -4h191q30 0 30 -30v-115q0 -30 -30 -30h-191q-10 0 -14 -3.5t-4 -14.5v-47q0 -10 4 -14t14 -4h225q30 0 30 -30v-120q0 -30 -30 -30h-448q-30 0 -30 30v640q0 30 30 30z
M217 966q7 -5 11 -18q7 -26 26 -42t50 -16t50 16t26 42q4 13 11 18t22 5h87q15 0 21 -6t6 -21q0 -53 -23 -97t-73 -70.5t-127 -26.5t-127 26.5t-73 70.5t-23 97q0 15 6 21t21 6h87q15 0 22 -5z" />
    <glyph glyph-name="Edotaccent" unicode="&#x116;" horiz-adv-x="598" 
d="M85 700h447q30 0 30 -30v-120q0 -30 -30 -30h-224q-10 0 -14 -3.5t-4 -14.5v-46q0 -10 4 -14t14 -4h191q30 0 30 -30v-115q0 -30 -30 -30h-191q-10 0 -14 -3.5t-4 -14.5v-47q0 -10 4 -14t14 -4h225q30 0 30 -30v-120q0 -30 -30 -30h-448q-30 0 -30 30v640q0 30 30 30z
M220.5 900.5q13.5 22.5 38 35.5t56.5 13t56.5 -13t38 -35.5t13.5 -51.5q0 -28 -13.5 -50.5t-38.5 -35.5t-56 -13t-56 13t-38.5 35.5t-13.5 50.5q0 29 13.5 51.5z" />
    <glyph glyph-name="edotaccent" unicode="&#x117;" horiz-adv-x="598" 
d="M85 700h447q30 0 30 -30v-120q0 -30 -30 -30h-224q-10 0 -14 -3.5t-4 -14.5v-46q0 -10 4 -14t14 -4h191q30 0 30 -30v-115q0 -30 -30 -30h-191q-10 0 -14 -3.5t-4 -14.5v-47q0 -10 4 -14t14 -4h225q30 0 30 -30v-120q0 -30 -30 -30h-448q-30 0 -30 30v640q0 30 30 30z
M220.5 900.5q13.5 22.5 38 35.5t56.5 13t56.5 -13t38 -35.5t13.5 -51.5q0 -28 -13.5 -50.5t-38.5 -35.5t-56 -13t-56 13t-38.5 35.5t-13.5 50.5q0 29 13.5 51.5z" />
    <glyph glyph-name="Eogonek" unicode="&#x118;" horiz-adv-x="598" 
d="M85 700h447q30 0 30 -30v-120q0 -30 -30 -30h-224q-10 0 -14 -3.5t-4 -14.5v-46q0 -10 4 -14t14 -4h191q30 0 30 -30v-115q0 -30 -30 -30h-191q-10 0 -14 -3.5t-4 -14.5v-47q0 -10 4 -14t14 -4h225q30 0 30 -30v-120q0 -30 -30 -30h-103q-32 -15 -50 -37.5t-18 -48.5
q0 -24 16 -38.5t41 -14.5q34 0 62 16q8 5 13 5q8 0 12 -10l31 -58q3 -6 3 -11q0 -10 -12 -17q-54 -36 -123 -36q-49 0 -86.5 17.5t-58 49t-20.5 71.5q0 32 14.5 60.5t42.5 51.5h-212q-30 0 -30 30v640q0 30 30 30z" />
    <glyph glyph-name="eogonek" unicode="&#x119;" horiz-adv-x="598" 
d="M85 700h447q30 0 30 -30v-120q0 -30 -30 -30h-224q-10 0 -14 -3.5t-4 -14.5v-46q0 -10 4 -14t14 -4h191q30 0 30 -30v-115q0 -30 -30 -30h-191q-10 0 -14 -3.5t-4 -14.5v-47q0 -10 4 -14t14 -4h225q30 0 30 -30v-120q0 -30 -30 -30h-103q-32 -15 -50 -37.5t-18 -48.5
q0 -24 16 -38.5t41 -14.5q34 0 62 16q8 5 13 5q8 0 12 -10l31 -58q3 -6 3 -11q0 -10 -12 -17q-54 -36 -123 -36q-49 0 -86.5 17.5t-58 49t-20.5 71.5q0 32 14.5 60.5t42.5 51.5h-212q-30 0 -30 30v640q0 30 30 30z" />
    <glyph glyph-name="Ecaron" unicode="&#x11a;" horiz-adv-x="598" 
d="M85 700h447q30 0 30 -30v-120q0 -30 -30 -30h-224q-10 0 -14 -3.5t-4 -14.5v-46q0 -10 4 -14t14 -4h191q30 0 30 -30v-115q0 -30 -30 -30h-191q-10 0 -14 -3.5t-4 -14.5v-47q0 -10 4 -14t14 -4h225q30 0 30 -30v-120q0 -30 -30 -30h-448q-30 0 -30 30v640q0 30 30 30z
M68 912q0 10 16 18l78 41q16 7 23 7q15 0 31 -16l99 -90l99 90q16 16 31 16q7 0 23 -7l78 -41q16 -8 16 -18q0 -8 -12 -19l-140 -123q-14 -13 -23.5 -16.5t-29.5 -3.5h-84q-20 0 -29.5 3.5t-23.5 16.5l-140 123q-12 11 -12 19z" />
    <glyph glyph-name="ecaron" unicode="&#x11b;" horiz-adv-x="598" 
d="M85 700h447q30 0 30 -30v-120q0 -30 -30 -30h-224q-10 0 -14 -3.5t-4 -14.5v-46q0 -10 4 -14t14 -4h191q30 0 30 -30v-115q0 -30 -30 -30h-191q-10 0 -14 -3.5t-4 -14.5v-47q0 -10 4 -14t14 -4h225q30 0 30 -30v-120q0 -30 -30 -30h-448q-30 0 -30 30v640q0 30 30 30z
M68 912q0 10 16 18l78 41q16 7 23 7q15 0 31 -16l99 -90l99 90q16 16 31 16q7 0 23 -7l78 -41q16 -8 16 -18q0 -8 -12 -19l-140 -123q-14 -13 -23.5 -16.5t-29.5 -3.5h-84q-20 0 -29.5 3.5t-23.5 16.5l-140 123q-12 11 -12 19z" />
    <glyph glyph-name="Gcircumflex" unicode="&#x11c;" horiz-adv-x="770" 
d="M525 369h175q30 0 30 -30v-239q0 -19 -5.5 -28.5t-22.5 -18.5q-131 -68 -288 -68q-112 0 -199.5 44.5t-136 125.5t-48.5 187q0 110 49 195t138.5 131.5t205.5 46.5q76 0 144 -20.5t124 -57.5q20 -13 20 -28q0 -9 -8 -23l-69 -112q-6 -10 -12.5 -15t-14.5 -5q-6 0 -22 7
q-40 21 -76.5 31t-78.5 10q-52 0 -88 -20t-54.5 -55.5t-18.5 -79.5t17.5 -79t51 -55t79.5 -20q38 0 62 8q9 3 12.5 8t3.5 15v115q0 30 30 30zM328.5 974.5q9.5 3.5 29.5 3.5h84q20 0 29.5 -3.5t23.5 -16.5l140 -123q12 -10 12 -19q0 -10 -16 -18l-78 -41q-16 -7 -23 -7
q-15 0 -31 16l-99 90l-99 -90q-16 -16 -31 -16q-7 0 -23 7l-78 41q-16 8 -16 18q0 9 12 19l140 123q14 13 23.5 16.5z" />
    <glyph glyph-name="gcircumflex" unicode="&#x11d;" horiz-adv-x="770" 
d="M525 369h175q30 0 30 -30v-239q0 -19 -5.5 -28.5t-22.5 -18.5q-131 -68 -288 -68q-112 0 -199.5 44.5t-136 125.5t-48.5 187q0 110 49 195t138.5 131.5t205.5 46.5q76 0 144 -20.5t124 -57.5q20 -13 20 -28q0 -9 -8 -23l-69 -112q-6 -10 -12.5 -15t-14.5 -5q-6 0 -22 7
q-40 21 -76.5 31t-78.5 10q-52 0 -88 -20t-54.5 -55.5t-18.5 -79.5t17.5 -79t51 -55t79.5 -20q38 0 62 8q9 3 12.5 8t3.5 15v115q0 30 30 30zM328.5 974.5q9.5 3.5 29.5 3.5h84q20 0 29.5 -3.5t23.5 -16.5l140 -123q12 -10 12 -19q0 -10 -16 -18l-78 -41q-16 -7 -23 -7
q-15 0 -31 16l-99 90l-99 -90q-16 -16 -31 -16q-7 0 -23 7l-78 41q-16 8 -16 18q0 9 12 19l140 123q14 13 23.5 16.5z" />
    <glyph glyph-name="Gbreve" unicode="&#x11e;" horiz-adv-x="770" 
d="M525 369h175q30 0 30 -30v-239q0 -19 -5.5 -28.5t-22.5 -18.5q-131 -68 -288 -68q-112 0 -199.5 44.5t-136 125.5t-48.5 187q0 110 49 195t138.5 131.5t205.5 46.5q76 0 144 -20.5t124 -57.5q20 -13 20 -28q0 -9 -8 -23l-69 -112q-6 -10 -12.5 -15t-14.5 -5q-6 0 -22 7
q-40 21 -76.5 31t-78.5 10q-52 0 -88 -20t-54.5 -55.5t-18.5 -79.5t17.5 -79t51 -55t79.5 -20q38 0 62 8q9 3 12.5 8t3.5 15v115q0 30 30 30zM306 966q7 -5 11 -18q7 -26 26 -42t50 -16t50 16t26 42q4 13 11 18t22 5h87q15 0 21 -6t6 -21q0 -53 -23 -97t-73 -70.5
t-127 -26.5t-127 26.5t-73 70.5t-23 97q0 15 6 21t21 6h87q15 0 22 -5z" />
    <glyph glyph-name="gbreve" unicode="&#x11f;" horiz-adv-x="770" 
d="M525 369h175q30 0 30 -30v-239q0 -19 -5.5 -28.5t-22.5 -18.5q-131 -68 -288 -68q-112 0 -199.5 44.5t-136 125.5t-48.5 187q0 110 49 195t138.5 131.5t205.5 46.5q76 0 144 -20.5t124 -57.5q20 -13 20 -28q0 -9 -8 -23l-69 -112q-6 -10 -12.5 -15t-14.5 -5q-6 0 -22 7
q-40 21 -76.5 31t-78.5 10q-52 0 -88 -20t-54.5 -55.5t-18.5 -79.5t17.5 -79t51 -55t79.5 -20q38 0 62 8q9 3 12.5 8t3.5 15v115q0 30 30 30zM306 966q7 -5 11 -18q7 -26 26 -42t50 -16t50 16t26 42q4 13 11 18t22 5h87q15 0 21 -6t6 -21q0 -53 -23 -97t-73 -70.5
t-127 -26.5t-127 26.5t-73 70.5t-23 97q0 15 6 21t21 6h87q15 0 22 -5z" />
    <glyph glyph-name="Gdotaccent" unicode="&#x120;" horiz-adv-x="770" 
d="M525 369h175q30 0 30 -30v-239q0 -19 -5.5 -28.5t-22.5 -18.5q-131 -68 -288 -68q-112 0 -199.5 44.5t-136 125.5t-48.5 187q0 110 49 195t138.5 131.5t205.5 46.5q76 0 144 -20.5t124 -57.5q20 -13 20 -28q0 -9 -8 -23l-69 -112q-6 -10 -12.5 -15t-14.5 -5q-6 0 -22 7
q-40 21 -76.5 31t-78.5 10q-52 0 -88 -20t-54.5 -55.5t-18.5 -79.5t17.5 -79t51 -55t79.5 -20q38 0 62 8q9 3 12.5 8t3.5 15v115q0 30 30 30zM304.5 900.5q13.5 22.5 38 35.5t56.5 13t56.5 -13t38 -35.5t13.5 -51.5q0 -28 -13.5 -50.5t-38.5 -35.5t-56 -13t-56 13
t-38.5 35.5t-13.5 50.5q0 29 13.5 51.5z" />
    <glyph glyph-name="gdotaccent" unicode="&#x121;" horiz-adv-x="770" 
d="M525 369h175q30 0 30 -30v-239q0 -19 -5.5 -28.5t-22.5 -18.5q-131 -68 -288 -68q-112 0 -199.5 44.5t-136 125.5t-48.5 187q0 110 49 195t138.5 131.5t205.5 46.5q76 0 144 -20.5t124 -57.5q20 -13 20 -28q0 -9 -8 -23l-69 -112q-6 -10 -12.5 -15t-14.5 -5q-6 0 -22 7
q-40 21 -76.5 31t-78.5 10q-52 0 -88 -20t-54.5 -55.5t-18.5 -79.5t17.5 -79t51 -55t79.5 -20q38 0 62 8q9 3 12.5 8t3.5 15v115q0 30 30 30zM304.5 900.5q13.5 22.5 38 35.5t56.5 13t56.5 -13t38 -35.5t13.5 -51.5q0 -28 -13.5 -50.5t-38.5 -35.5t-56 -13t-56 13
t-38.5 35.5t-13.5 50.5q0 29 13.5 51.5z" />
    <glyph glyph-name="Gcommaaccent" unicode="&#x122;" horiz-adv-x="770" 
d="M525 369h175q30 0 30 -30v-239q0 -19 -5.5 -28.5t-22.5 -18.5q-131 -68 -288 -68q-112 0 -199.5 44.5t-136 125.5t-48.5 187q0 110 49 195t138.5 131.5t205.5 46.5q76 0 144 -20.5t124 -57.5q20 -13 20 -28q0 -9 -8 -23l-69 -112q-6 -10 -12.5 -15t-14.5 -5q-6 0 -22 7
q-40 21 -76.5 31t-78.5 10q-52 0 -88 -20t-54.5 -55.5t-18.5 -79.5t17.5 -79t51 -55t79.5 -20q38 0 62 8q9 3 12.5 8t3.5 15v115q0 30 30 30zM304 -173.5q-18 19.5 -18 52.5q0 26 13.5 46.5t37.5 31.5t57 11q51 0 80 -24t29 -67q0 -26 -9.5 -49.5t-33.5 -64.5l-16 -27
q-8 -14 -17.5 -19t-28.5 -5h-63q-12 0 -19 3.5t-7 10.5t7 17l35 57q-29 7 -47 26.5z" />
    <glyph glyph-name="gcommaaccent" unicode="&#x123;" horiz-adv-x="770" 
d="M525 369h175q30 0 30 -30v-239q0 -19 -5.5 -28.5t-22.5 -18.5q-131 -68 -288 -68q-112 0 -199.5 44.5t-136 125.5t-48.5 187q0 110 49 195t138.5 131.5t205.5 46.5q76 0 144 -20.5t124 -57.5q20 -13 20 -28q0 -9 -8 -23l-69 -112q-6 -10 -12.5 -15t-14.5 -5q-6 0 -22 7
q-40 21 -76.5 31t-78.5 10q-52 0 -88 -20t-54.5 -55.5t-18.5 -79.5t17.5 -79t51 -55t79.5 -20q38 0 62 8q9 3 12.5 8t3.5 15v115q0 30 30 30zM304 -173.5q-18 19.5 -18 52.5q0 26 13.5 46.5t37.5 31.5t57 11q51 0 80 -24t29 -67q0 -26 -9.5 -49.5t-33.5 -64.5l-16 -27
q-8 -14 -17.5 -19t-28.5 -5h-63q-12 0 -19 3.5t-7 10.5t7 17l35 57q-29 7 -47 26.5z" />
    <glyph glyph-name="Hcircumflex" unicode="&#x124;" horiz-adv-x="762" 
d="M85 700h175q30 0 30 -30v-193q0 -10 4 -14t14 -4h146q11 0 14.5 4t3.5 14v193q0 30 30 30h175q30 0 30 -30v-640q0 -30 -30 -30h-175q-30 0 -30 30v203q0 11 -3.5 14.5t-14.5 3.5h-146q-10 0 -14 -3.5t-4 -14.5v-203q0 -30 -30 -30h-175q-30 0 -30 30v640q0 30 30 30z
M309.5 974.5q9.5 3.5 29.5 3.5h84q20 0 29.5 -3.5t23.5 -16.5l140 -123q12 -10 12 -19q0 -10 -16 -18l-78 -41q-16 -7 -23 -7q-15 0 -31 16l-99 90l-99 -90q-16 -16 -31 -16q-7 0 -23 7l-78 41q-16 8 -16 18q0 9 12 19l140 123q14 13 23.5 16.5z" />
    <glyph glyph-name="hcircumflex" unicode="&#x125;" horiz-adv-x="762" 
d="M85 700h175q30 0 30 -30v-193q0 -10 4 -14t14 -4h146q11 0 14.5 4t3.5 14v193q0 30 30 30h175q30 0 30 -30v-640q0 -30 -30 -30h-175q-30 0 -30 30v203q0 11 -3.5 14.5t-14.5 3.5h-146q-10 0 -14 -3.5t-4 -14.5v-203q0 -30 -30 -30h-175q-30 0 -30 30v640q0 30 30 30z
M309.5 974.5q9.5 3.5 29.5 3.5h84q20 0 29.5 -3.5t23.5 -16.5l140 -123q12 -10 12 -19q0 -10 -16 -18l-78 -41q-16 -7 -23 -7q-15 0 -31 16l-99 90l-99 -90q-16 -16 -31 -16q-7 0 -23 7l-78 41q-16 8 -16 18q0 9 12 19l140 123q14 13 23.5 16.5z" />
    <glyph glyph-name="Hbar" unicode="&#x126;" horiz-adv-x="810" 
d="M75.5 480.5q-3.5 3.5 -14.5 3.5h-31q-30 0 -30 30v90q0 30 30 30h31q11 0 14.5 4t3.5 14v18q0 30 30 30h175q30 0 30 -30v-18q0 -10 4 -14t14 -4h146q11 0 14.5 4t3.5 14v18q0 30 30 30h175q30 0 30 -30v-18q0 -10 4 -14t14 -4h31q30 0 30 -30v-90q0 -30 -30 -30h-31
q-10 0 -14 -3.5t-4 -14.5v-436q0 -30 -30 -30h-175q-30 0 -30 30v197q0 11 -3.5 14.5t-14.5 3.5h-146q-10 0 -14 -3.5t-4 -14.5v-197q0 -30 -30 -30h-175q-30 0 -30 30v436q0 11 -3.5 14.5zM492.5 429q3.5 4 3.5 14v23q0 11 -3.5 14.5t-14.5 3.5h-146q-10 0 -14 -3.5
t-4 -14.5v-23q0 -10 4 -14t14 -4h146q11 0 14.5 4z" />
    <glyph glyph-name="hbar" unicode="&#x127;" horiz-adv-x="810" 
d="M75.5 480.5q-3.5 3.5 -14.5 3.5h-31q-30 0 -30 30v90q0 30 30 30h31q11 0 14.5 4t3.5 14v18q0 30 30 30h175q30 0 30 -30v-18q0 -10 4 -14t14 -4h146q11 0 14.5 4t3.5 14v18q0 30 30 30h175q30 0 30 -30v-18q0 -10 4 -14t14 -4h31q30 0 30 -30v-90q0 -30 -30 -30h-31
q-10 0 -14 -3.5t-4 -14.5v-436q0 -30 -30 -30h-175q-30 0 -30 30v197q0 11 -3.5 14.5t-14.5 3.5h-146q-10 0 -14 -3.5t-4 -14.5v-197q0 -30 -30 -30h-175q-30 0 -30 30v436q0 11 -3.5 14.5zM492.5 429q3.5 4 3.5 14v23q0 11 -3.5 14.5t-14.5 3.5h-146q-10 0 -14 -3.5
t-4 -14.5v-23q0 -10 4 -14t14 -4h146q11 0 14.5 4z" />
    <glyph glyph-name="Itilde" unicode="&#x128;" horiz-adv-x="345" 
d="M85 700h175q30 0 30 -30v-640q0 -30 -30 -30h-175q-30 0 -30 30v640q0 30 30 30zM-56 858q0 9 10 20q25 28 60.5 45t79.5 17q28 0 50.5 -6t49.5 -16q21 -8 35 -11.5t28 -3.5q20 0 35 7t32 22q10 8 17 8q8 0 16 -11l45 -68q6 -9 6 -16q0 -9 -10 -20q-25 -28 -60.5 -45
t-79.5 -17q-28 0 -50.5 6t-49.5 16q-21 8 -35 11.5t-28 3.5q-20 0 -35 -7t-32 -22q-10 -8 -17 -8q-8 0 -16 11l-45 68q-6 9 -6 16z" />
    <glyph glyph-name="itilde" unicode="&#x129;" horiz-adv-x="345" 
d="M85 700h175q30 0 30 -30v-640q0 -30 -30 -30h-175q-30 0 -30 30v640q0 30 30 30zM-56 858q0 9 10 20q25 28 60.5 45t79.5 17q28 0 50.5 -6t49.5 -16q21 -8 35 -11.5t28 -3.5q20 0 35 7t32 22q10 8 17 8q8 0 16 -11l45 -68q6 -9 6 -16q0 -9 -10 -20q-25 -28 -60.5 -45
t-79.5 -17q-28 0 -50.5 6t-49.5 16q-21 8 -35 11.5t-28 3.5q-20 0 -35 -7t-32 -22q-10 -8 -17 -8q-8 0 -16 11l-45 68q-6 9 -6 16z" />
    <glyph glyph-name="Imacron" unicode="&#x12a;" horiz-adv-x="345" 
d="M85 700h175q30 0 30 -30v-640q0 -30 -30 -30h-175q-30 0 -30 30v640q0 30 30 30zM22 924h300q30 0 30 -30v-90q0 -30 -30 -30h-300q-30 0 -30 30v90q0 30 30 30z" />
    <glyph glyph-name="imacron" unicode="&#x12b;" horiz-adv-x="345" 
d="M85 700h175q30 0 30 -30v-640q0 -30 -30 -30h-175q-30 0 -30 30v640q0 30 30 30zM22 924h300q30 0 30 -30v-90q0 -30 -30 -30h-300q-30 0 -30 30v90q0 30 30 30z" />
    <glyph glyph-name="Ibreve" unicode="&#x12c;" horiz-adv-x="345" 
d="M85 700h175q30 0 30 -30v-640q0 -30 -30 -30h-175q-30 0 -30 30v640q0 30 30 30zM85 966q7 -5 11 -18q7 -26 26 -42t50 -16t50 16t26 42q4 13 11 18t22 5h87q15 0 21 -6t6 -21q0 -53 -23 -97t-73 -70.5t-127 -26.5t-127 26.5t-73 70.5t-23 97q0 15 6 21t21 6h87
q15 0 22 -5z" />
    <glyph glyph-name="ibreve" unicode="&#x12d;" horiz-adv-x="345" 
d="M85 700h175q30 0 30 -30v-640q0 -30 -30 -30h-175q-30 0 -30 30v640q0 30 30 30zM85 966q7 -5 11 -18q7 -26 26 -42t50 -16t50 16t26 42q4 13 11 18t22 5h87q15 0 21 -6t6 -21q0 -53 -23 -97t-73 -70.5t-127 -26.5t-127 26.5t-73 70.5t-23 97q0 15 6 21t21 6h87
q15 0 22 -5z" />
    <glyph glyph-name="Iogonek" unicode="&#x12e;" horiz-adv-x="345" 
d="M85 700h175q30 0 30 -30v-640q0 -30 -30 -30h-53q-32 -15 -50 -37.5t-18 -48.5q0 -24 16 -38.5t41 -14.5q34 0 62 16q8 5 13 5q8 0 12 -10l31 -58q3 -6 3 -11q0 -10 -12 -17q-54 -36 -123 -36q-49 0 -86.5 17.5t-58 49t-20.5 71.5q0 32 15 61t43 52q-20 5 -20 29v640
q0 30 30 30z" />
    <glyph glyph-name="iogonek" unicode="&#x12f;" horiz-adv-x="345" 
d="M85 700h175q30 0 30 -30v-640q0 -30 -30 -30h-53q-32 -15 -50 -37.5t-18 -48.5q0 -24 16 -38.5t41 -14.5q34 0 62 16q8 5 13 5q8 0 12 -10l31 -58q3 -6 3 -11q0 -10 -12 -17q-54 -36 -123 -36q-49 0 -86.5 17.5t-58 49t-20.5 71.5q0 32 15 61t43 52q-20 5 -20 29v640
q0 30 30 30z" />
    <glyph glyph-name="Idotaccent" unicode="&#x130;" horiz-adv-x="345" 
d="M85 700h175q30 0 30 -30v-640q0 -30 -30 -30h-175q-30 0 -30 30v640q0 30 30 30zM77.5 900.5q13.5 22.5 38 35.5t56.5 13t56.5 -13t38 -35.5t13.5 -51.5q0 -28 -13.5 -50.5t-38.5 -35.5t-56 -13t-56 13t-38.5 35.5t-13.5 50.5q0 29 13.5 51.5z" />
    <glyph glyph-name="dotlessi" unicode="&#x131;" horiz-adv-x="345" 
d="M85 700h175q30 0 30 -30v-640q0 -30 -30 -30h-175q-30 0 -30 30v640q0 30 30 30zM81 1005q15 0 34 -14l203 -147q13 -10 13 -20t-14 -21l-58 -43q-12 -9 -24 -9q-11 0 -30 10l-232 125q-20 11 -20 25q0 11 16 23l79 57q20 14 33 14z" />
    <glyph glyph-name="IJ" unicode="&#x132;" horiz-adv-x="708" 
d="M85 700h175q30 0 30 -30v-640q0 -30 -30 -30h-175q-30 0 -30 30v640q0 30 30 30zM313 -21q9 0 23 -2t23 -2q32 0 46 20t14 61v614q0 30 30 30h175q30 0 30 -30v-623q0 -80 -25 -140t-77.5 -93.5t-133.5 -33.5q-71 0 -114 12q-15 4 -20 9t-4 16l16 145q2 17 17 17z" />
    <glyph glyph-name="ij" unicode="&#x133;" horiz-adv-x="708" 
d="M85 700h175q30 0 30 -30v-640q0 -30 -30 -30h-175q-30 0 -30 30v640q0 30 30 30zM313 -21q9 0 23 -2t23 -2q32 0 46 20t14 61v614q0 30 30 30h175q30 0 30 -30v-623q0 -80 -25 -140t-77.5 -93.5t-133.5 -33.5q-71 0 -114 12q-15 4 -20 9t-4 16l16 145q2 17 17 17z" />
    <glyph glyph-name="Jcircumflex" unicode="&#x134;" horiz-adv-x="362" 
d="M-32 -21q9 0 23 -2t23 -2q32 0 46 20t14 61v614q0 30 30 30h175q30 0 30 -30v-623q0 -80 -25 -140t-77.5 -93.5t-133.5 -33.5q-71 0 -114 12q-15 4 -20 9t-4 16l16 145q2 17 17 17zM119.5 974.5q9.5 3.5 29.5 3.5h84q20 0 29.5 -3.5t23.5 -16.5l140 -123q12 -10 12 -19
q0 -10 -16 -18l-78 -41q-16 -7 -23 -7q-15 0 -31 16l-99 90l-99 -90q-16 -16 -31 -16q-7 0 -23 7l-78 41q-16 8 -16 18q0 9 12 19l140 123q14 13 23.5 16.5z" />
    <glyph glyph-name="jcircumflex" unicode="&#x135;" horiz-adv-x="362" 
d="M-32 -21q9 0 23 -2t23 -2q32 0 46 20t14 61v614q0 30 30 30h175q30 0 30 -30v-623q0 -80 -25 -140t-77.5 -93.5t-133.5 -33.5q-71 0 -114 12q-15 4 -20 9t-4 16l16 145q2 17 17 17zM119.5 974.5q9.5 3.5 29.5 3.5h84q20 0 29.5 -3.5t23.5 -16.5l140 -123q12 -10 12 -19
q0 -10 -16 -18l-78 -41q-16 -7 -23 -7q-15 0 -31 16l-99 90l-99 -90q-16 -16 -31 -16q-7 0 -23 7l-78 41q-16 8 -16 18q0 9 12 19l140 123q14 13 23.5 16.5z" />
    <glyph glyph-name="Kcommaaccent" unicode="&#x136;" horiz-adv-x="770" 
d="M85 700h175q30 0 30 -30v-640q0 -30 -30 -30h-175q-30 0 -30 30v640q0 30 30 30zM302 350q0 12 10 28l176 293q11 18 21 23.5t32 5.5h197q24 0 24 -15q0 -6 -6 -17l-203 -310l210 -326q6 -10 6 -17q0 -15 -24 -15h-202q-23 0 -33.5 5.5t-20.5 22.5l-178 297q-9 15 -9 25z
M309 -173.5q-18 19.5 -18 52.5q0 26 13.5 46.5t37.5 31.5t57 11q51 0 80 -24t29 -67q0 -26 -9.5 -49.5t-33.5 -64.5l-16 -27q-8 -14 -17.5 -19t-28.5 -5h-63q-12 0 -19 3.5t-7 10.5t7 17l35 57q-29 7 -47 26.5z" />
    <glyph glyph-name="kcommaaccent" unicode="&#x137;" horiz-adv-x="770" 
d="M85 700h175q30 0 30 -30v-640q0 -30 -30 -30h-175q-30 0 -30 30v640q0 30 30 30zM302 350q0 12 10 28l176 293q11 18 21 23.5t32 5.5h197q24 0 24 -15q0 -6 -6 -17l-203 -310l210 -326q6 -10 6 -17q0 -15 -24 -15h-202q-23 0 -33.5 5.5t-20.5 22.5l-178 297q-9 15 -9 25z
M309 -173.5q-18 19.5 -18 52.5q0 26 13.5 46.5t37.5 31.5t57 11q51 0 80 -24t29 -67q0 -26 -9.5 -49.5t-33.5 -64.5l-16 -27q-8 -14 -17.5 -19t-28.5 -5h-63q-12 0 -19 3.5t-7 10.5t7 17l35 57q-29 7 -47 26.5z" />
    <glyph glyph-name="kgreenlandic" unicode="&#x138;" horiz-adv-x="770" 
d="M85 700h175q30 0 30 -30v-640q0 -30 -30 -30h-175q-30 0 -30 30v640q0 30 30 30zM302 350q0 12 10 28l176 293q11 18 21 23.5t32 5.5h197q24 0 24 -15q0 -6 -6 -17l-203 -310l210 -326q6 -10 6 -17q0 -15 -24 -15h-202q-23 0 -33.5 5.5t-20.5 22.5l-178 297q-9 15 -9 25z
" />
    <glyph glyph-name="Lacute" unicode="&#x139;" horiz-adv-x="578" 
d="M85 700h175q30 0 30 -30v-444q0 -10 4 -14t14 -4h225q30 0 30 -30v-148q0 -30 -30 -30h-448q-30 0 -30 30v640q0 30 30 30zM32 824q0 10 13 20l203 147q19 14 34 14q13 0 33 -14l79 -57q16 -12 16 -23q0 -14 -20 -25l-232 -125q-19 -10 -30 -10q-10 0 -24 9l-58 43
q-14 11 -14 21z" />
    <glyph glyph-name="lacute" unicode="&#x13a;" horiz-adv-x="578" 
d="M85 700h175q30 0 30 -30v-444q0 -10 4 -14t14 -4h225q30 0 30 -30v-148q0 -30 -30 -30h-448q-30 0 -30 30v640q0 30 30 30zM32 824q0 10 13 20l203 147q19 14 34 14q13 0 33 -14l79 -57q16 -12 16 -23q0 -14 -20 -25l-232 -125q-19 -10 -30 -10q-10 0 -24 9l-58 43
q-14 11 -14 21z" />
    <glyph glyph-name="Lcommaaccent" unicode="&#x13b;" horiz-adv-x="578" 
d="M85 700h175q30 0 30 -30v-444q0 -10 4 -14t14 -4h225q30 0 30 -30v-148q0 -30 -30 -30h-448q-30 0 -30 30v640q0 30 30 30zM215 -173.5q-18 19.5 -18 52.5q0 26 13.5 46.5t37.5 31.5t57 11q51 0 80 -24t29 -67q0 -26 -9.5 -49.5t-33.5 -64.5l-16 -27q-8 -14 -17.5 -19
t-28.5 -5h-63q-12 0 -19 3.5t-7 10.5t7 17l35 57q-29 7 -47 26.5z" />
    <glyph glyph-name="lcommaaccent" unicode="&#x13c;" horiz-adv-x="578" 
d="M85 700h175q30 0 30 -30v-444q0 -10 4 -14t14 -4h225q30 0 30 -30v-148q0 -30 -30 -30h-448q-30 0 -30 30v640q0 30 30 30zM215 -173.5q-18 19.5 -18 52.5q0 26 13.5 46.5t37.5 31.5t57 11q51 0 80 -24t29 -67q0 -26 -9.5 -49.5t-33.5 -64.5l-16 -27q-8 -14 -17.5 -19
t-28.5 -5h-63q-12 0 -19 3.5t-7 10.5t7 17l35 57q-29 7 -47 26.5z" />
    <glyph glyph-name="Lcaron" unicode="&#x13d;" horiz-adv-x="621" 
d="M85 700h175q30 0 30 -30v-444q0 -10 4 -14t14 -4h225q30 0 30 -30v-148q0 -30 -30 -30h-448q-30 0 -30 30v640q0 30 30 30zM386 550.5q-24 24.5 -24 62.5q0 30 15 53t42 36t63 13q34 0 59.5 -13t40 -37t14.5 -55q0 -30 -10.5 -58t-35.5 -74l-39 -70q-7 -13 -12.5 -19
t-13.5 -8.5t-23 -2.5h-66q-23 0 -23 12q0 10 10 24l62 105q-35 7 -59 31.5z" />
    <glyph glyph-name="lcaron" unicode="&#x13e;" horiz-adv-x="621" 
d="M85 700h175q30 0 30 -30v-444q0 -10 4 -14t14 -4h225q30 0 30 -30v-148q0 -30 -30 -30h-448q-30 0 -30 30v640q0 30 30 30zM386 550.5q-24 24.5 -24 62.5q0 30 15 53t42 36t63 13q34 0 59.5 -13t40 -37t14.5 -55q0 -30 -10.5 -58t-35.5 -74l-39 -70q-7 -13 -12.5 -19
t-13.5 -8.5t-23 -2.5h-66q-23 0 -23 12q0 10 10 24l62 105q-35 7 -59 31.5z" />
    <glyph glyph-name="Ldot" unicode="&#x13f;" horiz-adv-x="578" 
d="M85 700h175q30 0 30 -30v-444q0 -10 4 -14t14 -4h225q30 0 30 -30v-148q0 -30 -30 -30h-448q-30 0 -30 30v640q0 30 30 30zM365.5 452.5q13.5 22.5 38 35.5t56.5 13t56.5 -13t38 -35.5t13.5 -51.5q0 -28 -13.5 -50.5t-38.5 -35.5t-56 -13t-56 13t-38.5 35.5t-13.5 50.5
q0 29 13.5 51.5z" />
    <glyph glyph-name="ldot" unicode="&#x140;" horiz-adv-x="578" 
d="M85 700h175q30 0 30 -30v-444q0 -10 4 -14t14 -4h225q30 0 30 -30v-148q0 -30 -30 -30h-448q-30 0 -30 30v640q0 30 30 30zM365.5 452.5q13.5 22.5 38 35.5t56.5 13t56.5 -13t38 -35.5t13.5 -51.5q0 -28 -13.5 -50.5t-38.5 -35.5t-56 -13t-56 13t-38.5 35.5t-13.5 50.5
q0 29 13.5 51.5z" />
    <glyph glyph-name="Lslash" unicode="&#x141;" horiz-adv-x="597" 
d="M33 204q-8 -4 -16 -4q-17 0 -17 23v123q0 18 6 27.5t22 17.5l46 22v257q0 30 30 30h175q30 0 30 -30v-142l95 46q8 4 16 4q17 0 17 -23v-123q0 -18 -6 -27.5t-22 -17.5l-100 -49v-112q0 -10 4 -14t14 -4h225q30 0 30 -30v-148q0 -30 -30 -30h-448q-30 0 -30 30v194z" />
    <glyph glyph-name="lslash" unicode="&#x142;" horiz-adv-x="597" 
d="M33 204q-8 -4 -16 -4q-17 0 -17 23v123q0 18 6 27.5t22 17.5l46 22v257q0 30 30 30h175q30 0 30 -30v-142l95 46q8 4 16 4q17 0 17 -23v-123q0 -18 -6 -27.5t-22 -17.5l-100 -49v-112q0 -10 4 -14t14 -4h225q30 0 30 -30v-148q0 -30 -30 -30h-448q-30 0 -30 30v194z" />
    <glyph glyph-name="Nacute" unicode="&#x143;" horiz-adv-x="782" 
d="M85 715q11 0 24 -7.5t39 -28.5l344 -268v259q0 30 30 30h175q30 0 30 -30v-641q0 -44 -30 -44q-11 0 -24 7.5t-39 28.5l-344 268v-259q0 -30 -30 -30h-175q-30 0 -30 30v641q0 44 30 44zM251 824q0 10 13 20l203 147q19 14 34 14q13 0 33 -14l79 -57q16 -12 16 -23
q0 -14 -20 -25l-232 -125q-19 -10 -30 -10q-10 0 -24 9l-58 43q-14 11 -14 21z" />
    <glyph glyph-name="nacute" unicode="&#x144;" horiz-adv-x="782" 
d="M85 715q11 0 24 -7.5t39 -28.5l344 -268v259q0 30 30 30h175q30 0 30 -30v-641q0 -44 -30 -44q-11 0 -24 7.5t-39 28.5l-344 268v-259q0 -30 -30 -30h-175q-30 0 -30 30v641q0 44 30 44zM251 824q0 10 13 20l203 147q19 14 34 14q13 0 33 -14l79 -57q16 -12 16 -23
q0 -14 -20 -25l-232 -125q-19 -10 -30 -10q-10 0 -24 9l-58 43q-14 11 -14 21z" />
    <glyph glyph-name="Ncommaaccent" unicode="&#x145;" horiz-adv-x="782" 
d="M85 715q11 0 24 -7.5t39 -28.5l344 -268v259q0 30 30 30h175q30 0 30 -30v-641q0 -44 -30 -44q-11 0 -24 7.5t-39 28.5l-344 268v-259q0 -30 -30 -30h-175q-30 0 -30 30v641q0 44 30 44zM306 -173.5q-18 19.5 -18 52.5q0 26 13.5 46.5t37.5 31.5t57 11q51 0 80 -24
t29 -67q0 -26 -9.5 -49.5t-33.5 -64.5l-16 -27q-8 -14 -17.5 -19t-28.5 -5h-63q-12 0 -19 3.5t-7 10.5t7 17l35 57q-29 7 -47 26.5z" />
    <glyph glyph-name="ncommaaccent" unicode="&#x146;" horiz-adv-x="782" 
d="M85 715q11 0 24 -7.5t39 -28.5l344 -268v259q0 30 30 30h175q30 0 30 -30v-641q0 -44 -30 -44q-11 0 -24 7.5t-39 28.5l-344 268v-259q0 -30 -30 -30h-175q-30 0 -30 30v641q0 44 30 44zM306 -173.5q-18 19.5 -18 52.5q0 26 13.5 46.5t37.5 31.5t57 11q51 0 80 -24
t29 -67q0 -26 -9.5 -49.5t-33.5 -64.5l-16 -27q-8 -14 -17.5 -19t-28.5 -5h-63q-12 0 -19 3.5t-7 10.5t7 17l35 57q-29 7 -47 26.5z" />
    <glyph glyph-name="Ncaron" unicode="&#x147;" horiz-adv-x="782" 
d="M85 715q11 0 24 -7.5t39 -28.5l344 -268v259q0 30 30 30h175q30 0 30 -30v-641q0 -44 -30 -44q-11 0 -24 7.5t-39 28.5l-344 268v-259q0 -30 -30 -30h-175q-30 0 -30 30v641q0 44 30 44zM144 912q0 10 16 18l78 41q16 7 23 7q15 0 31 -16l99 -90l99 90q16 16 31 16
q7 0 23 -7l78 -41q16 -8 16 -18q0 -8 -12 -19l-140 -123q-14 -13 -23.5 -16.5t-29.5 -3.5h-84q-20 0 -29.5 3.5t-23.5 16.5l-140 123q-12 11 -12 19z" />
    <glyph glyph-name="ncaron" unicode="&#x148;" horiz-adv-x="782" 
d="M85 715q11 0 24 -7.5t39 -28.5l344 -268v259q0 30 30 30h175q30 0 30 -30v-641q0 -44 -30 -44q-11 0 -24 7.5t-39 28.5l-344 268v-259q0 -30 -30 -30h-175q-30 0 -30 30v641q0 44 30 44zM144 912q0 10 16 18l78 41q16 7 23 7q15 0 31 -16l99 -90l99 90q16 16 31 16
q7 0 23 -7l78 -41q16 -8 16 -18q0 -8 -12 -19l-140 -123q-14 -13 -23.5 -16.5t-29.5 -3.5h-84q-20 0 -29.5 3.5t-23.5 16.5l-140 123q-12 11 -12 19z" />
    <glyph glyph-name="napostrophe" unicode="&#x149;" horiz-adv-x="782" 
d="M85 715q11 0 24 -7.5t39 -28.5l344 -268v259q0 30 30 30h175q30 0 30 -30v-641q0 -44 -30 -44q-11 0 -24 7.5t-39 28.5l-344 268v-259q0 -30 -30 -30h-175q-30 0 -30 30v641q0 44 30 44zM-226 526.5q-24 28.5 -24 71.5q0 34 16 60.5t44.5 41.5t64.5 15q38 0 66 -14.5
t43.5 -41.5t15.5 -64q0 -35 -11.5 -69.5t-37.5 -81.5l-37 -68q-10 -18 -21 -24.5t-33 -6.5h-66q-29 0 -29 17q0 8 7 21l61 107q-35 8 -59 36.5z" />
    <glyph glyph-name="Eng" unicode="&#x14a;" horiz-adv-x="782" 
d="M85 715q11 0 24 -7.5t39 -28.5l344 -268v259q0 30 30 30h175q30 0 30 -30v-630q0 -77 -25.5 -135.5t-78.5 -91.5t-132 -33q-71 0 -114 12q-15 4 -20 9t-4 16l16 145q2 17 17 17q9 0 23 -2t23 -2q32 0 46 20t14 61v75l-202 158v-259q0 -30 -30 -30h-175q-30 0 -30 30v641
q0 44 30 44z" />
    <glyph glyph-name="eng" unicode="&#x14b;" horiz-adv-x="782" 
d="M85 715q11 0 24 -7.5t39 -28.5l344 -268v259q0 30 30 30h175q30 0 30 -30v-630q0 -77 -25.5 -135.5t-78.5 -91.5t-132 -33q-71 0 -114 12q-15 4 -20 9t-4 16l16 145q2 17 17 17q9 0 23 -2t23 -2q32 0 46 20t14 61v75l-202 158v-259q0 -30 -30 -30h-175q-30 0 -30 30v641
q0 44 30 44z" />
    <glyph glyph-name="Omacron" unicode="&#x14c;" horiz-adv-x="830" 
d="M79 539.5q49 83.5 136.5 129.5t198.5 46q112 0 200 -46t137 -129.5t49 -190.5t-49 -189.5t-137 -128.5t-200 -46t-199 46t-136 128.5t-49 189.5t49 190.5zM489.5 215q33.5 18 52.5 52.5t19 81.5t-19 82t-52.5 53.5t-75.5 18.5t-75 -18.5t-51.5 -53.5t-18.5 -82
t18.5 -81.5t51.5 -52.5t75 -18t75.5 18zM265 924h300q30 0 30 -30v-90q0 -30 -30 -30h-300q-30 0 -30 30v90q0 30 30 30z" />
    <glyph glyph-name="omacron" unicode="&#x14d;" horiz-adv-x="830" 
d="M79 539.5q49 83.5 136.5 129.5t198.5 46q112 0 200 -46t137 -129.5t49 -190.5t-49 -189.5t-137 -128.5t-200 -46t-199 46t-136 128.5t-49 189.5t49 190.5zM489.5 215q33.5 18 52.5 52.5t19 81.5t-19 82t-52.5 53.5t-75.5 18.5t-75 -18.5t-51.5 -53.5t-18.5 -82
t18.5 -81.5t51.5 -52.5t75 -18t75.5 18zM265 924h300q30 0 30 -30v-90q0 -30 -30 -30h-300q-30 0 -30 30v90q0 30 30 30z" />
    <glyph glyph-name="Obreve" unicode="&#x14e;" horiz-adv-x="830" 
d="M79 539.5q49 83.5 136.5 129.5t198.5 46q112 0 200 -46t137 -129.5t49 -190.5t-49 -189.5t-137 -128.5t-200 -46t-199 46t-136 128.5t-49 189.5t49 190.5zM489.5 215q33.5 18 52.5 52.5t19 81.5t-19 82t-52.5 53.5t-75.5 18.5t-75 -18.5t-51.5 -53.5t-18.5 -82
t18.5 -81.5t51.5 -52.5t75 -18t75.5 18zM328 966q7 -5 11 -18q7 -26 26 -42t50 -16t50 16t26 42q4 13 11 18t22 5h87q15 0 21 -6t6 -21q0 -53 -23 -97t-73 -70.5t-127 -26.5t-127 26.5t-73 70.5t-23 97q0 15 6 21t21 6h87q15 0 22 -5z" />
    <glyph glyph-name="obreve" unicode="&#x14f;" horiz-adv-x="830" 
d="M79 539.5q49 83.5 136.5 129.5t198.5 46q112 0 200 -46t137 -129.5t49 -190.5t-49 -189.5t-137 -128.5t-200 -46t-199 46t-136 128.5t-49 189.5t49 190.5zM489.5 215q33.5 18 52.5 52.5t19 81.5t-19 82t-52.5 53.5t-75.5 18.5t-75 -18.5t-51.5 -53.5t-18.5 -82
t18.5 -81.5t51.5 -52.5t75 -18t75.5 18zM328 966q7 -5 11 -18q7 -26 26 -42t50 -16t50 16t26 42q4 13 11 18t22 5h87q15 0 21 -6t6 -21q0 -53 -23 -97t-73 -70.5t-127 -26.5t-127 26.5t-73 70.5t-23 97q0 15 6 21t21 6h87q15 0 22 -5z" />
    <glyph glyph-name="Ohungarumlaut" unicode="&#x150;" horiz-adv-x="830" 
d="M79 539.5q49 83.5 136.5 129.5t198.5 46q112 0 200 -46t137 -129.5t49 -190.5t-49 -189.5t-137 -128.5t-200 -46t-199 46t-136 128.5t-49 189.5t49 190.5zM489.5 215q33.5 18 52.5 52.5t19 81.5t-19 82t-52.5 53.5t-75.5 18.5t-75 -18.5t-51.5 -53.5t-18.5 -82
t18.5 -81.5t51.5 -52.5t75 -18t75.5 18zM348 998q8 5 17 5q10 0 27 -6l90 -32q13 -4 19.5 -10.5t6.5 -13.5q0 -11 -16 -25l-166 -149q-20 -17 -35 -17q-8 0 -24 7l-66 31q-19 9 -19 21q0 10 10 20l138 153q10 11 18 16zM441 810q0 5 3 10.5t9 10.5l169 153q11 10 20.5 14.5
t19.5 4.5q12 0 27 -6l88 -39q24 -10 24 -24q0 -11 -19 -25l-198 -142q-13 -9 -22 -13t-18 -4q-8 0 -24 7l-64 33q-15 8 -15 20z" />
    <glyph glyph-name="ohungarumlaut" unicode="&#x151;" horiz-adv-x="830" 
d="M79 539.5q49 83.5 136.5 129.5t198.5 46q112 0 200 -46t137 -129.5t49 -190.5t-49 -189.5t-137 -128.5t-200 -46t-199 46t-136 128.5t-49 189.5t49 190.5zM489.5 215q33.5 18 52.5 52.5t19 81.5t-19 82t-52.5 53.5t-75.5 18.5t-75 -18.5t-51.5 -53.5t-18.5 -82
t18.5 -81.5t51.5 -52.5t75 -18t75.5 18zM348 998q8 5 17 5q10 0 27 -6l90 -32q13 -4 19.5 -10.5t6.5 -13.5q0 -11 -16 -25l-166 -149q-20 -17 -35 -17q-8 0 -24 7l-66 31q-19 9 -19 21q0 10 10 20l138 153q10 11 18 16zM441 810q0 5 3 10.5t9 10.5l169 153q11 10 20.5 14.5
t19.5 4.5q12 0 27 -6l88 -39q24 -10 24 -24q0 -11 -19 -25l-198 -142q-13 -9 -22 -13t-18 -4q-8 0 -24 7l-64 33q-15 8 -15 20z" />
    <glyph glyph-name="OE" unicode="&#x152;" horiz-adv-x="1072" 
d="M1037 150v-120q0 -30 -30 -30h-385q-16 0 -37.5 -2l-42.5 -4q-29 -3 -64 -6t-70 -3q-110 0 -196 45.5t-134 128.5t-48 190t48 190.5t135 129.5t199 46q33 0 66.5 -3t62.5 -6l43 -4t38 -2h384q30 0 30 -30v-120q0 -30 -30 -30h-224q-10 0 -14 -3.5t-4 -14.5v-46
q0 -10 4 -14t14 -4h191q30 0 30 -30v-115q0 -30 -30 -30h-191q-10 0 -14 -3.5t-4 -14.5v-47q0 -10 4 -14t14 -4h225q30 0 30 -30zM525 482.5q-4 5.5 -13 8.5q-35 12 -89 12q-46 0 -81 -18.5t-54 -53.5t-19 -82t19 -81.5t54 -52.5t81 -18q54 0 89 12q9 3 13 8.5t4 16.5v232
q0 11 -4 16.5z" />
    <glyph glyph-name="oe" unicode="&#x153;" horiz-adv-x="1072" 
d="M1037 150v-120q0 -30 -30 -30h-385q-16 0 -37.5 -2l-42.5 -4q-29 -3 -64 -6t-70 -3q-110 0 -196 45.5t-134 128.5t-48 190t48 190.5t135 129.5t199 46q33 0 66.5 -3t62.5 -6l43 -4t38 -2h384q30 0 30 -30v-120q0 -30 -30 -30h-224q-10 0 -14 -3.5t-4 -14.5v-46
q0 -10 4 -14t14 -4h191q30 0 30 -30v-115q0 -30 -30 -30h-191q-10 0 -14 -3.5t-4 -14.5v-47q0 -10 4 -14t14 -4h225q30 0 30 -30zM525 482.5q-4 5.5 -13 8.5q-35 12 -89 12q-46 0 -81 -18.5t-54 -53.5t-19 -82t19 -81.5t54 -52.5t81 -18q54 0 89 12q9 3 13 8.5t4 16.5v232
q0 11 -4 16.5z" />
    <glyph glyph-name="Racute" unicode="&#x154;" horiz-adv-x="725" 
d="M85 700h270q112 0 185 -24.5t109.5 -77t36.5 -135.5q0 -66 -26.5 -108t-80.5 -71l145 -251q5 -7 5 -17q0 -16 -26 -16h-179q-25 0 -36.5 6.5t-21.5 26.5l-141 266q-5 12 -5 17q0 12 23 16q46 7 75 32t29 66q0 45 -28 66.5t-88 21.5h-23q-10 0 -14 -3.5t-4 -14.5v-470
q0 -30 -30 -30h-175q-30 0 -30 30v640q0 30 30 30zM215 824q0 10 13 20l203 147q19 14 34 14q13 0 33 -14l79 -57q16 -12 16 -23q0 -14 -20 -25l-232 -125q-19 -10 -30 -10q-10 0 -24 9l-58 43q-14 11 -14 21z" />
    <glyph glyph-name="racute" unicode="&#x155;" horiz-adv-x="725" 
d="M85 700h270q112 0 185 -24.5t109.5 -77t36.5 -135.5q0 -66 -26.5 -108t-80.5 -71l145 -251q5 -7 5 -17q0 -16 -26 -16h-179q-25 0 -36.5 6.5t-21.5 26.5l-141 266q-5 12 -5 17q0 12 23 16q46 7 75 32t29 66q0 45 -28 66.5t-88 21.5h-23q-10 0 -14 -3.5t-4 -14.5v-470
q0 -30 -30 -30h-175q-30 0 -30 30v640q0 30 30 30zM215 824q0 10 13 20l203 147q19 14 34 14q13 0 33 -14l79 -57q16 -12 16 -23q0 -14 -20 -25l-232 -125q-19 -10 -30 -10q-10 0 -24 9l-58 43q-14 11 -14 21z" />
    <glyph glyph-name="Rcommaaccent" unicode="&#x156;" horiz-adv-x="725" 
d="M85 700h270q112 0 185 -24.5t109.5 -77t36.5 -135.5q0 -66 -26.5 -108t-80.5 -71l145 -251q5 -7 5 -17q0 -16 -26 -16h-179q-25 0 -36.5 6.5t-21.5 26.5l-141 266q-5 12 -5 17q0 12 23 16q46 7 75 32t29 66q0 45 -28 66.5t-88 21.5h-23q-10 0 -14 -3.5t-4 -14.5v-470
q0 -30 -30 -30h-175q-30 0 -30 30v640q0 30 30 30zM280 -173.5q-18 19.5 -18 52.5q0 26 13.5 46.5t37.5 31.5t57 11q51 0 80 -24t29 -67q0 -26 -9.5 -49.5t-33.5 -64.5l-16 -27q-8 -14 -17.5 -19t-28.5 -5h-63q-12 0 -19 3.5t-7 10.5t7 17l35 57q-29 7 -47 26.5z" />
    <glyph glyph-name="rcommaaccent" unicode="&#x157;" horiz-adv-x="725" 
d="M85 700h270q112 0 185 -24.5t109.5 -77t36.5 -135.5q0 -66 -26.5 -108t-80.5 -71l145 -251q5 -7 5 -17q0 -16 -26 -16h-179q-25 0 -36.5 6.5t-21.5 26.5l-141 266q-5 12 -5 17q0 12 23 16q46 7 75 32t29 66q0 45 -28 66.5t-88 21.5h-23q-10 0 -14 -3.5t-4 -14.5v-470
q0 -30 -30 -30h-175q-30 0 -30 30v640q0 30 30 30zM280 -173.5q-18 19.5 -18 52.5q0 26 13.5 46.5t37.5 31.5t57 11q51 0 80 -24t29 -67q0 -26 -9.5 -49.5t-33.5 -64.5l-16 -27q-8 -14 -17.5 -19t-28.5 -5h-63q-12 0 -19 3.5t-7 10.5t7 17l35 57q-29 7 -47 26.5z" />
    <glyph glyph-name="Rcaron" unicode="&#x158;" horiz-adv-x="725" 
d="M85 700h270q112 0 185 -24.5t109.5 -77t36.5 -135.5q0 -66 -26.5 -108t-80.5 -71l145 -251q5 -7 5 -17q0 -16 -26 -16h-179q-25 0 -36.5 6.5t-21.5 26.5l-141 266q-5 12 -5 17q0 12 23 16q46 7 75 32t29 66q0 45 -28 66.5t-88 21.5h-23q-10 0 -14 -3.5t-4 -14.5v-470
q0 -30 -30 -30h-175q-30 0 -30 30v640q0 30 30 30zM108 912q0 10 16 18l78 41q16 7 23 7q15 0 31 -16l99 -90l99 90q16 16 31 16q7 0 23 -7l78 -41q16 -8 16 -18q0 -8 -12 -19l-140 -123q-14 -13 -23.5 -16.5t-29.5 -3.5h-84q-20 0 -29.5 3.5t-23.5 16.5l-140 123
q-12 11 -12 19z" />
    <glyph glyph-name="rcaron" unicode="&#x159;" horiz-adv-x="725" 
d="M85 700h270q112 0 185 -24.5t109.5 -77t36.5 -135.5q0 -66 -26.5 -108t-80.5 -71l145 -251q5 -7 5 -17q0 -16 -26 -16h-179q-25 0 -36.5 6.5t-21.5 26.5l-141 266q-5 12 -5 17q0 12 23 16q46 7 75 32t29 66q0 45 -28 66.5t-88 21.5h-23q-10 0 -14 -3.5t-4 -14.5v-470
q0 -30 -30 -30h-175q-30 0 -30 30v640q0 30 30 30zM108 912q0 10 16 18l78 41q16 7 23 7q15 0 31 -16l99 -90l99 90q16 16 31 16q7 0 23 -7l78 -41q16 -8 16 -18q0 -8 -12 -19l-140 -123q-14 -13 -23.5 -16.5t-29.5 -3.5h-84q-20 0 -29.5 3.5t-23.5 16.5l-140 123
q-12 11 -12 19z" />
    <glyph glyph-name="Sacute" unicode="&#x15a;" horiz-adv-x="629" 
d="M101 242q6 4 12 4q9 0 21 -9q35 -25 78 -41t84 -16q64 0 64 31q0 12 -9 19.5t-29 14t-62 17.5q-77 20 -125.5 46.5t-73.5 68t-25 104.5q0 74 36 126.5t99 80t143 27.5q150 0 269 -95q14 -11 14 -22q0 -10 -9 -22l-74 -107q-9 -13 -19 -13q-9 0 -21 9q-35 27 -74.5 42
t-75.5 15q-26 0 -38.5 -8t-12.5 -23q0 -12 8.5 -19.5t26.5 -13.5t56 -15q79 -19 130.5 -46.5t78 -69.5t26.5 -102q0 -74 -36 -128t-102 -83t-155 -29q-82 0 -152 25.5t-126 68.5q-17 13 -17 27q0 11 9 24l69 99q6 9 12 13zM174 824q0 10 13 20l203 147q19 14 34 14
q13 0 33 -14l79 -57q16 -12 16 -23q0 -14 -20 -25l-232 -125q-19 -10 -30 -10q-10 0 -24 9l-58 43q-14 11 -14 21z" />
    <glyph glyph-name="sacute" unicode="&#x15b;" horiz-adv-x="629" 
d="M101 242q6 4 12 4q9 0 21 -9q35 -25 78 -41t84 -16q64 0 64 31q0 12 -9 19.5t-29 14t-62 17.5q-77 20 -125.5 46.5t-73.5 68t-25 104.5q0 74 36 126.5t99 80t143 27.5q150 0 269 -95q14 -11 14 -22q0 -10 -9 -22l-74 -107q-9 -13 -19 -13q-9 0 -21 9q-35 27 -74.5 42
t-75.5 15q-26 0 -38.5 -8t-12.5 -23q0 -12 8.5 -19.5t26.5 -13.5t56 -15q79 -19 130.5 -46.5t78 -69.5t26.5 -102q0 -74 -36 -128t-102 -83t-155 -29q-82 0 -152 25.5t-126 68.5q-17 13 -17 27q0 11 9 24l69 99q6 9 12 13zM174 824q0 10 13 20l203 147q19 14 34 14
q13 0 33 -14l79 -57q16 -12 16 -23q0 -14 -20 -25l-232 -125q-19 -10 -30 -10q-10 0 -24 9l-58 43q-14 11 -14 21z" />
    <glyph glyph-name="Scircumflex" unicode="&#x15c;" horiz-adv-x="629" 
d="M101 242q6 4 12 4q9 0 21 -9q35 -25 78 -41t84 -16q64 0 64 31q0 12 -9 19.5t-29 14t-62 17.5q-77 20 -125.5 46.5t-73.5 68t-25 104.5q0 74 36 126.5t99 80t143 27.5q150 0 269 -95q14 -11 14 -22q0 -10 -9 -22l-74 -107q-9 -13 -19 -13q-9 0 -21 9q-35 27 -74.5 42
t-75.5 15q-26 0 -38.5 -8t-12.5 -23q0 -12 8.5 -19.5t26.5 -13.5t56 -15q79 -19 130.5 -46.5t78 -69.5t26.5 -102q0 -74 -36 -128t-102 -83t-155 -29q-82 0 -152 25.5t-126 68.5q-17 13 -17 27q0 11 9 24l69 99q6 9 12 13zM242.5 974.5q9.5 3.5 29.5 3.5h84q20 0 29.5 -3.5
t23.5 -16.5l140 -123q12 -10 12 -19q0 -10 -16 -18l-78 -41q-16 -7 -23 -7q-15 0 -31 16l-99 90l-99 -90q-16 -16 -31 -16q-7 0 -23 7l-78 41q-16 8 -16 18q0 9 12 19l140 123q14 13 23.5 16.5z" />
    <glyph glyph-name="scircumflex" unicode="&#x15d;" horiz-adv-x="629" 
d="M101 242q6 4 12 4q9 0 21 -9q35 -25 78 -41t84 -16q64 0 64 31q0 12 -9 19.5t-29 14t-62 17.5q-77 20 -125.5 46.5t-73.5 68t-25 104.5q0 74 36 126.5t99 80t143 27.5q150 0 269 -95q14 -11 14 -22q0 -10 -9 -22l-74 -107q-9 -13 -19 -13q-9 0 -21 9q-35 27 -74.5 42
t-75.5 15q-26 0 -38.5 -8t-12.5 -23q0 -12 8.5 -19.5t26.5 -13.5t56 -15q79 -19 130.5 -46.5t78 -69.5t26.5 -102q0 -74 -36 -128t-102 -83t-155 -29q-82 0 -152 25.5t-126 68.5q-17 13 -17 27q0 11 9 24l69 99q6 9 12 13zM242.5 974.5q9.5 3.5 29.5 3.5h84q20 0 29.5 -3.5
t23.5 -16.5l140 -123q12 -10 12 -19q0 -10 -16 -18l-78 -41q-16 -7 -23 -7q-15 0 -31 16l-99 90l-99 -90q-16 -16 -31 -16q-7 0 -23 7l-78 41q-16 8 -16 18q0 9 12 19l140 123q14 13 23.5 16.5z" />
    <glyph glyph-name="Scedilla" unicode="&#x15e;" horiz-adv-x="629" 
d="M211 -156q4 2 11 -1q30 -14 68 -14q26 0 40 7.5t14 20.5q0 27 -54 27q-25 0 -48 -5h-4q-6 0 -8 3.5t1 10.5l45 92q-71 4 -134.5 29.5t-113.5 64.5q-17 13 -17 27q0 11 9 24l69 99q6 9 12 13t12 4q9 0 21 -9q35 -25 78 -41t84 -16q64 0 64 31q0 12 -9 19.5t-29 14
t-62 17.5q-77 20 -125.5 46.5t-73.5 68t-25 104.5q0 74 36 126.5t99 80t143 27.5q150 0 269 -95q14 -11 14 -22q0 -10 -9 -22l-74 -107q-9 -13 -19 -13q-9 0 -21 9q-35 27 -74.5 42t-75.5 15q-26 0 -38.5 -8t-12.5 -23q0 -12 8.5 -19.5t26.5 -13.5t56 -15
q79 -19 130.5 -46.5t78 -69.5t26.5 -102q0 -66 -28.5 -116t-82.5 -81t-128 -40l-18 -37h3q47 0 75 -24t28 -66q0 -33 -19.5 -58t-53.5 -39t-78 -14q-63 0 -105 21q-12 6 -12 13q0 4 3 10l20 41q4 7 8 9z" />
    <glyph glyph-name="scedilla" unicode="&#x15f;" horiz-adv-x="629" 
d="M211 -156q4 2 11 -1q30 -14 68 -14q26 0 40 7.5t14 20.5q0 27 -54 27q-25 0 -48 -5h-4q-6 0 -8 3.5t1 10.5l45 92q-71 4 -134.5 29.5t-113.5 64.5q-17 13 -17 27q0 11 9 24l69 99q6 9 12 13t12 4q9 0 21 -9q35 -25 78 -41t84 -16q64 0 64 31q0 12 -9 19.5t-29 14
t-62 17.5q-77 20 -125.5 46.5t-73.5 68t-25 104.5q0 74 36 126.5t99 80t143 27.5q150 0 269 -95q14 -11 14 -22q0 -10 -9 -22l-74 -107q-9 -13 -19 -13q-9 0 -21 9q-35 27 -74.5 42t-75.5 15q-26 0 -38.5 -8t-12.5 -23q0 -12 8.5 -19.5t26.5 -13.5t56 -15
q79 -19 130.5 -46.5t78 -69.5t26.5 -102q0 -66 -28.5 -116t-82.5 -81t-128 -40l-18 -37h3q47 0 75 -24t28 -66q0 -33 -19.5 -58t-53.5 -39t-78 -14q-63 0 -105 21q-12 6 -12 13q0 4 3 10l20 41q4 7 8 9z" />
    <glyph glyph-name="Scaron" unicode="&#x160;" horiz-adv-x="629" 
d="M101 242q6 4 12 4q9 0 21 -9q35 -25 78 -41t84 -16q64 0 64 31q0 12 -9 19.5t-29 14t-62 17.5q-77 20 -125.5 46.5t-73.5 68t-25 104.5q0 74 36 126.5t99 80t143 27.5q150 0 269 -95q14 -11 14 -22q0 -10 -9 -22l-74 -107q-9 -13 -19 -13q-9 0 -21 9q-35 27 -74.5 42
t-75.5 15q-26 0 -38.5 -8t-12.5 -23q0 -12 8.5 -19.5t26.5 -13.5t56 -15q79 -19 130.5 -46.5t78 -69.5t26.5 -102q0 -74 -36 -128t-102 -83t-155 -29q-82 0 -152 25.5t-126 68.5q-17 13 -17 27q0 11 9 24l69 99q6 9 12 13zM67 912q0 10 16 18l78 41q16 7 23 7q15 0 31 -16
l99 -90l99 90q16 16 31 16q7 0 23 -7l78 -41q16 -8 16 -18q0 -8 -12 -19l-140 -123q-14 -13 -23.5 -16.5t-29.5 -3.5h-84q-20 0 -29.5 3.5t-23.5 16.5l-140 123q-12 11 -12 19z" />
    <glyph glyph-name="scaron" unicode="&#x161;" horiz-adv-x="629" 
d="M101 242q6 4 12 4q9 0 21 -9q35 -25 78 -41t84 -16q64 0 64 31q0 12 -9 19.5t-29 14t-62 17.5q-77 20 -125.5 46.5t-73.5 68t-25 104.5q0 74 36 126.5t99 80t143 27.5q150 0 269 -95q14 -11 14 -22q0 -10 -9 -22l-74 -107q-9 -13 -19 -13q-9 0 -21 9q-35 27 -74.5 42
t-75.5 15q-26 0 -38.5 -8t-12.5 -23q0 -12 8.5 -19.5t26.5 -13.5t56 -15q79 -19 130.5 -46.5t78 -69.5t26.5 -102q0 -74 -36 -128t-102 -83t-155 -29q-82 0 -152 25.5t-126 68.5q-17 13 -17 27q0 11 9 24l69 99q6 9 12 13zM67 912q0 10 16 18l78 41q16 7 23 7q15 0 31 -16
l99 -90l99 90q16 16 31 16q7 0 23 -7l78 -41q16 -8 16 -18q0 -8 -12 -19l-140 -123q-14 -13 -23.5 -16.5t-29.5 -3.5h-84q-20 0 -29.5 3.5t-23.5 16.5l-140 123q-12 11 -12 19z" />
    <glyph glyph-name="Tcommaaccent" unicode="&#x162;" horiz-adv-x="625" 
d="M191.5 488.5q-3.5 3.5 -14.5 3.5h-132q-30 0 -30 30v148q0 30 30 30h535q30 0 30 -30v-148q0 -30 -30 -30h-132q-10 0 -14 -3.5t-4 -14.5v-444q0 -30 -30 -30h-175q-30 0 -30 30v444q0 11 -3.5 14.5zM221 -173.5q-18 19.5 -18 52.5q0 26 13.5 46.5t37.5 31.5t57 11
q51 0 80 -24t29 -67q0 -26 -9.5 -49.5t-33.5 -64.5l-16 -27q-8 -14 -17.5 -19t-28.5 -5h-63q-12 0 -19 3.5t-7 10.5t7 17l35 57q-29 7 -47 26.5z" />
    <glyph glyph-name="tcommaaccent" unicode="&#x163;" horiz-adv-x="625" 
d="M191.5 488.5q-3.5 3.5 -14.5 3.5h-132q-30 0 -30 30v148q0 30 30 30h535q30 0 30 -30v-148q0 -30 -30 -30h-132q-10 0 -14 -3.5t-4 -14.5v-444q0 -30 -30 -30h-175q-30 0 -30 30v444q0 11 -3.5 14.5zM221 -173.5q-18 19.5 -18 52.5q0 26 13.5 46.5t37.5 31.5t57 11
q51 0 80 -24t29 -67q0 -26 -9.5 -49.5t-33.5 -64.5l-16 -27q-8 -14 -17.5 -19t-28.5 -5h-63q-12 0 -19 3.5t-7 10.5t7 17l35 57q-29 7 -47 26.5z" />
    <glyph glyph-name="Tcaron" unicode="&#x164;" horiz-adv-x="625" 
d="M191.5 488.5q-3.5 3.5 -14.5 3.5h-132q-30 0 -30 30v148q0 30 30 30h535q30 0 30 -30v-148q0 -30 -30 -30h-132q-10 0 -14 -3.5t-4 -14.5v-444q0 -30 -30 -30h-175q-30 0 -30 30v444q0 11 -3.5 14.5zM65 912q0 10 16 18l78 41q16 7 23 7q15 0 31 -16l99 -90l99 90
q16 16 31 16q7 0 23 -7l78 -41q16 -8 16 -18q0 -8 -12 -19l-140 -123q-14 -13 -23.5 -16.5t-29.5 -3.5h-84q-20 0 -29.5 3.5t-23.5 16.5l-140 123q-12 11 -12 19z" />
    <glyph glyph-name="tcaron" unicode="&#x165;" horiz-adv-x="625" 
d="M191.5 488.5q-3.5 3.5 -14.5 3.5h-132q-30 0 -30 30v148q0 30 30 30h535q30 0 30 -30v-148q0 -30 -30 -30h-132q-10 0 -14 -3.5t-4 -14.5v-444q0 -30 -30 -30h-175q-30 0 -30 30v444q0 11 -3.5 14.5zM65 912q0 10 16 18l78 41q16 7 23 7q15 0 31 -16l99 -90l99 90
q16 16 31 16q7 0 23 -7l78 -41q16 -8 16 -18q0 -8 -12 -19l-140 -123q-14 -13 -23.5 -16.5t-29.5 -3.5h-84q-20 0 -29.5 3.5t-23.5 16.5l-140 123q-12 11 -12 19z" />
    <glyph glyph-name="Tbar" unicode="&#x166;" horiz-adv-x="625" 
d="M191.5 212.5q-3.5 3.5 -14.5 3.5h-62q-30 0 -30 30v108q0 30 30 30h62q11 0 14.5 4t3.5 14v72q0 11 -3.5 14.5t-14.5 3.5h-132q-30 0 -30 30v148q0 30 30 30h535q30 0 30 -30v-148q0 -30 -30 -30h-132q-10 0 -14 -3.5t-4 -14.5v-72q0 -10 4 -14t14 -4h63q30 0 30 -30
v-108q0 -30 -30 -30h-63q-10 0 -14 -3.5t-4 -14.5v-168q0 -30 -30 -30h-175q-30 0 -30 30v168q0 11 -3.5 14.5z" />
    <glyph glyph-name="tbar" unicode="&#x167;" horiz-adv-x="625" 
d="M191.5 212.5q-3.5 3.5 -14.5 3.5h-62q-30 0 -30 30v108q0 30 30 30h62q11 0 14.5 4t3.5 14v72q0 11 -3.5 14.5t-14.5 3.5h-132q-30 0 -30 30v148q0 30 30 30h535q30 0 30 -30v-148q0 -30 -30 -30h-132q-10 0 -14 -3.5t-4 -14.5v-72q0 -10 4 -14t14 -4h63q30 0 30 -30
v-108q0 -30 -30 -30h-63q-10 0 -14 -3.5t-4 -14.5v-168q0 -30 -30 -30h-175q-30 0 -30 30v168q0 11 -3.5 14.5z" />
    <glyph glyph-name="Utilde" unicode="&#x168;" horiz-adv-x="780" 
d="M80 700h175q30 0 30 -30v-345q0 -128 105 -128q52 0 78.5 32.5t26.5 95.5v345q0 30 30 30h175q30 0 30 -30v-365q0 -105 -43 -176.5t-120.5 -107.5t-181.5 -36q-101 0 -176 35t-117 106.5t-42 178.5v365q0 30 30 30zM158 858q0 9 10 20q25 28 60.5 45t79.5 17
q28 0 50.5 -6t49.5 -16q21 -8 35 -11.5t28 -3.5q20 0 35 7t32 22q10 8 17 8q8 0 16 -11l45 -68q6 -9 6 -16q0 -9 -10 -20q-25 -28 -60.5 -45t-79.5 -17q-28 0 -50.5 6t-49.5 16q-21 8 -35 11.5t-28 3.5q-20 0 -35 -7t-32 -22q-10 -8 -17 -8q-8 0 -16 11l-45 68q-6 9 -6 16z
" />
    <glyph glyph-name="utilde" unicode="&#x169;" horiz-adv-x="780" 
d="M80 700h175q30 0 30 -30v-345q0 -128 105 -128q52 0 78.5 32.5t26.5 95.5v345q0 30 30 30h175q30 0 30 -30v-365q0 -105 -43 -176.5t-120.5 -107.5t-181.5 -36q-101 0 -176 35t-117 106.5t-42 178.5v365q0 30 30 30zM158 858q0 9 10 20q25 28 60.5 45t79.5 17
q28 0 50.5 -6t49.5 -16q21 -8 35 -11.5t28 -3.5q20 0 35 7t32 22q10 8 17 8q8 0 16 -11l45 -68q6 -9 6 -16q0 -9 -10 -20q-25 -28 -60.5 -45t-79.5 -17q-28 0 -50.5 6t-49.5 16q-21 8 -35 11.5t-28 3.5q-20 0 -35 -7t-32 -22q-10 -8 -17 -8q-8 0 -16 11l-45 68q-6 9 -6 16z
" />
    <glyph glyph-name="Umacron" unicode="&#x16a;" horiz-adv-x="780" 
d="M80 700h175q30 0 30 -30v-345q0 -128 105 -128q52 0 78.5 32.5t26.5 95.5v345q0 30 30 30h175q30 0 30 -30v-365q0 -105 -43 -176.5t-120.5 -107.5t-181.5 -36q-101 0 -176 35t-117 106.5t-42 178.5v365q0 30 30 30zM240 924h300q30 0 30 -30v-90q0 -30 -30 -30h-300
q-30 0 -30 30v90q0 30 30 30z" />
    <glyph glyph-name="umacron" unicode="&#x16b;" horiz-adv-x="780" 
d="M80 700h175q30 0 30 -30v-345q0 -128 105 -128q52 0 78.5 32.5t26.5 95.5v345q0 30 30 30h175q30 0 30 -30v-365q0 -105 -43 -176.5t-120.5 -107.5t-181.5 -36q-101 0 -176 35t-117 106.5t-42 178.5v365q0 30 30 30zM240 924h300q30 0 30 -30v-90q0 -30 -30 -30h-300
q-30 0 -30 30v90q0 30 30 30z" />
    <glyph glyph-name="Ubreve" unicode="&#x16c;" horiz-adv-x="780" 
d="M80 700h175q30 0 30 -30v-345q0 -128 105 -128q52 0 78.5 32.5t26.5 95.5v345q0 30 30 30h175q30 0 30 -30v-365q0 -105 -43 -176.5t-120.5 -107.5t-181.5 -36q-101 0 -176 35t-117 106.5t-42 178.5v365q0 30 30 30zM303 966q7 -5 11 -18q7 -26 26 -42t50 -16t50 16
t26 42q4 13 11 18t22 5h87q15 0 21 -6t6 -21q0 -53 -23 -97t-73 -70.5t-127 -26.5t-127 26.5t-73 70.5t-23 97q0 15 6 21t21 6h87q15 0 22 -5z" />
    <glyph glyph-name="ubreve" unicode="&#x16d;" horiz-adv-x="780" 
d="M80 700h175q30 0 30 -30v-345q0 -128 105 -128q52 0 78.5 32.5t26.5 95.5v345q0 30 30 30h175q30 0 30 -30v-365q0 -105 -43 -176.5t-120.5 -107.5t-181.5 -36q-101 0 -176 35t-117 106.5t-42 178.5v365q0 30 30 30zM303 966q7 -5 11 -18q7 -26 26 -42t50 -16t50 16
t26 42q4 13 11 18t22 5h87q15 0 21 -6t6 -21q0 -53 -23 -97t-73 -70.5t-127 -26.5t-127 26.5t-73 70.5t-23 97q0 15 6 21t21 6h87q15 0 22 -5z" />
    <glyph glyph-name="Uring" unicode="&#x16e;" horiz-adv-x="780" 
d="M80 700h175q30 0 30 -30v-345q0 -128 105 -128q52 0 78.5 32.5t26.5 95.5v345q0 30 30 30h175q30 0 30 -30v-365q0 -105 -43 -176.5t-120.5 -107.5t-181.5 -36q-101 0 -176 35t-117 106.5t-42 178.5v365q0 30 30 30zM227 996q25 42 68.5 66t94.5 24t94.5 -24t68.5 -66
t25 -93t-25 -93t-68.5 -66t-94.5 -24t-94.5 24t-68.5 66t-25 93t25 93zM358 871q13 -13 32 -13t32 13t13 32t-13 32t-32 13t-32 -13t-13 -32t13 -32z" />
    <glyph glyph-name="uring" unicode="&#x16f;" horiz-adv-x="780" 
d="M80 700h175q30 0 30 -30v-345q0 -128 105 -128q52 0 78.5 32.5t26.5 95.5v345q0 30 30 30h175q30 0 30 -30v-365q0 -105 -43 -176.5t-120.5 -107.5t-181.5 -36q-101 0 -176 35t-117 106.5t-42 178.5v365q0 30 30 30zM227 996q25 42 68.5 66t94.5 24t94.5 -24t68.5 -66
t25 -93t-25 -93t-68.5 -66t-94.5 -24t-94.5 24t-68.5 66t-25 93t25 93zM358 871q13 -13 32 -13t32 13t13 32t-13 32t-32 13t-32 -13t-13 -32t13 -32z" />
    <glyph glyph-name="Uhungarumlaut" unicode="&#x170;" horiz-adv-x="780" 
d="M80 700h175q30 0 30 -30v-345q0 -128 105 -128q52 0 78.5 32.5t26.5 95.5v345q0 30 30 30h175q30 0 30 -30v-365q0 -105 -43 -176.5t-120.5 -107.5t-181.5 -36q-101 0 -176 35t-117 106.5t-42 178.5v365q0 30 30 30zM307 998q8 5 17 5q10 0 27 -6l90 -32
q13 -4 19.5 -10.5t6.5 -13.5q0 -11 -16 -25l-166 -149q-20 -17 -35 -17q-8 0 -24 7l-66 31q-19 9 -19 21q0 10 10 20l138 153q10 11 18 16zM400 810q0 5 3 10.5t9 10.5l169 153q11 10 20.5 14.5t19.5 4.5q12 0 27 -6l88 -39q24 -10 24 -24q0 -11 -19 -25l-198 -142
q-13 -9 -22 -13t-18 -4q-8 0 -24 7l-64 33q-15 8 -15 20z" />
    <glyph glyph-name="uhungarumlaut" unicode="&#x171;" horiz-adv-x="780" 
d="M80 700h175q30 0 30 -30v-345q0 -128 105 -128q52 0 78.5 32.5t26.5 95.5v345q0 30 30 30h175q30 0 30 -30v-365q0 -105 -43 -176.5t-120.5 -107.5t-181.5 -36q-101 0 -176 35t-117 106.5t-42 178.5v365q0 30 30 30zM307 998q8 5 17 5q10 0 27 -6l90 -32
q13 -4 19.5 -10.5t6.5 -13.5q0 -11 -16 -25l-166 -149q-20 -17 -35 -17q-8 0 -24 7l-66 31q-19 9 -19 21q0 10 10 20l138 153q10 11 18 16zM400 810q0 5 3 10.5t9 10.5l169 153q11 10 20.5 14.5t19.5 4.5q12 0 27 -6l88 -39q24 -10 24 -24q0 -11 -19 -25l-198 -142
q-13 -9 -22 -13t-18 -4q-8 0 -24 7l-64 33q-15 8 -15 20z" />
    <glyph glyph-name="Uogonek" unicode="&#x172;" horiz-adv-x="780" 
d="M80 700h175q30 0 30 -30v-345q0 -128 105 -128q52 0 78.5 32.5t26.5 95.5v345q0 30 30 30h175q30 0 30 -30v-365q0 -102 -40.5 -172.5t-114 -107t-172.5 -40.5q-42 -31 -42 -71q0 -24 16 -38.5t41 -14.5q34 0 62 16q8 5 13 5q8 0 12 -10l31 -58q3 -6 3 -11q0 -10 -12 -17
q-54 -36 -123 -36q-49 0 -86.5 17.5t-58 49t-20.5 71.5q0 61 50 106q-113 23 -176 101t-63 210v365q0 30 30 30z" />
    <glyph glyph-name="uogonek" unicode="&#x173;" horiz-adv-x="780" 
d="M80 700h175q30 0 30 -30v-345q0 -128 105 -128q52 0 78.5 32.5t26.5 95.5v345q0 30 30 30h175q30 0 30 -30v-365q0 -102 -40.5 -172.5t-114 -107t-172.5 -40.5q-42 -31 -42 -71q0 -24 16 -38.5t41 -14.5q34 0 62 16q8 5 13 5q8 0 12 -10l31 -58q3 -6 3 -11q0 -10 -12 -17
q-54 -36 -123 -36q-49 0 -86.5 17.5t-58 49t-20.5 71.5q0 61 50 106q-113 23 -176 101t-63 210v365q0 30 30 30z" />
    <glyph glyph-name="Wcircumflex" unicode="&#x174;" horiz-adv-x="1042" 
d="M1 684q0 16 25 16h187q21 0 30.5 -6t18.5 -26l101 -236l117 224q14 26 22.5 35t18.5 9t18.5 -9t22.5 -35l117 -224l101 236q9 20 18.5 26t30.5 6h187q25 0 25 -16q0 -6 -5 -18l-292 -634q-14 -31 -22.5 -41.5t-19.5 -10.5q-10 0 -19 10t-25 40l-137 257l-137 -257
q-16 -30 -25 -40t-19 -10q-11 0 -19.5 10.5t-22.5 41.5l-292 634q-5 12 -5 18zM449.5 974.5q9.5 3.5 29.5 3.5h84q20 0 29.5 -3.5t23.5 -16.5l140 -123q12 -10 12 -19q0 -10 -16 -18l-78 -41q-16 -7 -23 -7q-15 0 -31 16l-99 90l-99 -90q-16 -16 -31 -16q-7 0 -23 7l-78 41
q-16 8 -16 18q0 9 12 19l140 123q14 13 23.5 16.5z" />
    <glyph glyph-name="wcircumflex" unicode="&#x175;" horiz-adv-x="1042" 
d="M1 684q0 16 25 16h187q21 0 30.5 -6t18.5 -26l101 -236l117 224q14 26 22.5 35t18.5 9t18.5 -9t22.5 -35l117 -224l101 236q9 20 18.5 26t30.5 6h187q25 0 25 -16q0 -6 -5 -18l-292 -634q-14 -31 -22.5 -41.5t-19.5 -10.5q-10 0 -19 10t-25 40l-137 257l-137 -257
q-16 -30 -25 -40t-19 -10q-11 0 -19.5 10.5t-22.5 41.5l-292 634q-5 12 -5 18zM449.5 974.5q9.5 3.5 29.5 3.5h84q20 0 29.5 -3.5t23.5 -16.5l140 -123q12 -10 12 -19q0 -10 -16 -18l-78 -41q-16 -7 -23 -7q-15 0 -31 16l-99 90l-99 -90q-16 -16 -31 -16q-7 0 -23 7l-78 41
q-16 8 -16 18q0 9 12 19l140 123q14 13 23.5 16.5z" />
    <glyph glyph-name="Ycircumflex" unicode="&#x176;" horiz-adv-x="730" 
d="M2 667q-6 11 -6 18q0 15 22 15h185q21 0 31.5 -6.5t21.5 -26.5l113 -206l112 206q11 20 21.5 26.5t31.5 6.5h178q22 0 22 -15q0 -7 -6 -18l-243 -413v-224q0 -30 -30 -30h-175q-30 0 -30 30v219zM293.5 974.5q9.5 3.5 29.5 3.5h84q20 0 29.5 -3.5t23.5 -16.5l140 -123
q12 -10 12 -19q0 -10 -16 -18l-78 -41q-16 -7 -23 -7q-15 0 -31 16l-99 90l-99 -90q-16 -16 -31 -16q-7 0 -23 7l-78 41q-16 8 -16 18q0 9 12 19l140 123q14 13 23.5 16.5z" />
    <glyph glyph-name="ycircumflex" unicode="&#x177;" horiz-adv-x="730" 
d="M2 667q-6 11 -6 18q0 15 22 15h185q21 0 31.5 -6.5t21.5 -26.5l113 -206l112 206q11 20 21.5 26.5t31.5 6.5h178q22 0 22 -15q0 -7 -6 -18l-243 -413v-224q0 -30 -30 -30h-175q-30 0 -30 30v219zM293.5 974.5q9.5 3.5 29.5 3.5h84q20 0 29.5 -3.5t23.5 -16.5l140 -123
q12 -10 12 -19q0 -10 -16 -18l-78 -41q-16 -7 -23 -7q-15 0 -31 16l-99 90l-99 -90q-16 -16 -31 -16q-7 0 -23 7l-78 41q-16 8 -16 18q0 9 12 19l140 123q14 13 23.5 16.5z" />
    <glyph glyph-name="Ydieresis" unicode="&#x178;" horiz-adv-x="730" 
d="M2 667q-6 11 -6 18q0 15 22 15h185q21 0 31.5 -6.5t21.5 -26.5l113 -206l112 206q11 20 21.5 26.5t31.5 6.5h178q22 0 22 -15q0 -7 -6 -18l-243 -413v-224q0 -30 -30 -30h-175q-30 0 -30 30v219zM164 889q12 21 33.5 33t49.5 12t49.5 -12t33.5 -33t12 -47t-12 -47
t-33.5 -33t-49.5 -12t-49.5 12t-33.5 33t-12 47t12 47zM400 889q12 21 33.5 33t49.5 12t49.5 -12t33.5 -33t12 -47t-12 -47t-33.5 -33t-49.5 -12t-49.5 12t-33.5 33t-12 47t12 47z" />
    <glyph glyph-name="Zacute" unicode="&#x179;" horiz-adv-x="665" 
d="M64 492q-30 0 -30 30v148q0 30 30 30h545q26 0 26 -17q0 -10 -7 -21l-251 -454h225q30 0 30 -30v-148q0 -30 -30 -30h-554q-13 0 -20 4.5t-7 13.5q0 8 6 20l252 454h-215zM190 824q0 10 13 20l203 147q19 14 34 14q13 0 33 -14l79 -57q16 -12 16 -23q0 -14 -20 -25
l-232 -125q-19 -10 -30 -10q-10 0 -24 9l-58 43q-14 11 -14 21z" />
    <glyph glyph-name="zacute" unicode="&#x17a;" horiz-adv-x="665" 
d="M64 492q-30 0 -30 30v148q0 30 30 30h545q26 0 26 -17q0 -10 -7 -21l-251 -454h225q30 0 30 -30v-148q0 -30 -30 -30h-554q-13 0 -20 4.5t-7 13.5q0 8 6 20l252 454h-215zM190 824q0 10 13 20l203 147q19 14 34 14q13 0 33 -14l79 -57q16 -12 16 -23q0 -14 -20 -25
l-232 -125q-19 -10 -30 -10q-10 0 -24 9l-58 43q-14 11 -14 21z" />
    <glyph glyph-name="Zdotaccent" unicode="&#x17b;" horiz-adv-x="665" 
d="M64 492q-30 0 -30 30v148q0 30 30 30h545q26 0 26 -17q0 -10 -7 -21l-251 -454h225q30 0 30 -30v-148q0 -30 -30 -30h-554q-13 0 -20 4.5t-7 13.5q0 8 6 20l252 454h-215zM235.5 900.5q13.5 22.5 38 35.5t56.5 13t56.5 -13t38 -35.5t13.5 -51.5q0 -28 -13.5 -50.5
t-38.5 -35.5t-56 -13t-56 13t-38.5 35.5t-13.5 50.5q0 29 13.5 51.5z" />
    <glyph glyph-name="zdotaccent" unicode="&#x17c;" horiz-adv-x="665" 
d="M64 492q-30 0 -30 30v148q0 30 30 30h545q26 0 26 -17q0 -10 -7 -21l-251 -454h225q30 0 30 -30v-148q0 -30 -30 -30h-554q-13 0 -20 4.5t-7 13.5q0 8 6 20l252 454h-215zM235.5 900.5q13.5 22.5 38 35.5t56.5 13t56.5 -13t38 -35.5t13.5 -51.5q0 -28 -13.5 -50.5
t-38.5 -35.5t-56 -13t-56 13t-38.5 35.5t-13.5 50.5q0 29 13.5 51.5z" />
    <glyph glyph-name="Zcaron" unicode="&#x17d;" horiz-adv-x="665" 
d="M64 492q-30 0 -30 30v148q0 30 30 30h545q26 0 26 -17q0 -10 -7 -21l-251 -454h225q30 0 30 -30v-148q0 -30 -30 -30h-554q-13 0 -20 4.5t-7 13.5q0 8 6 20l252 454h-215zM83 912q0 10 16 18l78 41q16 7 23 7q15 0 31 -16l99 -90l99 90q16 16 31 16q7 0 23 -7l78 -41
q16 -8 16 -18q0 -8 -12 -19l-140 -123q-14 -13 -23.5 -16.5t-29.5 -3.5h-84q-20 0 -29.5 3.5t-23.5 16.5l-140 123q-12 11 -12 19z" />
    <glyph glyph-name="zcaron" unicode="&#x17e;" horiz-adv-x="665" 
d="M64 492q-30 0 -30 30v148q0 30 30 30h545q26 0 26 -17q0 -10 -7 -21l-251 -454h225q30 0 30 -30v-148q0 -30 -30 -30h-554q-13 0 -20 4.5t-7 13.5q0 8 6 20l252 454h-215zM83 912q0 10 16 18l78 41q16 7 23 7q15 0 31 -16l99 -90l99 90q16 16 31 16q7 0 23 -7l78 -41
q16 -8 16 -18q0 -8 -12 -19l-140 -123q-14 -13 -23.5 -16.5t-29.5 -3.5h-84q-20 0 -29.5 3.5t-23.5 16.5l-140 123q-12 11 -12 19z" />
    <glyph glyph-name="florin" unicode="&#x192;" 
d="M-8 36q5 4 11 4t13 -4q15 -8 30 -12t34 -4q33 0 53 19t30 56l37 131h-49q-30 0 -30 30v120q0 30 30 30h101l28 99q31 108 96 159t170 51q46 0 87 -13t69 -33q17 -11 17 -25q0 -8 -5 -16l-56 -97q-5 -8 -10 -12t-11 -4t-13 4q-15 8 -30 12t-34 4q-33 0 -53 -19t-30 -56
l-16 -54h86q30 0 30 -30v-120q0 -30 -30 -30h-137l-50 -176q-31 -108 -96 -159t-170 -51q-46 0 -87 13t-69 33q-17 11 -17 25q0 8 5 16l56 97q5 8 10 12z" />
    <glyph glyph-name="Scommaaccent" unicode="&#x218;" horiz-adv-x="629" 
d="M101 242q6 4 12 4q9 0 21 -9q35 -25 78 -41t84 -16q64 0 64 31q0 12 -9 19.5t-29 14t-62 17.5q-77 20 -125.5 46.5t-73.5 68t-25 104.5q0 74 36 126.5t99 80t143 27.5q150 0 269 -95q14 -11 14 -22q0 -10 -9 -22l-74 -107q-9 -13 -19 -13q-9 0 -21 9q-35 27 -74.5 42
t-75.5 15q-26 0 -38.5 -8t-12.5 -23q0 -12 8.5 -19.5t26.5 -13.5t56 -15q79 -19 130.5 -46.5t78 -69.5t26.5 -102q0 -74 -36 -128t-102 -83t-155 -29q-82 0 -152 25.5t-126 68.5q-17 13 -17 27q0 11 9 24l69 99q6 9 12 13zM220 -173.5q-18 19.5 -18 52.5q0 26 13.5 46.5
t37.5 31.5t57 11q51 0 80 -24t29 -67q0 -26 -9.5 -49.5t-33.5 -64.5l-16 -27q-8 -14 -17.5 -19t-28.5 -5h-63q-12 0 -19 3.5t-7 10.5t7 17l35 57q-29 7 -47 26.5z" />
    <glyph glyph-name="scommaaccent" unicode="&#x219;" horiz-adv-x="629" 
d="M101 242q6 4 12 4q9 0 21 -9q35 -25 78 -41t84 -16q64 0 64 31q0 12 -9 19.5t-29 14t-62 17.5q-77 20 -125.5 46.5t-73.5 68t-25 104.5q0 74 36 126.5t99 80t143 27.5q150 0 269 -95q14 -11 14 -22q0 -10 -9 -22l-74 -107q-9 -13 -19 -13q-9 0 -21 9q-35 27 -74.5 42
t-75.5 15q-26 0 -38.5 -8t-12.5 -23q0 -12 8.5 -19.5t26.5 -13.5t56 -15q79 -19 130.5 -46.5t78 -69.5t26.5 -102q0 -74 -36 -128t-102 -83t-155 -29q-82 0 -152 25.5t-126 68.5q-17 13 -17 27q0 11 9 24l69 99q6 9 12 13zM220 -173.5q-18 19.5 -18 52.5q0 26 13.5 46.5
t37.5 31.5t57 11q51 0 80 -24t29 -67q0 -26 -9.5 -49.5t-33.5 -64.5l-16 -27q-8 -14 -17.5 -19t-28.5 -5h-63q-12 0 -19 3.5t-7 10.5t7 17l35 57q-29 7 -47 26.5z" />
    <glyph glyph-name="uni021A" unicode="&#x21a;" horiz-adv-x="625" 
d="M191.5 488.5q-3.5 3.5 -14.5 3.5h-132q-30 0 -30 30v148q0 30 30 30h535q30 0 30 -30v-148q0 -30 -30 -30h-132q-10 0 -14 -3.5t-4 -14.5v-444q0 -30 -30 -30h-175q-30 0 -30 30v444q0 11 -3.5 14.5zM221 -173.5q-18 19.5 -18 52.5q0 26 13.5 46.5t37.5 31.5t57 11
q51 0 80 -24t29 -67q0 -26 -9.5 -49.5t-33.5 -64.5l-16 -27q-8 -14 -17.5 -19t-28.5 -5h-63q-12 0 -19 3.5t-7 10.5t7 17l35 57q-29 7 -47 26.5z" />
    <glyph glyph-name="uni021B" unicode="&#x21b;" horiz-adv-x="625" 
d="M191.5 488.5q-3.5 3.5 -14.5 3.5h-132q-30 0 -30 30v148q0 30 30 30h535q30 0 30 -30v-148q0 -30 -30 -30h-132q-10 0 -14 -3.5t-4 -14.5v-444q0 -30 -30 -30h-175q-30 0 -30 30v444q0 11 -3.5 14.5zM221 -173.5q-18 19.5 -18 52.5q0 26 13.5 46.5t37.5 31.5t57 11
q51 0 80 -24t29 -67q0 -26 -9.5 -49.5t-33.5 -64.5l-16 -27q-8 -14 -17.5 -19t-28.5 -5h-63q-12 0 -19 3.5t-7 10.5t7 17l35 57q-29 7 -47 26.5z" />
    <glyph glyph-name="uni0237" unicode="&#x237;" horiz-adv-x="362" 
d="M-32 -21q9 0 23 -2t23 -2q32 0 46 20t14 61v614q0 30 30 30h175q30 0 30 -30v-623q0 -80 -25 -140t-77.5 -93.5t-133.5 -33.5q-71 0 -114 12q-15 4 -20 9t-4 16l16 145q2 17 17 17z" />
    <glyph glyph-name="circumflex" unicode="&#x2c6;" horiz-adv-x="500" 
d="M178.5 974.5q9.5 3.5 29.5 3.5h84q20 0 29.5 -3.5t23.5 -16.5l140 -123q12 -10 12 -19q0 -10 -16 -18l-78 -41q-16 -7 -23 -7q-15 0 -31 16l-99 90l-99 -90q-16 -16 -31 -16q-7 0 -23 7l-78 41q-16 8 -16 18q0 9 12 19l140 123q14 13 23.5 16.5z" />
    <glyph glyph-name="caron" unicode="&#x2c7;" horiz-adv-x="500" 
d="M3 912q0 10 16 18l78 41q16 7 23 7q15 0 31 -16l99 -90l99 90q16 16 31 16q7 0 23 -7l78 -41q16 -8 16 -18q0 -8 -12 -19l-140 -123q-14 -13 -23.5 -16.5t-29.5 -3.5h-84q-20 0 -29.5 3.5t-23.5 16.5l-140 123q-12 11 -12 19z" />
    <glyph glyph-name="uni02C9" unicode="&#x2c9;" horiz-adv-x="500" 
d="M100 924h300q30 0 30 -30v-90q0 -30 -30 -30h-300q-30 0 -30 30v90q0 30 30 30z" />
    <glyph glyph-name="breve" unicode="&#x2d8;" horiz-adv-x="500" 
d="M163 966q7 -5 11 -18q7 -26 26 -42t50 -16t50 16t26 42q4 13 11 18t22 5h87q15 0 21 -6t6 -21q0 -53 -23 -97t-73 -70.5t-127 -26.5t-127 26.5t-73 70.5t-23 97q0 15 6 21t21 6h87q15 0 22 -5z" />
    <glyph glyph-name="dotaccent" unicode="&#x2d9;" horiz-adv-x="500" 
d="M155.5 900.5q13.5 22.5 38 35.5t56.5 13t56.5 -13t38 -35.5t13.5 -51.5q0 -28 -13.5 -50.5t-38.5 -35.5t-56 -13t-56 13t-38.5 35.5t-13.5 50.5q0 29 13.5 51.5z" />
    <glyph glyph-name="ring" unicode="&#x2da;" horiz-adv-x="500" 
d="M87 996q25 42 68.5 66t94.5 24t94.5 -24t68.5 -66t25 -93t-25 -93t-68.5 -66t-94.5 -24t-94.5 24t-68.5 66t-25 93t25 93zM218 871q13 -13 32 -13t32 13t13 32t-13 32t-32 13t-32 -13t-13 -32t13 -32z" />
    <glyph glyph-name="ogonek" unicode="&#x2db;" horiz-adv-x="500" 
d="M415 -197q0 -10 -12 -17q-54 -36 -123 -36q-49 0 -86.5 17.5t-58 49t-20.5 71.5q0 47 31.5 86.5t90.5 64.5l82 -33q-39 -15 -60.5 -39t-21.5 -53q0 -24 16 -38.5t41 -14.5q34 0 62 16q8 5 13 5q8 0 12 -10l31 -58q3 -6 3 -11z" />
    <glyph glyph-name="tilde" unicode="&#x2dc;" horiz-adv-x="500" 
d="M18 858q0 9 10 20q25 28 60.5 45t79.5 17q28 0 50.5 -6t49.5 -16q21 -8 35 -11.5t28 -3.5q20 0 35 7t32 22q10 8 17 8q8 0 16 -11l45 -68q6 -9 6 -16q0 -9 -10 -20q-25 -28 -60.5 -45t-79.5 -17q-28 0 -50.5 6t-49.5 16q-21 8 -35 11.5t-28 3.5q-20 0 -35 -7t-32 -22
q-10 -8 -17 -8q-8 0 -16 11l-45 68q-6 9 -6 16z" />
    <glyph glyph-name="hungarumlaut" unicode="&#x2dd;" horiz-adv-x="500" 
d="M183 998q8 5 17 5q10 0 27 -6l90 -32q13 -4 19.5 -10.5t6.5 -13.5q0 -11 -16 -25l-166 -149q-20 -17 -35 -17q-8 0 -24 7l-66 31q-19 9 -19 21q0 10 10 20l138 153q10 11 18 16zM276 810q0 5 3 10.5t9 10.5l169 153q11 10 20.5 14.5t19.5 4.5q12 0 27 -6l88 -39
q24 -10 24 -24q0 -11 -19 -25l-198 -142q-13 -9 -22 -13t-18 -4q-8 0 -24 7l-64 33q-15 8 -15 20z" />
    <glyph glyph-name="uni0326" unicode="&#x326;" horiz-adv-x="0" 
d="M-340 -173.5q-18 19.5 -18 52.5q0 26 13.5 46.5t37.5 31.5t57 11q51 0 80 -24t29 -67q0 -26 -9.5 -49.5t-33.5 -64.5l-16 -27q-8 -14 -17.5 -19t-28.5 -5h-63q-12 0 -19 3.5t-7 10.5t7 17l35 57q-29 7 -47 26.5z" />
    <glyph glyph-name="Delta" unicode="&#x394;" horiz-adv-x="776" 
d="M363.5 709q10.5 11 24.5 11q13 0 24.5 -11.5t25.5 -38.5l337 -637q5 -9 5 -17t-6.5 -12t-17.5 -4h-736q-11 0 -17.5 4t-6.5 12t5 17l337 637q15 28 25.5 39zM384 372l-92 -192h185z" />
    <glyph glyph-name="Omega" unicode="&#x3a9;" horiz-adv-x="822" 
d="M50 180h74q-42 39 -65.5 92t-23.5 118q0 88 44 162.5t130 118.5t205 44q117 0 201.5 -44t128 -118.5t43.5 -162.5q0 -64 -23.5 -117t-65.5 -93h74q30 0 30 -30v-120q0 -30 -30 -30h-285q-30 0 -30 30v96q0 19 3.5 27.5t16.5 21.5q75 75 75 177q0 44 -15.5 78t-47.5 53.5
t-78 19.5t-78 -19.5t-47.5 -53.5t-15.5 -78q0 -102 75 -177q13 -13 16.5 -21.5t3.5 -27.5v-96q0 -30 -30 -30h-285q-30 0 -30 30v120q0 30 30 30z" />
    <glyph glyph-name="mu" unicode="&#x3bc;" horiz-adv-x="640" 
d="M49 505q4 4 13 4h195q9 0 13.5 -4t4.5 -14v-235q0 -36 11 -54.5t34 -18.5q46 0 46 73v235q0 10 4 14t13 4h195q10 0 14 -4t4 -14v-252q0 -84 -32.5 -141t-93 -85t-143.5 -28q-30 0 -52 4v-194q0 -13 -6.5 -19t-19.5 -6h-179q-25 0 -25 25v696q0 10 4 14z" />
    <glyph glyph-name="pi" unicode="&#x3c0;" horiz-adv-x="746" 
d="M40 331q-15 0 -22 6.5t-7 20.5v124q0 27 25 27h674q25 0 25 -27v-124q0 -14 -7 -20.5t-22 -6.5h-72v-83q0 -33 8 -47.5t28 -14.5q10 0 22.5 3t16.5 3q8 0 11.5 -4.5t4.5 -13.5l13 -144q1 -14 -3.5 -19.5t-17.5 -10.5q-17 -7 -45 -11t-60 -4q-113 0 -160.5 60t-47.5 177
v109h-73v-305q0 -14 -6.5 -20t-20.5 -6h-177q-13 0 -19.5 6.5t-6.5 19.5v305h-61z" />
    <glyph glyph-name="uni058F" unicode="&#x58f;" horiz-adv-x="671" 
d="M239 150l21 102h101l7 34h-101l20 102h102l5 25q3 13 5 25.5t2 23.5q0 35 -14.5 56t-53.5 21q-41 0 -65.5 -23t-35.5 -74l-12 -55h-190l12 63q19 99 59.5 157t100 83t138.5 25q127 0 194 -54t67 -158q0 -34 -12 -94l-4 -21h66l-20 -102h-67l-7 -34h67l-21 -102h-66
l-30 -150h-197l30 150h-101z" />
    <glyph glyph-name="uni060B" unicode="&#x60b;" horiz-adv-x="626" 
d="M264 614.5q11 19.5 31 30.5t46 11t46 -11t31 -30.5t11 -43.5t-11 -43.5t-31 -30.5t-46 -11t-46 11t-31 30.5t-11 43.5t11 43.5zM204 128q-42 47 -42 119q0 58 25.5 103t72 70t106.5 25t106.5 -26t73 -74.5t26.5 -114.5q0 -109 -72 -169.5t-214 -60.5h-256v128h174z
M422 230q0 36 -15.5 55.5t-40.5 19.5q-24 0 -39 -17t-15 -43q0 -33 22.5 -54t63.5 -29q24 26 24 68zM396 -43v-207h-110v207h110z" />
    <glyph glyph-name="uni09F2" unicode="&#x9f2;" horiz-adv-x="675" 
d="M405.5 519.5q113.5 -138.5 193.5 -308.5q49 -103 81 -211h-133q-37 82 -74 143q-91 151 -216 266t-262 171l163 147q134 -69 247.5 -207.5z" />
    <glyph glyph-name="uni09F3" unicode="&#x9f3;" horiz-adv-x="641" 
d="M36 369v155h92v4q0 59 -52 59q-14 0 -29 -3l-17 116q68 15 136 15q172 0 172 -178v-13h257v-155h-257v-169q0 -42 25.5 -64.5t74.5 -22.5q45 0 73 21.5t28 60.5q0 23 -9.5 39.5t-22.5 16.5l-6 -1q5 -5 7.5 -13.5t2.5 -18.5q0 -12 -6.5 -24t-20.5 -19.5t-33 -7.5
q-31 0 -48 19t-17 48q0 27 15 48t40.5 32t56.5 11q34 0 62 -16t44.5 -46.5t16.5 -73.5q0 -57 -29 -103t-90.5 -73.5t-153.5 -27.5q-116 0 -168 50.5t-52 152.5v181h-92z" />
    <glyph glyph-name="uni0AF1" unicode="&#xaf1;" horiz-adv-x="889" 
d="M35 277q0 23 10.5 42t29.5 30t45 11q32 0 53.5 -18t26.5 -52l2 -14q10 -5 30 -5q28 0 43 14.5t15 41.5q0 29 -19.5 43t-52.5 14h-68v123h68q70 0 70 41q0 21 -15 30t-45 9q-31 0 -63.5 -8t-58.5 -19l-44 112q95 43 194 43q55 0 96.5 -16.5t64.5 -48t23 -77.5
q0 -53 -28 -83.5t-74 -42.5q46 -12 75 -45.5t29 -86.5t-23.5 -92t-67 -59.5t-101.5 -20.5q-17 0 -31 2l7 -61q3 -28 10 -43.5t21 -22.5t37 -7q27 0 58 7l17 -116q-19 -8 -47 -12.5t-55 -4.5q-67 0 -106 38.5t-49 119.5l-17 130q-60 45 -60 104zM503 423q26 42 69 64.5
t94 22.5t94 -22.5t68.5 -64.5t25.5 -97t-25.5 -96.5t-68.5 -64t-94 -22.5t-94.5 22.5t-69 64t-25.5 96.5t26 97zM622.5 283q17.5 -17 43.5 -17t43 17t17 43t-17.5 43.5t-42.5 17.5q-26 0 -43.5 -17.5t-17.5 -43.5t17.5 -43z" />
    <glyph glyph-name="uni0BF9" unicode="&#xbf9;" horiz-adv-x="1124" 
d="M592 512v-102h-61v-42q24 3 49 3q43 0 76.5 -19t52.5 -55t19 -85q0 -71 -37 -124.5t-110 -83t-178 -29.5q-110 0 -194.5 45t-131.5 129t-47 198q0 116 53 206t151.5 141t230.5 51q97 0 177.5 -26.5t135.5 -71.5q18 2 29 2q62 0 108 -25.5t71.5 -75.5t25.5 -122v-6h82v-92
h-184v92q0 98 -52 125q13 -29 13 -61q0 -55 -32.5 -87t-88.5 -32t-88.5 32t-32.5 87q0 29 10.5 56t29.5 49q-40 16 -92.5 24.5t-112.5 8.5q-95 0 -164 -34.5t-105.5 -96.5t-36.5 -143q0 -78 30 -134.5t85 -86t130 -29.5q66 0 110.5 15t65.5 41t21 58q0 26 -13.5 41.5
t-37.5 15.5q-12 0 -18 -1v-79h-118v221h-52v-221h-118v323h349zM728 520q-9 -18 -9 -36q0 -15 8.5 -24t23.5 -9q14 0 22 9t8 24q0 16 -7.5 33t-21.5 30q-15 -9 -24 -27z" />
    <glyph glyph-name="uni0E3F" unicode="&#xe3f;" 
d="M85 700h224v74q0 14 6.5 20t19.5 6h15q14 0 20 -6t6 -20v-75q130 -7 196 -54.5t66 -144.5q0 -93 -90 -136q115 -36 115 -154q0 -103 -71.5 -152.5t-215.5 -56.5v-105q0 -14 -6 -20t-20 -6h-15q-13 0 -19.5 6t-6.5 20v104h-224q-30 0 -30 30v640q0 30 30 30zM309 530h-21
q-10 0 -14 -3.5t-4 -14.5v-67q0 -10 4 -14t14 -4h21v103zM423 478q0 19 -11 31t-36 17v-95q47 10 47 47zM309 280h-21q-10 0 -14 -3.5t-4 -14.5v-74q0 -10 4 -14t14 -4h21v110zM428.5 189q15.5 14 15.5 37q0 22 -15.5 35t-52.5 17v-107q37 4 52.5 18z" />
    <glyph glyph-name="uni17DB" unicode="&#x17db;" horiz-adv-x="580" 
d="M201 293v94h80v45h-4q-34 0 -65.5 14.5t-51.5 44t-20 71.5q0 47 28.5 85t76.5 59t106 21q62 0 113.5 -23t85.5 -57l-59 -83q-77 63 -140 63q-24 0 -47.5 -9t-38.5 -24t-15 -31q0 -31 49 -31h152v-146h79v-92h-79v-304h-144q-91 0 -153 23t-93 65.5t-31 101.5
q0 42 17 72.5t47 57.5l136 -88q-9 -10 -14.5 -22.5t-5.5 -25.5q0 -26 19 -44t52 -20v183h-80z" />
    <glyph glyph-name="Wgrave" unicode="&#x1e80;" horiz-adv-x="1042" 
d="M1 684q0 16 25 16h187q21 0 30.5 -6t18.5 -26l101 -236l117 224q14 26 22.5 35t18.5 9t18.5 -9t22.5 -35l117 -224l101 236q9 20 18.5 26t30.5 6h187q25 0 25 -16q0 -6 -5 -18l-292 -634q-14 -31 -22.5 -41.5t-19.5 -10.5q-10 0 -19 10t-25 40l-137 257l-137 -257
q-16 -30 -25 -40t-19 -10q-11 0 -19.5 10.5t-22.5 41.5l-292 634q-5 12 -5 18zM411 1005q15 0 34 -14l203 -147q13 -10 13 -20t-14 -21l-58 -43q-12 -9 -24 -9q-11 0 -30 10l-232 125q-20 11 -20 25q0 11 16 23l79 57q20 14 33 14z" />
    <glyph glyph-name="wgrave" unicode="&#x1e81;" horiz-adv-x="1042" 
d="M1 684q0 16 25 16h187q21 0 30.5 -6t18.5 -26l101 -236l117 224q14 26 22.5 35t18.5 9t18.5 -9t22.5 -35l117 -224l101 236q9 20 18.5 26t30.5 6h187q25 0 25 -16q0 -6 -5 -18l-292 -634q-14 -31 -22.5 -41.5t-19.5 -10.5q-10 0 -19 10t-25 40l-137 257l-137 -257
q-16 -30 -25 -40t-19 -10q-11 0 -19.5 10.5t-22.5 41.5l-292 634q-5 12 -5 18zM411 1005q15 0 34 -14l203 -147q13 -10 13 -20t-14 -21l-58 -43q-12 -9 -24 -9q-11 0 -30 10l-232 125q-20 11 -20 25q0 11 16 23l79 57q20 14 33 14z" />
    <glyph glyph-name="Wacute" unicode="&#x1e82;" horiz-adv-x="1042" 
d="M1 684q0 16 25 16h187q21 0 30.5 -6t18.5 -26l101 -236l117 224q14 26 22.5 35t18.5 9t18.5 -9t22.5 -35l117 -224l101 236q9 20 18.5 26t30.5 6h187q25 0 25 -16q0 -6 -5 -18l-292 -634q-14 -31 -22.5 -41.5t-19.5 -10.5q-10 0 -19 10t-25 40l-137 257l-137 -257
q-16 -30 -25 -40t-19 -10q-11 0 -19.5 10.5t-22.5 41.5l-292 634q-5 12 -5 18zM381 824q0 10 13 20l203 147q19 14 34 14q13 0 33 -14l79 -57q16 -12 16 -23q0 -14 -20 -25l-232 -125q-19 -10 -30 -10q-10 0 -24 9l-58 43q-14 11 -14 21z" />
    <glyph glyph-name="wacute" unicode="&#x1e83;" horiz-adv-x="1042" 
d="M1 684q0 16 25 16h187q21 0 30.5 -6t18.5 -26l101 -236l117 224q14 26 22.5 35t18.5 9t18.5 -9t22.5 -35l117 -224l101 236q9 20 18.5 26t30.5 6h187q25 0 25 -16q0 -6 -5 -18l-292 -634q-14 -31 -22.5 -41.5t-19.5 -10.5q-10 0 -19 10t-25 40l-137 257l-137 -257
q-16 -30 -25 -40t-19 -10q-11 0 -19.5 10.5t-22.5 41.5l-292 634q-5 12 -5 18zM381 824q0 10 13 20l203 147q19 14 34 14q13 0 33 -14l79 -57q16 -12 16 -23q0 -14 -20 -25l-232 -125q-19 -10 -30 -10q-10 0 -24 9l-58 43q-14 11 -14 21z" />
    <glyph glyph-name="Wdieresis" unicode="&#x1e84;" horiz-adv-x="1042" 
d="M1 684q0 16 25 16h187q21 0 30.5 -6t18.5 -26l101 -236l117 224q14 26 22.5 35t18.5 9t18.5 -9t22.5 -35l117 -224l101 236q9 20 18.5 26t30.5 6h187q25 0 25 -16q0 -6 -5 -18l-292 -634q-14 -31 -22.5 -41.5t-19.5 -10.5q-10 0 -19 10t-25 40l-137 257l-137 -257
q-16 -30 -25 -40t-19 -10q-11 0 -19.5 10.5t-22.5 41.5l-292 634q-5 12 -5 18zM320 889q12 21 33.5 33t49.5 12t49.5 -12t33.5 -33t12 -47t-12 -47t-33.5 -33t-49.5 -12t-49.5 12t-33.5 33t-12 47t12 47zM556 889q12 21 33.5 33t49.5 12t49.5 -12t33.5 -33t12 -47t-12 -47
t-33.5 -33t-49.5 -12t-49.5 12t-33.5 33t-12 47t12 47z" />
    <glyph glyph-name="wdieresis" unicode="&#x1e85;" horiz-adv-x="1042" 
d="M1 684q0 16 25 16h187q21 0 30.5 -6t18.5 -26l101 -236l117 224q14 26 22.5 35t18.5 9t18.5 -9t22.5 -35l117 -224l101 236q9 20 18.5 26t30.5 6h187q25 0 25 -16q0 -6 -5 -18l-292 -634q-14 -31 -22.5 -41.5t-19.5 -10.5q-10 0 -19 10t-25 40l-137 257l-137 -257
q-16 -30 -25 -40t-19 -10q-11 0 -19.5 10.5t-22.5 41.5l-292 634q-5 12 -5 18zM320 889q12 21 33.5 33t49.5 12t49.5 -12t33.5 -33t12 -47t-12 -47t-33.5 -33t-49.5 -12t-49.5 12t-33.5 33t-12 47t12 47zM556 889q12 21 33.5 33t49.5 12t49.5 -12t33.5 -33t12 -47t-12 -47
t-33.5 -33t-49.5 -12t-49.5 12t-33.5 33t-12 47t12 47z" />
    <glyph glyph-name="uni1E9E" unicode="&#x1e9e;" horiz-adv-x="962" 
d="M622.5 454q7.5 -7 25.5 -13t54 -14q78 -17 128 -42.5t76 -65.5t26 -98q0 -71 -36 -124.5t-103.5 -82.5t-160.5 -29q-159 0 -273 81q-16 11 -16 23q0 9 9 22l70 105q7 9 12 13t11 4q7 0 20 -8q35 -22 78 -36t83 -14q34 0 50.5 8.5t16.5 23.5q0 11 -8 18.5t-27.5 13.5
t-60.5 15q-109 24 -162 68t-53 119q0 48 26 83l-16 1q-28 0 -48.5 -11.5t-32.5 -30.5q-21 -33 -21 -120v-333q0 -30 -30 -30h-175q-30 0 -30 30v345q0 75 7 122t24 79t49 59q50 43 124.5 64.5t196.5 21.5q116 0 227 -23t197 -64q14 -7 20.5 -14t6.5 -15q0 -11 -9 -26
l-58 -99q-6 -11 -12 -15.5t-13 -4.5q-9 0 -22 6q-35 17 -69 27t-62 10q-47 0 -47 -31q0 -11 7.5 -18z" />
    <glyph glyph-name="Ygrave" unicode="&#x1ef2;" horiz-adv-x="730" 
d="M2 667q-6 11 -6 18q0 15 22 15h185q21 0 31.5 -6.5t21.5 -26.5l113 -206l112 206q11 20 21.5 26.5t31.5 6.5h178q22 0 22 -15q0 -7 -6 -18l-243 -413v-224q0 -30 -30 -30h-175q-30 0 -30 30v219zM255 1005q15 0 34 -14l203 -147q13 -10 13 -20t-14 -21l-58 -43
q-12 -9 -24 -9q-11 0 -30 10l-232 125q-20 11 -20 25q0 11 16 23l79 57q20 14 33 14z" />
    <glyph glyph-name="ygrave" unicode="&#x1ef3;" horiz-adv-x="730" 
d="M2 667q-6 11 -6 18q0 15 22 15h185q21 0 31.5 -6.5t21.5 -26.5l113 -206l112 206q11 20 21.5 26.5t31.5 6.5h178q22 0 22 -15q0 -7 -6 -18l-243 -413v-224q0 -30 -30 -30h-175q-30 0 -30 30v219zM255 1005q15 0 34 -14l203 -147q13 -10 13 -20t-14 -21l-58 -43
q-12 -9 -24 -9q-11 0 -30 10l-232 125q-20 11 -20 25q0 11 16 23l79 57q20 14 33 14z" />
    <glyph glyph-name="endash" unicode="&#x2013;" horiz-adv-x="600" 
d="M520 253h-440q-30 0 -30 30v115q0 30 30 30h440q30 0 30 -30v-115q0 -30 -30 -30z" />
    <glyph glyph-name="emdash" unicode="&#x2014;" horiz-adv-x="840" 
d="M760 253h-680q-30 0 -30 30v115q0 30 30 30h680q30 0 30 -30v-115q0 -30 -30 -30z" />
    <glyph glyph-name="afii00208" unicode="&#x2015;" horiz-adv-x="500" 
d="M45 360h410q30 0 30 -30v-118q0 -30 -30 -30h-410q-30 0 -30 30v118q0 30 30 30z" />
    <glyph glyph-name="quoteleft" unicode="&#x2018;" horiz-adv-x="330" 
d="M147 708.5q11 6.5 33 6.5h66q29 0 29 -17q0 -8 -7 -21l-61 -107q35 -8 59 -36.5t24 -71.5q0 -34 -16 -60.5t-44.5 -41.5t-64.5 -15q-38 0 -66 14.5t-43.5 41.5t-15.5 64q0 35 11.5 69.5t37.5 81.5l37 68q10 18 21 24.5z" />
    <glyph glyph-name="quoteright" unicode="&#x2019;" horiz-adv-x="330" 
d="M64 526.5q-24 28.5 -24 71.5q0 34 16 60.5t44.5 41.5t64.5 15q38 0 66 -14.5t43.5 -41.5t15.5 -64q0 -35 -11.5 -69.5t-37.5 -81.5l-37 -68q-10 -18 -21 -24.5t-33 -6.5h-66q-29 0 -29 17q0 8 7 21l61 107q-35 8 -59 36.5z" />
    <glyph glyph-name="quotesinglbase" unicode="&#x201a;" horiz-adv-x="330" 
d="M64 23.5q-24 28.5 -24 71.5q0 34 16 60.5t44.5 41.5t64.5 15q38 0 66 -14.5t43.5 -41.5t15.5 -64q0 -35 -11.5 -69.5t-37.5 -81.5l-37 -68q-10 -18 -21 -24.5t-33 -6.5h-66q-29 0 -29 17q0 8 7 21l61 107q-35 8 -59 36.5z" />
    <glyph glyph-name="quotedblleft" unicode="&#x201c;" horiz-adv-x="610" 
d="M147 708.5q11 6.5 33 6.5h66q29 0 29 -17q0 -8 -7 -21l-61 -107q35 -8 59 -36.5t24 -71.5q0 -34 -16 -60.5t-44.5 -41.5t-64.5 -15q-38 0 -66 14.5t-43.5 41.5t-15.5 64q0 35 11.5 69.5t37.5 81.5l37 68q10 18 21 24.5zM427 708.5q11 6.5 33 6.5h66q29 0 29 -17
q0 -8 -7 -21l-61 -107q35 -8 59 -36.5t24 -71.5q0 -34 -16 -60.5t-44.5 -41.5t-64.5 -15q-38 0 -66 14.5t-43.5 41.5t-15.5 64q0 35 11.5 69.5t37.5 81.5l37 68q10 18 21 24.5z" />
    <glyph glyph-name="quotedblright" unicode="&#x201d;" horiz-adv-x="610" 
d="M64 526.5q-24 28.5 -24 71.5q0 34 16 60.5t44.5 41.5t64.5 15q38 0 66 -14.5t43.5 -41.5t15.5 -64q0 -35 -11.5 -69.5t-37.5 -81.5l-37 -68q-10 -18 -21 -24.5t-33 -6.5h-66q-29 0 -29 17q0 8 7 21l61 107q-35 8 -59 36.5zM344 526.5q-24 28.5 -24 71.5q0 34 16 60.5
t44.5 41.5t64.5 15q38 0 66 -14.5t43.5 -41.5t15.5 -64q0 -35 -11.5 -69.5t-37.5 -81.5l-37 -68q-10 -18 -21 -24.5t-33 -6.5h-66q-29 0 -29 17q0 8 7 21l61 107q-35 8 -59 36.5z" />
    <glyph glyph-name="quotedblbase" unicode="&#x201e;" horiz-adv-x="610" 
d="M64 23.5q-24 28.5 -24 71.5q0 34 16 60.5t44.5 41.5t64.5 15q38 0 66 -14.5t43.5 -41.5t15.5 -64q0 -35 -11.5 -69.5t-37.5 -81.5l-37 -68q-10 -18 -21 -24.5t-33 -6.5h-66q-29 0 -29 17q0 8 7 21l61 107q-35 8 -59 36.5zM344 23.5q-24 28.5 -24 71.5q0 34 16 60.5
t44.5 41.5t64.5 15q38 0 66 -14.5t43.5 -41.5t15.5 -64q0 -35 -11.5 -69.5t-37.5 -81.5l-37 -68q-10 -18 -21 -24.5t-33 -6.5h-66q-29 0 -29 17q0 8 7 21l61 107q-35 8 -59 36.5z" />
    <glyph glyph-name="dagger" unicode="&#x2020;" horiz-adv-x="556" 
d="M184.5 321.5q-3.5 3.5 -14.5 3.5h-120q-30 0 -30 30v115q0 30 30 30h120q11 0 14.5 4t3.5 14v152q0 30 30 30h120q30 0 30 -30v-152q0 -10 4 -14t14 -4h120q30 0 30 -30v-115q0 -30 -30 -30h-120q-10 0 -14 -3.5t-4 -14.5v-377q0 -30 -30 -30h-120q-30 0 -30 30v377
q0 11 -3.5 14.5z" />
    <glyph glyph-name="daggerdbl" unicode="&#x2021;" horiz-adv-x="556" 
d="M50 223h120q11 0 14.5 4t3.5 14v118q0 11 -3.5 14.5t-14.5 3.5h-120q-30 0 -30 30v115q0 30 30 30h120q11 0 14.5 4t3.5 14v100q0 30 30 30h120q30 0 30 -30v-100q0 -10 4 -14t14 -4h120q30 0 30 -30v-115q0 -30 -30 -30h-120q-10 0 -14 -3.5t-4 -14.5v-118q0 -10 4 -14
t14 -4h120q30 0 30 -30v-115q0 -30 -30 -30h-120q-10 0 -14 -3.5t-4 -14.5v-100q0 -30 -30 -30h-120q-30 0 -30 30v100q0 11 -3.5 14.5t-14.5 3.5h-120q-30 0 -30 30v115q0 30 30 30z" />
    <glyph glyph-name="bullet" unicode="&#x2022;" horiz-adv-x="330" 
d="M57 414.5q17 28.5 45.5 45.5t62.5 17t62.5 -17t45.5 -45.5t17 -62.5t-17 -62.5t-45.5 -45.5t-62.5 -17t-62.5 17t-45.5 45.5t-17 62.5t17 62.5z" />
    <glyph glyph-name="ellipsis" unicode="&#x2026;" horiz-adv-x="956" 
d="M56 157q16 26 44.5 40.5t64.5 14.5q37 0 65.5 -14.5t44 -40.5t15.5 -59q0 -32 -15.5 -58t-44 -40.5t-65.5 -14.5q-36 0 -64.5 14.5t-44.5 40.5t-16 58q0 33 16 59zM369 157q16 26 44.5 40.5t64.5 14.5q37 0 65.5 -14.5t44 -40.5t15.5 -59q0 -32 -15.5 -58t-44 -40.5
t-65.5 -14.5q-36 0 -64.5 14.5t-44.5 40.5t-16 58q0 33 16 59zM682 157q16 26 44.5 40.5t64.5 14.5q37 0 65.5 -14.5t44 -40.5t15.5 -59q0 -32 -15.5 -58t-44 -40.5t-65.5 -14.5q-36 0 -64.5 14.5t-44.5 40.5t-16 58q0 33 16 59z" />
    <glyph glyph-name="perthousand" unicode="&#x2030;" horiz-adv-x="1386" 
d="M44 621.5q24 45.5 69 69.5t105 24t105 -23.5t69 -67.5t24 -103q0 -62 -24 -107.5t-69 -69.5t-105 -24t-105 23.5t-69 67.5t-24 103q0 62 24 107.5zM687.5 711q7.5 4 24.5 4h127q10 0 14 -4t4 -9t-3 -10.5t-9 -12.5l-554 -673q-11 -13 -18.5 -17t-24.5 -4h-127
q-10 0 -14 4t-4 9t3 10.5t9 12.5l554 673q11 13 18.5 17zM263 518q0 67 -45 67t-45 -68q0 -67 45 -67t45 68zM568 286.5q24 45.5 69 69.5t105 24t105 -23.5t69 -67.5t24 -103q0 -62 -24 -107.5t-69 -69.5t-105 -24t-105 23.5t-69 67.5t-24 103q0 62 24 107.5zM994 286.5
q24 45.5 69 69.5t105 24t105 -23.5t69 -67.5t24 -103q0 -62 -24 -107.5t-69 -69.5t-105 -24t-105 23.5t-69 67.5t-24 103q0 62 24 107.5zM787 183q0 67 -45 67t-45 -68q0 -67 45 -67t45 68zM1213 183q0 67 -45 67t-45 -68q0 -67 45 -67t45 68z" />
    <glyph glyph-name="guilsinglleft" unicode="&#x2039;" horiz-adv-x="342" 
d="M35 278q-5 12 -5 32v80q0 19 5 31t19 27l157 162q11 11 21 11q12 0 19 -15l44 -92q6 -12 6 -22q0 -14 -15 -29l-113 -113l113 -113q15 -15 15 -29q0 -10 -6 -22l-44 -92q-7 -15 -19 -15q-10 0 -21 11l-157 162q-14 14 -19 26z" />
    <glyph glyph-name="guilsinglright" unicode="&#x203a;" horiz-adv-x="342" 
d="M41 208q0 14 15 29l113 113l-113 113q-15 15 -15 29q0 10 6 22l44 92q8 15 19 15q10 0 21 -11l157 -162q14 -15 19 -27t5 -31v-80q0 -20 -5 -32t-19 -26l-157 -162q-11 -11 -21 -11q-11 0 -19 15l-44 92q-6 12 -6 22z" />
    <glyph glyph-name="fraction" unicode="&#x2044;" horiz-adv-x="214" 
d="M257.5 711q6.5 4 20.5 4h118q9 0 14 -4.5t5 -10.5q0 -7 -9 -21l-435 -673q-8 -13 -14.5 -17t-20.5 -4h-118q-9 0 -14 4.5t-5 10.5q0 7 9 21l435 673q8 13 14.5 17z" />
    <glyph glyph-name="uni2070" unicode="&#x2070;" horiz-adv-x="440" 
d="M43.5 749q24.5 49 70 75t108.5 26q61 0 106 -25.5t69 -73t24 -112.5q0 -68 -24.5 -117t-70 -75t-108.5 -26q-61 0 -106 25.5t-69 73t-24 112.5q0 68 24.5 117zM182.5 569.5q11.5 -22.5 37.5 -22.5q49 0 49 89q0 43 -11.5 65.5t-37.5 22.5q-49 0 -49 -89q0 -43 11.5 -65.5
z" />
    <glyph glyph-name="uni2074" unicode="&#x2074;" horiz-adv-x="440" 
d="M405 605q11 0 15.5 -4.5t4.5 -15.5v-70q0 -10 -4.5 -15t-15.5 -5h-38v-44q0 -10 -4.5 -15t-15.5 -5h-109q-10 0 -15 5t-5 15v44h-152q-28 0 -42 13t-14 32q0 12 5 22t17 23l213 228q22 23 37.5 32.5t32.5 9.5q23 0 37.5 -14t14.5 -39v-197h38zM223 676l-63 -71h63v71z
" />
    <glyph glyph-name="uni2075" unicode="&#x2075;" horiz-adv-x="440" 
d="M195 722q-2 -2 -3 -9l-2 -25q25 5 53 5q75 0 116 -30.5t41 -90.5q0 -44 -24 -78.5t-71 -53.5t-113 -19q-42 0 -81 9.5t-70 25.5q-7 3 -10 6.5t-3 7.5t5 14l37 68q3 5 6.5 8.5t7.5 3.5t11 -3q40 -18 90 -18q30 0 46.5 6.5t16.5 19.5t-16.5 19t-54.5 6q-56 0 -104 -10
q-3 -1 -8 -1q-13 0 -12 17l14 220q1 11 5.5 15.5t15.5 4.5h267q11 0 15.5 -4.5t4.5 -15.5v-76q0 -10 -4.5 -15t-15.5 -5h-151q-7 0 -9 -2z" />
    <glyph glyph-name="uni2076" unicode="&#x2076;" horiz-adv-x="440" 
d="M169.5 836.5q6.5 3.5 20.5 3.5h129q14 0 14 -8q0 -6 -6 -12l-78 -88l16 1q45 0 80 -17t55 -49.5t20 -76.5q0 -49 -26 -87.5t-72 -60t-106 -21.5q-58 0 -101.5 20t-67.5 57t-24 86q0 39 15.5 75t52.5 83l63 80q9 11 15.5 14.5zM187.5 555q12.5 -12 33.5 -12q22 0 34.5 12
t12.5 31t-12.5 31t-33.5 12q-22 0 -34.5 -12t-12.5 -31t12.5 -31z" />
    <glyph glyph-name="uni2077" unicode="&#x2077;" horiz-adv-x="440" 
d="M245.5 435q-7.5 -4 -22.5 -4h-113q-7 0 -11.5 3.5t-4.5 9.5q0 5 3 11l132 259h-169q-10 0 -15 5t-5 15v86q0 11 5 15.5t15 4.5h350q10 0 14 -3t4 -9q0 -4 -3 -12l-167 -365q-5 -12 -12.5 -16z" />
    <glyph glyph-name="uni2078" unicode="&#x2078;" horiz-adv-x="440" 
d="M321 834q41 -16 62 -44.5t21 -64.5q0 -32 -14 -52.5t-40 -32.5q33 -10 50.5 -35t17.5 -58q0 -62 -54.5 -94t-146.5 -32q-58 0 -102 14.5t-68.5 42.5t-24.5 69q0 33 17.5 58t50.5 35q-26 9 -40 30.5t-14 54.5q0 36 22 64.5t64.5 44.5t100.5 16q57 0 98 -16zM191.5 733.5
q-10.5 -7.5 -10.5 -23.5t10.5 -23.5t28.5 -7.5t28.5 7.5t10.5 23.5t-10.5 23.5t-28.5 7.5t-28.5 -7.5zM254 588.5q-12 8.5 -34 8.5t-34 -8.5t-12 -24.5t12 -25t34 -9t34 9t12 25t-12 24.5z" />
    <glyph glyph-name="uni2079" unicode="&#x2079;" horiz-adv-x="440" 
d="M270.5 434.5q-6.5 -3.5 -20.5 -3.5h-129q-14 0 -14 8q0 6 6 12l78 88l-16 -1q-45 0 -80 17t-55 49.5t-20 76.5q0 49 26 87.5t72 60t106 21.5q58 0 101.5 -20t67.5 -57t24 -86q0 -39 -15.5 -75t-52.5 -83l-63 -80q-9 -11 -15.5 -14.5zM252.5 716q-12.5 12 -33.5 12
q-22 0 -34.5 -12t-12.5 -31t12.5 -31t33.5 -12q22 0 34.5 12t12.5 31t-12.5 31z" />
    <glyph glyph-name="uni2080" unicode="&#x2080;" horiz-adv-x="440" 
d="M43.5 178q24.5 49 70 75t108.5 26q61 0 106 -25.5t69 -73t24 -112.5q0 -68 -24.5 -117t-70 -75t-108.5 -26q-61 0 -106 25.5t-69 73t-24 112.5q0 68 24.5 117zM182.5 -1.5q11.5 -22.5 37.5 -22.5q49 0 49 89q0 43 -11.5 65.5t-37.5 22.5q-49 0 -49 -89q0 -43 11.5 -65.5z
" />
    <glyph glyph-name="uni2081" unicode="&#x2081;" horiz-adv-x="330" 
d="M244.5 264.5q4.5 -4.5 4.5 -15.5v-369q0 -10 -4.5 -15t-15.5 -5h-109q-10 0 -15 5t-5 15v253q0 7 -2.5 9.5t-9.5 2.5h-43q-10 0 -15 5t-5 15v84q0 11 5 15.5t15 4.5h184q11 0 15.5 -4.5z" />
    <glyph glyph-name="uni2082" unicode="&#x2082;" horiz-adv-x="440" 
d="M390.5 -135q-4.5 -5 -15.5 -5h-333q-8 0 -12.5 3t-4.5 8q0 7 9 17l119 123q38 38 54.5 61t16.5 40q0 19 -13 30t-36 11q-38 0 -78 -28q-6 -5 -13 -5t-11 8l-43 69q-6 9 -6 15q0 9 11 16q72 51 160 51q58 0 99 -19t61.5 -51.5t20.5 -73.5q0 -37 -16.5 -68t-53.5 -66
l-16 -15h85q10 0 15 -5.5t5 -16.5v-84q0 -10 -4.5 -15z" />
    <glyph glyph-name="uni2083" unicode="&#x2083;" horiz-adv-x="440" 
d="M232.5 -14.5q17.5 9.5 17.5 27.5q0 40 -106 40q-13 0 -13 8q0 6 4 11l48 71h-119q-10 0 -15 5t-5 15v86q0 11 5 15.5t15 4.5h322q16 0 16 -11q0 -5 -5 -13l-85 -120q44 -10 67 -39t23 -74q0 -44 -24 -81t-71 -59t-113 -22q-94 0 -163 48q-12 8 -12 16q0 5 5 13l44 71
q7 11 14 11q5 0 13 -5q42 -28 91 -28q29 0 46.5 9.5z" />
    <glyph glyph-name="uni2084" unicode="&#x2084;" horiz-adv-x="440" 
d="M405 34q11 0 15.5 -4.5t4.5 -15.5v-70q0 -10 -4.5 -15t-15.5 -5h-38v-44q0 -10 -4.5 -15t-15.5 -5h-109q-10 0 -15 5t-5 15v44h-152q-28 0 -42 13t-14 32q0 12 5 22t17 23l213 228q22 23 37.5 32.5t32.5 9.5q23 0 37.5 -14t14.5 -39v-197h38zM223 105l-63 -71h63v71z" />
    <glyph glyph-name="uni2085" unicode="&#x2085;" horiz-adv-x="440" 
d="M195 151q-2 -2 -3 -9l-2 -25q25 5 53 5q75 0 116 -30.5t41 -90.5q0 -44 -24 -78.5t-71 -53.5t-113 -19q-42 0 -81 9.5t-70 25.5q-7 3 -10 6.5t-3 7.5t5 14l37 68q3 5 6.5 8.5t7.5 3.5t11 -3q40 -18 90 -18q30 0 46.5 6.5t16.5 19.5t-16.5 19t-54.5 6q-56 0 -104 -10
q-3 -1 -8 -1q-13 0 -12 17l14 220q1 11 5.5 15.5t15.5 4.5h267q11 0 15.5 -4.5t4.5 -15.5v-76q0 -10 -4.5 -15t-15.5 -5h-151q-7 0 -9 -2z" />
    <glyph glyph-name="uni2086" unicode="&#x2086;" horiz-adv-x="440" 
d="M169.5 265.5q6.5 3.5 20.5 3.5h129q14 0 14 -8q0 -6 -6 -12l-78 -88l16 1q45 0 80 -17t55 -49.5t20 -76.5q0 -49 -26 -87.5t-72 -60t-106 -21.5q-58 0 -101.5 20t-67.5 57t-24 86q0 39 15.5 75t52.5 83l63 80q9 11 15.5 14.5zM187.5 -16q12.5 -12 33.5 -12q22 0 34.5 12
t12.5 31t-12.5 31t-33.5 12q-22 0 -34.5 -12t-12.5 -31t12.5 -31z" />
    <glyph glyph-name="uni2087" unicode="&#x2087;" horiz-adv-x="440" 
d="M245.5 -136q-7.5 -4 -22.5 -4h-113q-7 0 -11.5 3.5t-4.5 9.5q0 5 3 11l132 259h-169q-10 0 -15 5t-5 15v86q0 11 5 15.5t15 4.5h350q10 0 14 -3t4 -9q0 -4 -3 -12l-167 -365q-5 -12 -12.5 -16z" />
    <glyph glyph-name="uni2088" unicode="&#x2088;" horiz-adv-x="440" 
d="M321 263q41 -16 62 -44.5t21 -64.5q0 -32 -14 -52.5t-40 -32.5q33 -10 50.5 -35t17.5 -58q0 -62 -54.5 -94t-146.5 -32q-58 0 -102 14.5t-68.5 42.5t-24.5 69q0 33 17.5 58t50.5 35q-26 9 -40 30.5t-14 54.5q0 36 22 64.5t64.5 44.5t100.5 16q57 0 98 -16zM191.5 162.5
q-10.5 -7.5 -10.5 -23.5t10.5 -23.5t28.5 -7.5t28.5 7.5t10.5 23.5t-10.5 23.5t-28.5 7.5t-28.5 -7.5zM254 17.5q-12 8.5 -34 8.5t-34 -8.5t-12 -24.5t12 -25t34 -9t34 9t12 25t-12 24.5z" />
    <glyph glyph-name="uni2089" unicode="&#x2089;" horiz-adv-x="440" 
d="M270.5 -136.5q-6.5 -3.5 -20.5 -3.5h-129q-14 0 -14 8q0 6 6 12l78 88l-16 -1q-45 0 -80 17t-55 49.5t-20 76.5q0 49 26 87.5t72 60t106 21.5q58 0 101.5 -20t67.5 -57t24 -86q0 -39 -15.5 -75t-52.5 -83l-63 -80q-9 -11 -15.5 -14.5zM252.5 145q-12.5 12 -33.5 12
q-22 0 -34.5 -12t-12.5 -31t12.5 -31t33.5 -12q22 0 34.5 12t12.5 31t-12.5 31z" />
    <glyph glyph-name="uni20A0" unicode="&#x20a0;" 
d="M156.5 223.5q-61.5 37.5 -96.5 98.5t-35 133q0 76 36 135t98.5 92t138.5 33q61 0 101.5 -9.5t75.5 -32.5q13 -9 13 -18q0 -6 -4 -13l-42 -78q-5 -10 -12.5 -15.5t-15.5 -5.5q-6 0 -12 3q-18 9 -35.5 13.5t-48.5 4.5t-53.5 -14t-35 -38.5t-12.5 -54.5q0 -45 19.5 -78
t56.5 -46v141q0 14 6.5 20t19.5 6h338q27 0 27 -26v-93q0 -14 -6.5 -20t-20.5 -6h-165q-9 0 -12 -3.5t-3 -11.5v-6q0 -9 3 -12t12 -3h132q14 0 20 -6.5t6 -20.5v-84q0 -13 -6 -19.5t-20 -6.5h-132q-9 0 -12 -3.5t-3 -11.5v-7q0 -8 3 -11.5t12 -3.5h166q14 0 20.5 -6t6.5 -20
v-93q0 -26 -27 -26h-339q-13 0 -19.5 6.5t-6.5 19.5v156q-75 4 -136.5 41.5z" />
    <glyph glyph-name="colonmonetary" unicode="&#x20a1;" 
d="M170 47.5q-68 47.5 -103 125.5t-35 178q0 91 35 167t103 126.5t165 64.5v65q0 15 4 20.5t16 5.5t16 -5.5t4 -20.5v-60l33 1h7v59q0 15 4 20.5t16 5.5t16 -5.5t4 -20.5v-61q96 -8 156 -45q9 -5 12.5 -10t3.5 -11q0 -7 -4 -15l-47 -106q-4 -9 -10.5 -14t-14.5 -5
q-5 0 -13 3q-41 15 -83 20v-359q48 7 90 35q10 7 18 7q5 0 8.5 -3.5t7.5 -11.5l48 -101q6 -12 6 -20q0 -7 -4 -12t-13 -11q-70 -49 -161 -64v-64q0 -15 -4 -20.5t-16 -5.5t-16 5.5t-4 20.5v60q-7 -1 -22 -1l-18 1v-60q0 -15 -4 -20.5t-16 -5.5t-16 5.5t-4 20.5v63
q-97 11 -165 58.5zM415 532q-24 0 -40 -4v-357q17 -3 37 -3h3v364zM269.5 451.5q-22.5 -42.5 -22.5 -100.5q0 -65 22.5 -107.5t65.5 -61.5v333q-43 -21 -65.5 -63.5z" />
    <glyph glyph-name="uni20A2" unicode="&#x20a2;" 
d="M299 435.5q5 5.5 17 5.5h103q12 0 17.5 -5.5t5.5 -16.5v-33q20 31 48 47.5t72 16.5h5q12 0 17.5 -5.5t5.5 -18.5v-100q0 -12 -5.5 -17.5t-17.5 -5.5h-38q-34 0 -52.5 -9.5t-26.5 -31.5t-8 -63v-30q28 3 53 12t50 25q10 7 18 7q5 0 8.5 -3.5t7.5 -11.5l48 -101
q6 -12 6 -20q0 -7 -4 -12t-13 -11q-47 -32 -104.5 -50.5t-118.5 -18.5q-115 0 -196.5 45.5t-123 128.5t-41.5 192q0 102 43.5 185t128.5 131t204 48q64 0 114 -11.5t89 -35.5q9 -5 12.5 -10t3.5 -11q0 -7 -4 -15l-47 -106q-4 -9 -10.5 -14t-14.5 -5q-5 0 -13 3
q-31 12 -59.5 17t-63.5 5q-54 0 -92 -23t-57 -64t-19 -94q0 -94 47 -141v209q0 11 5 16.5z" />
    <glyph glyph-name="franc" unicode="&#x20a3;" horiz-adv-x="643" 
d="M39 100q-14 0 -20 6t-6 20v68q0 14 6 20t20 6h66v450q0 30 30 30h453q30 0 30 -30v-120q0 -30 -30 -30h-240q-10 0 -14 -3.5t-4 -14.5v-40q0 -10 4 -14t14 -4h207q30 0 30 -30v-100q0 -30 -30 -30h-207q-10 0 -14 -3.5t-4 -14.5v-46h110q14 0 20.5 -6t6.5 -20v-68
q0 -14 -6.5 -20t-20.5 -6h-110v-70q0 -30 -30 -30h-165q-30 0 -30 30v70h-66z" />
    <glyph glyph-name="lira" unicode="&#x20a4;" 
d="M47 116q0 6 4 11t14 9q63 28 81 72h-97q-30 0 -30 30v60q0 30 30 30h93l-11 37h-82q-30 0 -30 30v60q0 30 30 30h60q3 67 38 119t100.5 81.5t155.5 29.5q71 0 127 -13.5t98 -45.5q9 -7 13 -12.5t4 -12.5q0 -10 -7 -21l-55 -90q-13 -19 -30 -19q-8 0 -16 4q-21 9 -44 14.5
t-54 5.5q-35 0 -57.5 -10.5t-32.5 -29.5h155q30 0 30 -30v-60q0 -30 -30 -30h-156q2 -13 4 -22t3 -15h149q30 0 30 -30v-60q0 -30 -30 -30h-152q-6 -12 -12.5 -21.5t-11.5 -15.5q24 3 35 3q27 0 73 -6q35 -5 60 -5q33 0 58 3.5t43 12.5q11 6 19 6q12 0 19 -16l44 -104
q5 -13 5 -19q0 -7 -5 -13t-16 -13q-63 -37 -176 -37q-23 0 -50 2.5t-52 5.5q-61 9 -105 9q-78 0 -145 -21q-9 -3 -15 -3t-10 3.5t-9 12.5l-50 109q-4 12 -4 15z" />
    <glyph glyph-name="uni20A5" unicode="&#x20a5;" horiz-adv-x="964" 
d="M70 509h178q15 0 21 -6t6 -19v-14q22 21 55.5 35t70.5 14q56 0 95 -19l47 113q7 16 14.5 21t25.5 5h106q21 0 21 -15q0 -6 -3 -14l-41 -99q25 8 58 8q196 0 196 -238v-256q0 -25 -27 -25h-177q-13 0 -19.5 6.5t-6.5 19.5v217q0 44 -10.5 63.5t-35.5 19.5t-36 -20t-11 -63
v-218q0 -25 -27 -25h-117l-27 -65q-7 -16 -14.5 -21t-25.5 -5h-106q-21 0 -21 15q0 6 3 14l105 252v53q0 44 -10.5 63.5t-35.5 19.5t-35.5 -20t-10.5 -63v-217q0 -14 -6.5 -20t-20.5 -6h-178q-13 0 -19 6.5t-6 19.5v458q0 25 25 25z" />
    <glyph glyph-name="uni20A6" unicode="&#x20a6;" horiz-adv-x="764" 
d="M45 198q-30 0 -30 30v60q0 30 30 30h37v47h-37q-30 0 -30 30v60q0 30 30 30h37v186q0 44 30 44q12 0 27 -8t36 -28l282 -278v269q0 30 30 30h165q30 0 30 -30v-185h37q30 0 30 -30v-60q0 -30 -30 -30h-37v-47h37q30 0 30 -30v-60q0 -30 -30 -30h-37v-169q0 -44 -30 -44
q-12 0 -27 8t-36 28l-282 278v-269q0 -30 -30 -30h-165q-30 0 -30 30v168h-37z" />
    <glyph glyph-name="peseta" unicode="&#x20a7;" horiz-adv-x="1362" 
d="M51.5 709q6.5 6 19.5 6h195q102 0 173.5 -31t108.5 -90t37 -144q0 -84 -39.5 -141.5t-110.5 -86.5t-166 -29h-15q-9 0 -12 -3.5t-3 -11.5v-152q0 -14 -6.5 -20t-20.5 -6h-141q-13 0 -19.5 6.5t-6.5 19.5v663q0 14 6.5 20zM630 348q-13 0 -19.5 6.5t-6.5 19.5v109
q0 14 6 20.5t20 6.5h43v114q0 14 6.5 20t19.5 6h133q14 0 20.5 -6t6.5 -20v-114h46q14 0 20 -6.5t6 -20.5v-109q0 -13 -6 -19.5t-20 -6.5h-46v-322q0 -14 -6.5 -20t-20.5 -6h-133q-13 0 -19.5 6.5t-6.5 19.5v322h-43zM356.5 385.5q28.5 17.5 28.5 63.5q0 48 -28.5 69.5
t-77.5 21.5h-25q-9 0 -12 -3.5t-3 -11.5v-142q0 -8 3 -11.5t12 -3.5h25q49 0 77.5 17.5zM985 150q4 4 9 4t10 -4q21 -13 48 -19t54 -6q23 0 37 7.5t14 21.5q0 12 -14 20t-45 18q-43 15 -72.5 30.5t-51.5 47.5t-22 82q0 87 54 129.5t152 42.5q94 0 152 -29q8 -4 8 -12
q0 -4 -4 -16l-39 -95q-4 -9 -10 -9q-4 0 -14 5q-32 16 -79 16q-16 0 -30.5 -6.5t-14.5 -19.5q0 -12 14.5 -20t45.5 -18q43 -14 72.5 -29t51 -45.5t21.5 -78.5q0 -47 -22.5 -88.5t-69 -67.5t-116.5 -26q-61 0 -106.5 7.5t-77.5 29.5q-1 1 -5.5 4t-6 5t-1.5 4q0 4 5 12l46 93
q3 6 7 10z" />
    <glyph glyph-name="uni20A8" unicode="&#x20a8;" horiz-adv-x="1272" 
d="M85 700h270q157 0 242.5 -60.5t85.5 -180.5q0 -135 -109 -199l145 -227q6 -9 6 -17t-6 -12t-18 -4h-189q-19 0 -30.5 7.5t-21.5 25.5l-95 164q-5 9 -10.5 12t-14.5 3h-32q-10 0 -14 -3.5t-4 -14.5v-164q0 -30 -30 -30h-175q-30 0 -30 30v640q0 30 30 30zM813 182
q8 0 22 -8q28 -17 69 -28t71 -11q24 0 34 4.5t10 14.5q0 7 -4.5 11t-17 7.5t-29.5 7.5q-13 2 -30 6q-91 20 -135.5 58.5t-44.5 106.5q0 55 29 94t84 59t131 20q132 0 220 -57q12 -7 12 -17q0 -9 -7 -19l-51 -90q-6 -10 -17 -10q-9 0 -18 6q-29 17 -63 27t-60 10
q-19 0 -28 -4.5t-9 -14.5q0 -8 6.5 -12.5t24 -8.5t42.5 -8q97 -18 142.5 -57.5t45.5 -108.5q0 -86 -66 -130.5t-190 -44.5q-143 0 -230 59q-7 5 -10 9.5t-3 9.5q0 8 7 19l47 89q6 11 16 11zM418.5 397q28.5 17 28.5 58q0 35 -29.5 51t-85.5 16h-24q-10 0 -14 -3.5t-4 -14.5
v-106q0 -10 4 -14t14 -4h24q58 0 86.5 17z" />
    <glyph glyph-name="uni20A9" unicode="&#x20a9;" horiz-adv-x="1002" 
d="M45 318h110l-20 47h-90q-30 0 -30 30v60q0 30 30 30h39l-78 181q-5 12 -5 18q0 16 25 16h187q15 0 23.5 -2.5t14 -9t11.5 -20.5l92 -230l106 218q12 26 21 35t20 9t20 -9t21 -35l108 -218l90 230q6 14 11.5 20.5t14 9t23.5 2.5h187q25 0 25 -16q0 -6 -5 -18l-78 -181h39
q30 0 30 -30v-60q0 -30 -30 -30h-91l-20 -47h111q30 0 30 -30v-60q0 -30 -30 -30h-162l-71 -166q-13 -31 -22 -41.5t-20 -10.5q-10 0 -19 10t-25 40l-137 257l-137 -257q-16 -30 -25 -40t-19 -10q-11 0 -19.5 10.5t-22.5 41.5l-72 166h-161q-30 0 -30 30v60q0 30 30 30z" />
    <glyph glyph-name="afii57636" unicode="&#x20aa;" horiz-adv-x="854" 
d="M44.5 606q4.5 4 15.5 4h273q71 0 125.5 -14.5t96 -73.5t41.5 -178v-125q0 -26 -27 -26h-91q-13 0 -19.5 6.5t-6.5 19.5v126q0 58 -15.5 88t-40.5 39t-63 9h-108q-21 0 -21 -21v-434q0 -26 -27 -26h-111q-13 0 -19.5 6.5t-6.5 19.5v564q0 12 4.5 16zM264.5 414
q6.5 6 19.5 6h91q27 0 27 -26v-250q0 -15 13 -15h126q37 0 59.5 9t36 38.5t13.5 88.5v319q0 14 6.5 20t19.5 6h111q27 0 27 -26v-318q0 -119 -44 -177.5t-100.5 -73.5t-128.5 -15h-263q-11 0 -15.5 4t-4.5 16v374q0 14 6.5 20z" />
    <glyph glyph-name="dong" unicode="&#x20ab;" horiz-adv-x="636" 
d="M107 64q-79 64 -79 189q0 84 37.5 141.5t106.5 86t164 28.5h11q8 0 11 3t3 11v42h-101q-13 0 -19.5 6.5t-6.5 19.5v82q0 14 6 20.5t20 6.5h101v45q0 13 6.5 19t19.5 6h179q25 0 25 -25v-45h36q14 0 20.5 -6.5t6.5 -20.5v-82q0 -26 -27 -26h-36v-540q0 -25 -25 -25h-236
q-144 0 -223 64zM358 181.5q3 3.5 3 11.5v124q0 8 -3 11t-11 3h-11q-33 0 -54 -21.5t-21 -56.5q0 -36 20 -55.5t55 -19.5h11q8 0 11 3.5zM129 -60h420q30 0 30 -30v-80q0 -30 -30 -30h-420q-30 0 -30 30v80q0 30 30 30z" />
    <glyph glyph-name="Euro" unicode="&#x20ac;" 
d="M35 329q7 4 21 4h29l-1 17l1 17h-74q-19 0 -19 12q0 5 3 12l28 59q5 11 12 15t21 4h44q21 74 69 129.5t120.5 86t164.5 30.5q61 0 117.5 -14t104.5 -41q18 -10 18 -22q0 -6 -5 -18l-53 -111q-4 -9 -8.5 -13t-10.5 -4q-5 0 -17 5q-31 14 -67.5 22t-72.5 8q-92 0 -123 -58
h253q19 0 19 -12q0 -4 -3 -12l-28 -59q-5 -11 -12 -15t-21 -4h-230l-1 -17l1 -17h210q19 0 19 -12q0 -4 -3 -12l-28 -59q-5 -11 -12 -15t-21 -4h-143q30 -58 115 -58q74 0 138 38q10 7 18 7q6 0 10 -4t9 -13l51 -104q6 -13 6 -21q0 -7 -4.5 -13t-15.5 -13q-99 -65 -226 -65
q-89 0 -158.5 30t-115.5 85t-66 131h-87q-19 0 -19 12q0 5 3 12l28 59q5 11 12 15z" />
    <glyph glyph-name="uni20AD" unicode="&#x20ad;" horiz-adv-x="770" 
d="M25 279q-30 0 -30 30v95q0 30 30 30h30v236q0 30 30 30h175q30 0 30 -30v-236h55l143 237q11 18 21 23.5t32 5.5h197q24 0 24 -15q0 -6 -6 -17l-153 -234h93q30 0 30 -30v-95q0 -30 -30 -30h-92l159 -247q6 -10 6 -17q0 -15 -24 -15h-202q-23 0 -33.5 5.5t-20.5 22.5
l-151 251h-48v-249q0 -30 -30 -30h-175q-30 0 -30 30v249h-30z" />
    <glyph glyph-name="uni20AE" unicode="&#x20ae;" 
d="M124 174q2 6 9 9l109 29v39l-94 -25q-8 -4 -12 -4q-14 0 -14 16v81q0 9 2 15t9 9l109 29v112q0 11 -3.5 14.5t-14.5 3.5h-137q-30 0 -30 30v138q0 30 30 30h535q30 0 30 -30v-138q0 -30 -30 -30h-137q-10 0 -14 -3.5t-4 -14.5v-53l92 25q8 4 12 4q14 0 14 -16v-81
q0 -9 -2 -15t-9 -9l-107 -29v-39l92 25q8 4 12 4q14 0 14 -16v-81q0 -9 -2 -15t-9 -9l-107 -29v-120q0 -30 -30 -30h-165q-30 0 -30 30v61l-94 -25q-8 -4 -12 -4q-14 0 -14 16v81q0 9 2 15z" />
    <glyph glyph-name="uni20AF" unicode="&#x20af;" horiz-adv-x="1201" 
d="M174 557v128q102 30 210 30l31 109h153l-38 -132q98 -34 151 -115t53 -194q0 -118 -38 -208t-106.5 -140t-157.5 -50q-38 0 -70 14.5t-61 39.5q-56 -54 -141 -54q-50 0 -88 16t-59 48t-21 77q0 46 20 79.5t56.5 51.5t83.5 18q51 0 97 -31l98 341q-74 -1 -173 -28z
M366 139q25 -19 52 -19q43 0 80.5 33t60.5 93t23 136q0 59 -23.5 103t-68.5 69l-100 -346q-10 -36 -24 -69zM835.5 348.5q57.5 50.5 147.5 50.5q59 0 103 -24t67.5 -67t23.5 -99q0 -65 -24 -115t-76 -79.5t-134 -29.5q-52 0 -96 14l-65 -229h-154l119 418q31 110 88.5 160.5
zM933 105q44 0 68 28.5t24 72.5q0 29 -11.5 46t-34.5 17q-29 0 -50 -25.5t-35 -76.5l-15 -54q29 -8 54 -8zM152 165q-19 0 -29.5 -10t-10.5 -27q0 -16 10.5 -24.5t28.5 -8.5q38 0 59 38q-32 32 -58 32z" />
    <glyph glyph-name="uni20B0" unicode="&#x20b0;" 
d="M215 308q10 0 20 -6t18 -17l45 -62l33 54q-35 46 -58.5 82.5t-38.5 80t-15 90.5q0 76 45.5 130.5t162.5 54.5q76 0 121.5 -27.5t63.5 -69t18 -87.5q0 -79 -55 -166l-48 -77q47 -61 73.5 -118t26.5 -116q0 -79 -31.5 -140t-83 -94.5t-109.5 -33.5q-53 0 -69 3
q-14 2 -20.5 7t-9.5 16.5t-3 32.5v60q0 41 23 41q10 0 26 -2l22 -1q30 0 57 19t27 69q0 22 -6.5 53t-16.5 51l-64 -104q-22 -37 -50 -37q-24 0 -47 31l-53 74l-21 -33q-11 -15 -22 -34q-10 -18 -23 -25t-25 -7h-82q-19 0 -27 4t-8 13q0 8 7.5 21t14.5 23t11 17l125 198
q20 32 46 32zM461 536q0 14 -7.5 23.5t-24.5 9.5q-20 0 -30 -10t-10 -24q0 -47 35 -105q37 62 37 106z" />
    <glyph glyph-name="uni20B1" unicode="&#x20b1;" 
d="M26 316q-14 0 -20 6t-6 20v32q0 14 6 20t20 6h38v31h-38q-14 0 -20 6t-6 20v32q0 14 6 20t20 6h38v155q0 30 30 30h237q127 0 207 -48t107 -137h48q14 0 20.5 -6t6.5 -20v-32q0 -14 -6.5 -20t-20.5 -6h-34v-13q0 -12 -1 -18h35q14 0 20.5 -6t6.5 -20v-32q0 -14 -6.5 -20
t-20.5 -6h-49q-28 -88 -107.5 -136t-205.5 -48h-24q-10 0 -14 -3.5t-4 -14.5v-84q0 -30 -30 -30h-165q-30 0 -30 30v286h-38zM334 552h-27q-10 0 -14 -3.5t-4 -14.5v-19h137q-32 37 -92 37zM456 418l-1 13h-166v-31h166zM422 316h-133v-18q0 -10 4 -14t14 -4h27q55 0 88 36z
" />
    <glyph glyph-name="uni20B2" unicode="&#x20b2;" 
d="M170.5 48.5q-71.5 47.5 -111 123t-39.5 170.5q0 98 39 176t110.5 127.5t167.5 63.5v61q0 30 30 30h50q30 0 30 -30v-56q66 -4 125 -24t109 -53q21 -14 21 -29q0 -10 -9 -22l-69 -102q-7 -10 -13.5 -14.5t-14.5 -4.5q-9 0 -21 6q-33 17 -64 27t-64 13v-323q11 1 22 5
q9 3 12.5 8t3.5 15v115q0 30 30 30h165q30 0 30 -30v-231q0 -19 -5.5 -28.5t-22.5 -18.5q-57 -29 -113.5 -46t-121.5 -21v-86q0 -30 -30 -30h-50q-30 0 -30 30v89q-95 12 -166.5 59.5zM267 439.5q-22 -40.5 -22 -92.5q0 -50 24.5 -90t67.5 -59v300q-48 -18 -70 -58.5z" />
    <glyph glyph-name="uni20B3" unicode="&#x20b3;" 
d="M30 118q-30 0 -30 30v60q0 30 30 30h73l31 67h-104q-30 0 -30 30v60q0 30 30 30h160l113 243q13 29 25 40.5t27 11.5t27 -12t25 -40l113 -243h160q30 0 30 -30v-60q0 -30 -30 -30h-104l31 -67h73q30 0 30 -30v-60q0 -30 -30 -30h-18l40 -85q5 -12 5 -17q0 -16 -24 -16
h-163q-20 0 -30 6.5t-20 26.5l-31 85h-161l-31 -85q-10 -20 -20 -26.5t-30 -6.5h-170q-24 0 -24 16q0 5 5 17l39 85h-17zM359 338l-37 -100h73z" />
    <glyph glyph-name="uni20B4" unicode="&#x20b4;" horiz-adv-x="680" 
d="M21 312q6 6 20 6h108q24 20 72 51h-180q-14 0 -20 6t-6 20v42q0 14 6 20t20 6h324q12 9 16.5 18t4.5 23q0 20 -19 31.5t-56 11.5q-65 0 -146 -31q-2 -1 -10 -3.5t-14 -2.5q-14 0 -21 13l-53 98q-7 12 -7 18q0 11 14 19q42 27 110 42t157 15q82 0 139.5 -21t87.5 -60.5
t30 -94.5q0 -42 -14 -76h54q14 0 20.5 -6t6.5 -20v-42q0 -14 -6.5 -20t-20.5 -6h-119q-34 -29 -70 -51h189q14 0 20.5 -6t6.5 -20v-42q0 -14 -6.5 -20t-20.5 -6h-345q-9 -9 -12 -14t-3 -15q0 -20 23 -32t73 -12q52 0 90.5 8.5t73.5 20.5q15 5 21 5q8 0 13.5 -5.5t9.5 -17.5
l35 -91q3 -7 3 -12q0 -11 -11 -19.5t-35 -19.5q-78 -35 -246 -35q-76 0 -134.5 19.5t-92 59t-33.5 97.5q0 23 3 37.5t9 25.5h-39q-14 0 -20 6t-6 20v42q0 14 6 20z" />
    <glyph glyph-name="uni20B5" unicode="&#x20b5;" 
d="M181 52.5q-72 49.5 -111.5 125.5t-39.5 167q0 94 39.5 171t111.5 127.5t166 65.5v61q0 30 30 30h50q30 0 30 -30v-56q65 -5 122.5 -29.5t106.5 -65.5q7 -6 10 -11t3 -11q0 -9 -7 -19l-78 -107q-10 -15 -23 -15q-8 0 -21 8q-59 38 -113 46v-321q59 8 114 48q13 10 22 10
q11 0 21 -15l76 -106q8 -11 8 -20q0 -6 -4.5 -12.5t-14.5 -14.5q-47 -38 -103.5 -61.5t-118.5 -30.5v-87q0 -30 -30 -30h-50q-30 0 -30 30v90q-94 13 -166 62.5zM277.5 443q-22.5 -40 -22.5 -94q0 -52 23.5 -91t68.5 -57v299q-47 -17 -69.5 -57z" />
    <glyph glyph-name="uni20B6" unicode="&#x20b6;" 
d="M36 393q-14 0 -20 6.5t-6 20.5v102q0 14 6 20.5t20 6.5h54v195q0 14 6.5 20t19.5 6h172q14 0 20.5 -6t6.5 -20v-195h80v195q0 14 6.5 20t19.5 6h172q14 0 20.5 -6t6.5 -20v-195h54q14 0 20 -6.5t6 -20.5v-102q0 -14 -6 -20.5t-20 -6.5h-54v-367q0 -14 -6.5 -20t-20.5 -6
h-172q-13 0 -19.5 6.5t-6.5 19.5v367h-80v-367q0 -14 -6.5 -20t-20.5 -6h-172q-13 0 -19.5 6.5t-6.5 19.5v367h-54z" />
    <glyph glyph-name="uni20B7" unicode="&#x20b7;" 
d="M20 153q0 34 14 56.5t34.5 33t41.5 10.5q30 0 49.5 -9t26.5 -22q6 12 21 21.5t37 9.5q26 0 45.5 -9t27.5 -25q5 15 21.5 24.5t37.5 9.5q40 0 62 -23.5t22 -73.5v-39q33 28 33 78q0 28 -17 46t-44 29.5t-82 28.5q-22 6 -33 10q-78 25 -125 47t-77.5 60t-30.5 98
q0 62 33 107.5t96.5 69.5t152.5 24q78 0 149.5 -13.5t110.5 -37.5q16 -10 16 -24q0 -10 -6 -19l-51 -97q-4 -8 -14 -13t-21 -5q-8 0 -17 3q-35 15 -78 23t-73 8q-47 0 -71 -5.5t-24 -23.5q0 -9 10 -16t32 -15l49 -17q26 -8 32 -10q90 -30 145 -56t89 -69.5t34 -109.5
q0 -78 -54 -134.5t-164 -81.5v-72q0 -4 -3 -7t-8 -3h-58q-11 0 -11 10v58l-42 -3v-55q0 -3 -2.5 -6.5t-8.5 -3.5h-62q-11 0 -11 10v57q-15 1 -43 5v-62q0 -10 -14 -10h-55q-6 0 -9 3t-3 7v82q-110 43 -110 141zM125.5 164q-4.5 16 -15.5 16q-12 0 -18 -4.5t-6 -20.5
q0 -19 11 -31.5t33 -21.5v31q0 15 -4.5 31zM252.5 158.5q-1.5 10.5 -6 15t-13.5 4.5t-13.5 -4.5t-6.5 -15t-2 -31.5v-42q6 0 19 -1.5t24 -1.5v45q0 21 -1.5 31.5zM380 86v41q0 21 -1.5 31.5t-6 15t-13.5 4.5t-13.5 -4t-6 -14.5t-1.5 -32.5v-46q29 2 42 5z" />
    <glyph glyph-name="uni20B8" unicode="&#x20b8;" 
d="M74 715h562q30 0 30 -30v-75q0 -30 -30 -30h-562q-30 0 -30 30v75q0 30 30 30zM239.5 358.5q-3.5 3.5 -14.5 3.5h-151q-30 0 -30 30v118q0 30 30 30h562q30 0 30 -30v-118q0 -30 -30 -30h-151q-10 0 -14 -3.5t-4 -14.5v-314q0 -30 -30 -30h-164q-30 0 -30 30v314
q0 11 -3.5 14.5z" />
    <glyph glyph-name="uni20B9" unicode="&#x20b9;" 
d="M60 490h299q-12 28 -39.5 41.5t-75.5 13.5h-184q-30 0 -30 27v98q0 30 30 30h590q30 0 30 -30v-95q0 -30 -30 -30h-79q4 -6 9.5 -15t10.5 -20t7 -20h52q30 0 30 -30v-95q0 -30 -30 -30h-64q-27 -62 -102 -100l153 -202q7 -8 7 -17q0 -7 -7 -11.5t-20 -4.5h-176
q-24 0 -36 6.5t-26 26.5l-149 209q-8 11 -8 19q0 15 26 21q74 16 100 53h-288q-30 0 -30 30v95q0 30 30 30z" />
    <glyph glyph-name="uni20BA" unicode="&#x20ba;" 
d="M37 156q-8 -4 -16 -4q-16 0 -16 22v59q0 18 5.5 27t21.5 17l46 22v50l-41 -20q-8 -4 -16 -4q-16 0 -16 22v59q0 18 5.5 27t21.5 17l46 22v198q0 30 30 30h175q30 0 30 -30v-84l126 62q8 4 16 4q16 0 16 -22v-59q0 -18 -5.5 -27t-21.5 -17l-131 -64v-50l126 62q8 4 16 4
q16 0 16 -22v-59q0 -18 -5.5 -27t-21.5 -17l-131 -64v-72q0 -10 4 -14t14 -4h9q60 0 96.5 34t48.5 95q4 18 10.5 24t21.5 6h148q17 0 23.5 -7t6.5 -22q0 -25 -8 -63.5t-27 -82.5t-51 -80q-35 -38 -74.5 -60.5t-95.5 -33t-138 -10.5h-193q-30 0 -30 30v146z" />
    <glyph glyph-name="uni20BB" unicode="&#x20bb;" horiz-adv-x="759" 
d="M197 260v160h-19q-51 0 -90.5 17.5t-61.5 51.5t-22 81q0 48 22.5 83t63 53.5t93.5 18.5t90.5 -21.5t56.5 -58t19 -82.5v-23h135q122 0 181.5 -45.5t59.5 -135.5q0 -57 -30 -97t-78 -60t-101 -22l-47 66l-73 -72l-47 58v-51q0 -54 24 -78.5t65 -24.5q33 0 81 11l21 -115
q-61 -23 -134 -23q-66 0 -110 19t-68.5 60.5t-29.5 108.5l-48 -37l-57 76zM197 557q0 48 -32 48q-15 0 -23 -8.5t-8 -23.5q0 -16 12.5 -24.5t34.5 -8.5h16v17zM533 305q16 5 26 17t10 32q0 33 -25 49.5t-85 16.5h-110v-40l57 -76l70 76z" />
    <glyph glyph-name="uni20BC" unicode="&#x20bc;" horiz-adv-x="896" 
d="M67.5 364q37.5 67 107 110t163.5 60v140q0 14 6.5 20t20.5 6h167q14 0 20 -6t6 -20v-140q94 -17 163.5 -60.5t107 -110.5t37.5 -152v-186q0 -13 -6 -19.5t-20 -6.5h-172q-14 0 -20.5 6t-6.5 20v170q0 114 -83 153v-322q0 -13 -6 -19.5t-20 -6.5h-167q-14 0 -20.5 6
t-6.5 20v322q-43 -20 -63 -58.5t-20 -93.5v-170q0 -14 -6.5 -20t-20.5 -6h-172q-13 0 -19.5 6.5t-6.5 19.5v186q0 85 37.5 152z" />
    <glyph glyph-name="uni20BD" unicode="&#x20bd;" 
d="M26 214q6 6 20 6h49v35h-49q-14 0 -20 6t-6 20v103q0 14 6 20t20 6h49v260q0 30 30 30h240q165 0 246.5 -52t81.5 -166q0 -119 -89 -173t-239 -54h-45v-35h187q14 0 20.5 -6t6.5 -20v-103q0 -14 -6.5 -20t-20.5 -6h-187v-35q0 -30 -30 -30h-165q-30 0 -30 30v35h-49
q-14 0 -20 6t-6 20v103q0 14 6 20zM445.5 426q31.5 16 31.5 51q0 39 -30 53.5t-92 14.5h-17q-10 0 -14 -3.5t-4 -14.5v-117h35q59 0 90.5 16z" />
    <glyph glyph-name="afii61289" unicode="&#x2113;" horiz-adv-x="555" 
d="M6 298q0 8 5 12.5t16 6.5q39 8 65 16v140q0 122 59.5 182t166.5 60q61 0 106.5 -22t70.5 -64.5t25 -102.5q0 -88 -64.5 -156.5t-183.5 -115.5v-27q0 -41 20.5 -61.5t59.5 -20.5q27 0 47.5 5.5t41.5 17.5q10 5 15 5q10 0 16 -14l40 -90q4 -8 4 -16q0 -7 -5 -12.5
t-16 -12.5q-35 -21 -78 -32t-93 -11q-110 0 -171 51.5t-61 151.5v9q-10 -4 -26 -7q-5 -1 -12 -1q-8 0 -12 4t-8 16l-25 73q-3 9 -3 16zM326.5 455q18.5 28 18.5 61q0 49 -33 49q-20 0 -30 -20t-10 -72v-65q36 19 54.5 47z" />
    <glyph glyph-name="afii61352" unicode="&#x2116;" horiz-adv-x="1147" 
d="M85 715q14 0 29 -7t34 -29l262 -298v289q0 30 30 30h145q30 0 30 -30v-641q0 -44 -30 -44q-14 0 -29 7t-34 29l-262 298v-289q0 -30 -30 -30h-145q-30 0 -30 30v641q0 44 30 44zM776 177q-48 26 -74 74t-26 113q0 68 26.5 117.5t75.5 76t116 26.5q65 0 113 -26t74 -74
t26 -113q0 -68 -26.5 -117.5t-75.5 -76t-116 -26.5q-65 0 -113 26zM938 301.5q17 24.5 17 66.5t-16.5 66t-46.5 24t-47 -24.5t-17 -66.5t16.5 -66t46.5 -24t47 24.5zM732 120h316q30 0 30 -30v-60q0 -30 -30 -30h-316q-30 0 -30 30v60q0 30 30 30z" />
    <glyph glyph-name="uni2117" unicode="&#x2117;" horiz-adv-x="610" 
d="M67 578q37 63 100 100t138 37t138 -37t100 -100t37 -138t-37 -138t-100 -100t-138 -37t-138 37t-100 100t-37 138t37 138zM126.5 336q27.5 -47 74.5 -74.5t104 -27.5t104 27.5t74.5 74.5t27.5 104t-27.5 104t-74.5 74.5t-104 27.5t-104 -27.5t-74.5 -74.5t-27.5 -104
t27.5 -104zM199 580h121q69 0 104.5 -28t35.5 -80t-37.5 -82t-106.5 -30h-18q-4 0 -5.5 -1.5t-1.5 -4.5v-41q0 -5 -2.5 -7.5t-9.5 -2.5h-80q-6 0 -8.5 2.5t-2.5 7.5v256q0 11 11 11zM342.5 446.5q12.5 5.5 12.5 24.5q0 13 -6 19t-16 7.5t-29 1.5h-6q-4 0 -5.5 -1.5
t-1.5 -4.5v-46q0 -3 1.5 -4.5t5.5 -1.5h6q26 0 38.5 5.5z" />
    <glyph glyph-name="trademark" unicode="&#x2122;" horiz-adv-x="950" 
d="M448 709q11 0 29 -18l184 -174l182 174q18 18 29 18q18 0 18 -25v-373q0 -10 -4.5 -15t-15.5 -5h-109q-10 0 -15 5t-5 15v109l-57 -56q-7 -7 -13 -11t-10 -4t-10 4t-13 11l-58 56v-109q0 -10 -4.5 -15t-15.5 -5h-109q-10 0 -15 5t-5 15v373q0 25 17 25zM141.5 563.5
q-2.5 2.5 -9.5 2.5h-77q-10 0 -15 5t-5 15v94q0 11 5 15.5t15 4.5h327q11 0 15.5 -4.5t4.5 -15.5v-94q0 -10 -4.5 -15t-15.5 -5h-77q-7 0 -9.5 -2.5t-2.5 -9.5v-243q0 -10 -4.5 -15t-15.5 -5h-109q-10 0 -15 5t-5 15v243q0 7 -2.5 9.5z" />
    <glyph glyph-name="uni2126" unicode="&#x2126;" horiz-adv-x="822" 
d="M50 180h74q-42 39 -65.5 92t-23.5 118q0 88 44 162.5t130 118.5t205 44q117 0 201.5 -44t128 -118.5t43.5 -162.5q0 -64 -23.5 -117t-65.5 -93h74q30 0 30 -30v-120q0 -30 -30 -30h-285q-30 0 -30 30v96q0 19 3.5 27.5t16.5 21.5q75 75 75 177q0 44 -15.5 78t-47.5 53.5
t-78 19.5t-78 -19.5t-47.5 -53.5t-15.5 -78q0 -102 75 -177q13 -13 16.5 -21.5t3.5 -27.5v-96q0 -30 -30 -30h-285q-30 0 -30 30v120q0 30 30 30z" />
    <glyph glyph-name="estimated" unicode="&#x212e;" horiz-adv-x="894" 
d="M659.5 664q90.5 -51 138 -136.5t47.5 -187.5h-635q-6 0 -10 -4t-4 -9v-173q0 -17 3.5 -27t12.5 -19q46 -46 105.5 -70.5t129.5 -24.5q74 0 140 31.5t109 82.5h71q-26 -36 -69.5 -67.5t-107 -51.5t-143.5 -20q-118 0 -208.5 46.5t-140 129t-49.5 186.5q0 103 48.5 186
t138.5 131t211 48q122 0 212.5 -51zM317.5 662.5q-59.5 -25.5 -105.5 -71.5q-9 -9 -12.5 -18t-3.5 -25v-173q0 -6 4 -9.5t10 -3.5h473q6 0 10 3.5t4 9.5v173q0 16 -3.5 25t-12.5 18q-51 50 -110.5 73.5t-123.5 23.5q-70 0 -129.5 -25.5z" />
    <glyph glyph-name="uni2133" unicode="&#x2133;" horiz-adv-x="1155" 
d="M922 38.5q-51 -48.5 -84 -48.5q-36 0 -55 29t-19 98q0 44 28.5 110t66 128t63.5 97q25 34 87 107l116 135q-33 -22 -81.5 -65.5t-104 -106t-107.5 -136.5q-58 -83 -128 -199l-57 -91q-35 -53 -58.5 -79.5t-42.5 -26.5q-27 0 -37.5 28.5t-10.5 67.5t30 129.5t135 258.5
q30 48 80.5 119l75.5 104q-57 -43 -141 -144t-174 -221q-26 -33 -61 -86q-59 -85 -100.5 -135t-95.5 -85.5t-117 -35.5q-40 0 -70.5 16.5t-47 46.5t-16.5 69q0 28 11.5 51t32.5 36.5t47 13.5q30 0 43 -16t13 -39q0 -17 -16.5 -40t-71.5 -29q-12 -1 -16 -6t-4 -15
q0 -9 10 -26t31.5 -30.5t54.5 -13.5q58 0 109 35t93.5 87t107.5 145l60 85q93 127 183.5 227.5t143.5 137.5l16 -10q-25 -58 -42 -94l-61 -139l-48 -109l-28.5 -69.5t-54 -144.5t-34.5 -123q25 25 55.5 70.5t81.5 128.5q64 105 97 151l77 102.5t62 72.5q53 56 105 99.5
t83 61.5l17 -16q-32 -46 -89.5 -151.5t-97.5 -188.5q-43 -88 -88 -198t-45 -147q0 -13 8 -13q24 0 70.5 45t92.5 105l12 -10q-44 -61 -95 -109.5z" />
    <glyph glyph-name="partialdiff" unicode="&#x2202;" 
d="M111 635q0 7 5 13t18 15q41 27 88 42t107 15q95 0 167 -42.5t112 -121t40 -183.5q0 -116 -41.5 -204t-117.5 -136t-177 -48q-79 0 -137 31.5t-89 87t-31 126.5t31.5 127t88 88t127.5 32q102 0 159 -66q-9 65 -44.5 100.5t-95.5 35.5q-33 0 -60.5 -7.5t-54.5 -22.5
q-14 -7 -19 -7q-13 0 -23 19l-46 84q-7 13 -7 22zM280.5 178.5q20.5 -20.5 53.5 -20.5t54 20.5t21 52.5t-21 52.5t-54 20.5t-53.5 -20.5t-20.5 -52.5t20.5 -52.5z" />
    <glyph glyph-name="uni2206" unicode="&#x2206;" horiz-adv-x="776" 
d="M363.5 709q10.5 11 24.5 11q13 0 24.5 -11.5t25.5 -38.5l337 -637q5 -9 5 -17t-6.5 -12t-17.5 -4h-736q-11 0 -17.5 4t-6.5 12t5 17l337 637q15 28 25.5 39zM384 372l-92 -192h185z" />
    <glyph glyph-name="product" unicode="&#x220f;" horiz-adv-x="782" 
d="M85 700h612q30 0 30 -30v-800q0 -30 -30 -30h-175q-30 0 -30 30v612q0 11 -3.5 14.5t-14.5 3.5h-166q-10 0 -14 -3.5t-4 -14.5v-612q0 -30 -30 -30h-175q-30 0 -30 30v800q0 30 30 30z" />
    <glyph glyph-name="summation" unicode="&#x2211;" 
d="M41 630q-13 18 -18.5 29t-5.5 19q0 9 7 15.5t23 6.5h596q30 0 30 -30v-120q0 -30 -30 -30h-276l142 -198q11 -15 15.5 -24t4.5 -17t-4.5 -16.5t-15.5 -24.5l-155 -220h291q30 0 30 -30v-120q0 -30 -30 -30h-605q-16 0 -23 6.5t-7 15.5q0 7 5.5 18.5t18.5 29.5l261 370z
" />
    <glyph glyph-name="minus" unicode="&#x2212;" 
d="M107 410h496q30 0 30 -30v-120q0 -30 -30 -30h-496q-30 0 -30 30v120q0 30 30 30z" />
    <glyph glyph-name="uni2215" unicode="&#x2215;" horiz-adv-x="214" 
d="M257.5 711q6.5 4 20.5 4h118q9 0 14 -4.5t5 -10.5q0 -7 -9 -21l-435 -673q-8 -13 -14.5 -17t-20.5 -4h-118q-9 0 -14 4.5t-5 10.5q0 7 9 21l435 673q8 13 14.5 17z" />
    <glyph glyph-name="uni2219" unicode="&#x2219;" horiz-adv-x="330" 
d="M56 409q16 26 44.5 40.5t64.5 14.5q37 0 65.5 -14.5t44 -40.5t15.5 -59q0 -32 -15.5 -58t-44 -40.5t-65.5 -14.5q-36 0 -64.5 14.5t-44.5 40.5t-16 58q0 33 16 59z" />
    <glyph glyph-name="radical" unicode="&#x221a;" 
d="M26 283q0 6 3 11t10 11l146 120q19 16 30 22.5t20 6.5q11 0 20.5 -8.5t21.5 -26.5l65 -97l151 415q5 14 12 18.5t23 4.5h153q13 0 18.5 -3.5t5.5 -11.5q0 -6 -3 -14l-274 -686q-14 -34 -26.5 -49.5t-27.5 -15.5q-13 0 -24.5 10.5t-30.5 37.5l-125 186l-52 -44
q-12 -11 -24 -11q-13 0 -23 16l-61 88q-8 13 -8 20z" />
    <glyph glyph-name="infinity" unicode="&#x221e;" 
d="M280.5 143.5q-38.5 -23.5 -87.5 -23.5q-54 0 -94.5 26t-62 70.5t-21.5 99.5t22 100.5t65 72.5t102 27q48 0 84 -23.5t67 -64.5q32 41 70 64.5t88 23.5q54 0 94.5 -26t62 -71t21.5 -99q0 -55 -22 -100.5t-65 -72.5t-102 -27q-48 0 -84 23t-67 64q-32 -40 -70.5 -63.5z
M246 346.5q-15 9.5 -32 9.5q-19 0 -30.5 -10.5t-11.5 -27.5t10.5 -28t28.5 -11q17 0 32.5 10t31.5 29q-14 19 -29 28.5zM461.5 288.5q14.5 -9.5 30.5 -9.5q19 0 30.5 11t11.5 28t-10 27.5t-28 10.5q-17 0 -32.5 -10t-31.5 -30q15 -18 29.5 -27.5z" />
    <glyph glyph-name="integral" unicode="&#x222b;" horiz-adv-x="500" 
d="M-98 -54q5 4 11 4t13 -4q15 -8 30 -12t34 -4q43 0 64 28t21 87v383q0 90 30 154.5t89.5 98.5t146.5 34q56 0 99 -12.5t72 -33.5q17 -11 17 -25q0 -8 -5 -16l-56 -97q-5 -8 -10 -12t-11 -4t-13 4q-15 8 -30 12t-34 4q-43 0 -64 -28t-21 -87v-383q0 -90 -30 -154.5
t-89.5 -98.5t-146.5 -34q-56 0 -99 12.5t-72 33.5q-17 11 -17 25q0 8 5 16l56 97q5 8 10 12z" />
    <glyph glyph-name="approxequal" unicode="&#x2248;" 
d="M39 456q0 12 10 22q78 84 196 84q35 0 64.5 -7t66.5 -20q35 -11 53 -15.5t38 -4.5q28 0 50 10.5t45 31.5q13 13 24 13q10 0 20 -14l55 -77q10 -13 10 -25t-10 -23q-35 -41 -84 -67.5t-112 -26.5q-35 0 -64.5 7t-66.5 20q-35 11 -53 15.5t-38 4.5q-53 0 -98 -33
q-13 -10 -23 -10t-19 13l-54 76q-10 13 -10 26zM39 186q0 12 10 23q35 41 84 67.5t112 26.5q35 0 64.5 -7t66.5 -20q35 -11 53 -15.5t38 -4.5q53 0 98 33q13 10 23 10t19 -13l54 -76q10 -13 10 -26q0 -12 -10 -22q-78 -84 -196 -84q-35 0 -64.5 7t-66.5 20q-35 11 -53 15.5
t-38 4.5q-28 0 -50 -10.5t-45 -31.5q-6 -6 -12 -9.5t-11 -3.5q-10 0 -21 14l-55 77q-10 13 -10 25z" />
    <glyph glyph-name="notequal" unicode="&#x2260;" 
d="M107 100q-30 0 -30 30v120q0 30 30 30h140l37 80h-177q-30 0 -30 30v120q0 30 30 30h260l41 88q8 17 15.5 22t23.5 5h119q11 0 17 -4.5t6 -11.5q0 -6 -3 -12l-40 -87h57q30 0 30 -30v-120q0 -30 -30 -30h-141l-37 -80h178q30 0 30 -30v-120q0 -30 -30 -30h-261l-40 -88
q-8 -17 -15.5 -22t-23.5 -5h-119q-11 0 -17 4.5t-6 11.5q0 6 3 12l40 87h-57z" />
    <glyph glyph-name="lessequal" unicode="&#x2264;" 
d="M79.5 521.5q4.5 8.5 20.5 14.5l453 177q9 4 17 4q20 0 20 -28v-123q0 -19 -6 -27.5t-24 -15.5l-213 -74l213 -74q18 -7 24 -15.5t6 -27.5v-123q0 -28 -20 -28q-8 0 -17 4l-453 177q-16 6 -20.5 14.5t-4.5 26.5v92q0 18 4.5 26.5zM105 165h455q30 0 30 -30v-120
q0 -30 -30 -30h-455q-30 0 -30 30v120q0 30 30 30z" />
    <glyph glyph-name="greaterequal" unicode="&#x2265;" 
d="M126 359.5q6 8.5 24 15.5l213 74l-213 74q-18 7 -24 15.5t-6 27.5v123q0 28 20 28q8 0 17 -4l453 -177q16 -6 20.5 -14.5t4.5 -26.5v-92q0 -18 -4.5 -26.5t-20.5 -14.5l-453 -177q-9 -4 -17 -4q-20 0 -20 28v123q0 19 6 27.5zM150 165h455q30 0 30 -30v-120
q0 -30 -30 -30h-455q-30 0 -30 30v120q0 30 30 30z" />
    <glyph glyph-name="lozenge" unicode="&#x25ca;" horiz-adv-x="616" 
d="M24.5 335.5q-4.5 8.5 -4.5 14.5q0 7 4 14.5t12 18.5l221 293q12 16 21.5 26.5t15.5 14t14 3.5t14 -3.5t15.5 -14t21.5 -26.5l221 -293q9 -11 12.5 -18.5t3.5 -14.5q0 -13 -16 -33l-221 -293q-12 -16 -21.5 -26.5t-15.5 -14t-14 -3.5t-14 3.5t-15.5 14t-21.5 26.5
l-221 293q-7 10 -11.5 18.5zM308 481l-97 -131l97 -132l98 132z" />
    </font>
</defs>
</svg>
